G04 #@! TF.GenerationSoftware,KiCad,Pcbnew,8.0.1-8.0.1-1~ubuntu22.04.1*
G04 #@! TF.CreationDate,2024-05-03T10:53:24-07:00*
G04 #@! TF.ProjectId,pifire-ads-board,70696669-7265-42d6-9164-732d626f6172,rev?*
G04 #@! TF.SameCoordinates,Original*
G04 #@! TF.FileFunction,Copper,L1,Top*
G04 #@! TF.FilePolarity,Positive*
%FSLAX46Y46*%
G04 Gerber Fmt 4.6, Leading zero omitted, Abs format (unit mm)*
G04 Created by KiCad (PCBNEW 8.0.1-8.0.1-1~ubuntu22.04.1) date 2024-05-03 10:53:24*
%MOMM*%
%LPD*%
G01*
G04 APERTURE LIST*
G04 Aperture macros list*
%AMRoundRect*
0 Rectangle with rounded corners*
0 $1 Rounding radius*
0 $2 $3 $4 $5 $6 $7 $8 $9 X,Y pos of 4 corners*
0 Add a 4 corners polygon primitive as box body*
4,1,4,$2,$3,$4,$5,$6,$7,$8,$9,$2,$3,0*
0 Add four circle primitives for the rounded corners*
1,1,$1+$1,$2,$3*
1,1,$1+$1,$4,$5*
1,1,$1+$1,$6,$7*
1,1,$1+$1,$8,$9*
0 Add four rect primitives between the rounded corners*
20,1,$1+$1,$2,$3,$4,$5,0*
20,1,$1+$1,$4,$5,$6,$7,0*
20,1,$1+$1,$6,$7,$8,$9,0*
20,1,$1+$1,$8,$9,$2,$3,0*%
%AMFreePoly0*
4,1,6,1.000000,0.000000,0.500000,-0.750000,-0.500000,-0.750000,-0.500000,0.750000,0.500000,0.750000,1.000000,0.000000,1.000000,0.000000,$1*%
%AMFreePoly1*
4,1,6,0.500000,-0.750000,-0.650000,-0.750000,-0.150000,0.000000,-0.650000,0.750000,0.500000,0.750000,0.500000,-0.750000,0.500000,-0.750000,$1*%
G04 Aperture macros list end*
G04 #@! TA.AperFunction,ComponentPad*
%ADD10RoundRect,0.250000X-0.725000X0.600000X-0.725000X-0.600000X0.725000X-0.600000X0.725000X0.600000X0*%
G04 #@! TD*
G04 #@! TA.AperFunction,ComponentPad*
%ADD11O,1.950000X1.700000*%
G04 #@! TD*
G04 #@! TA.AperFunction,ComponentPad*
%ADD12R,1.700000X1.700000*%
G04 #@! TD*
G04 #@! TA.AperFunction,ComponentPad*
%ADD13O,1.700000X1.700000*%
G04 #@! TD*
G04 #@! TA.AperFunction,ComponentPad*
%ADD14C,1.600000*%
G04 #@! TD*
G04 #@! TA.AperFunction,ComponentPad*
%ADD15O,1.600000X1.600000*%
G04 #@! TD*
G04 #@! TA.AperFunction,ComponentPad*
%ADD16R,3.000000X3.000000*%
G04 #@! TD*
G04 #@! TA.AperFunction,ComponentPad*
%ADD17C,3.000000*%
G04 #@! TD*
G04 #@! TA.AperFunction,ComponentPad*
%ADD18RoundRect,0.250000X-0.600000X-0.750000X0.600000X-0.750000X0.600000X0.750000X-0.600000X0.750000X0*%
G04 #@! TD*
G04 #@! TA.AperFunction,ComponentPad*
%ADD19O,1.700000X2.000000*%
G04 #@! TD*
G04 #@! TA.AperFunction,SMDPad,CuDef*
%ADD20FreePoly0,0.000000*%
G04 #@! TD*
G04 #@! TA.AperFunction,SMDPad,CuDef*
%ADD21FreePoly1,0.000000*%
G04 #@! TD*
G04 #@! TA.AperFunction,ViaPad*
%ADD22C,0.800000*%
G04 #@! TD*
G04 #@! TA.AperFunction,Conductor*
%ADD23C,0.250000*%
G04 #@! TD*
G04 #@! TA.AperFunction,Conductor*
%ADD24C,0.500000*%
G04 #@! TD*
G04 APERTURE END LIST*
D10*
X39000000Y-43250000D03*
D11*
X39000000Y-45750000D03*
X39000000Y-48250000D03*
X39000000Y-50750000D03*
D12*
X48608000Y-68000000D03*
D13*
X51148000Y-68000000D03*
X53688000Y-68000000D03*
X56228000Y-68000000D03*
X58768000Y-68000000D03*
X61308000Y-68000000D03*
X63848000Y-68000000D03*
X66388000Y-68000000D03*
X68928000Y-68000000D03*
X71468000Y-68000000D03*
D14*
X78250000Y-60810000D03*
D15*
X78250000Y-53190000D03*
D16*
X76128000Y-35000000D03*
D17*
X81208000Y-35000000D03*
D18*
X66500000Y-45000000D03*
D19*
X69000000Y-45000000D03*
D16*
X44124000Y-35000000D03*
D17*
X49204000Y-35000000D03*
D20*
X44550000Y-73000000D03*
D21*
X46000000Y-73000000D03*
D20*
X39550000Y-73000000D03*
D21*
X41000000Y-73000000D03*
D16*
X65460000Y-35000000D03*
D17*
X70540000Y-35000000D03*
D14*
X88250000Y-60810000D03*
D15*
X88250000Y-53190000D03*
D18*
X57500000Y-45000000D03*
D19*
X60000000Y-45000000D03*
D20*
X54550000Y-73000000D03*
D21*
X56000000Y-73000000D03*
D20*
X49550000Y-73000000D03*
D21*
X51000000Y-73000000D03*
D18*
X75500000Y-45000000D03*
D19*
X78000000Y-45000000D03*
D18*
X48500000Y-45000000D03*
D19*
X51000000Y-45000000D03*
D10*
X39000000Y-57500000D03*
D11*
X39000000Y-60000000D03*
X39000000Y-62500000D03*
X39000000Y-65000000D03*
D14*
X83250000Y-60810000D03*
D15*
X83250000Y-53190000D03*
D16*
X54792000Y-35000000D03*
D17*
X59872000Y-35000000D03*
D14*
X93250000Y-60810000D03*
D15*
X93250000Y-53190000D03*
D22*
X38850000Y-69450000D03*
D23*
X53900000Y-55000000D02*
X48500000Y-49600000D01*
X60750000Y-60700000D02*
X58200000Y-60700000D01*
X53900000Y-56400000D02*
X53900000Y-55000000D01*
X48500000Y-45000000D02*
X48500000Y-39376000D01*
X48500000Y-39376000D02*
X44124000Y-35000000D01*
X48500000Y-49600000D02*
X48500000Y-45000000D01*
X58200000Y-60700000D02*
X53900000Y-56400000D01*
X63848000Y-63798000D02*
X60750000Y-60700000D01*
X63848000Y-68000000D02*
X63848000Y-63798000D01*
X37150000Y-43250000D02*
X30600000Y-49800000D01*
X30600000Y-64550000D02*
X39050000Y-73000000D01*
X30600000Y-49800000D02*
X30600000Y-64550000D01*
X39050000Y-73000000D02*
X39550000Y-73000000D01*
X39000000Y-43250000D02*
X37150000Y-43250000D01*
X66388000Y-64838000D02*
X57500000Y-55950000D01*
X57500000Y-45000000D02*
X57500000Y-37708000D01*
X57500000Y-37708000D02*
X54792000Y-35000000D01*
X57500000Y-55950000D02*
X57500000Y-45000000D01*
X66388000Y-68000000D02*
X66388000Y-64838000D01*
X66500000Y-36040000D02*
X65460000Y-35000000D01*
X68928000Y-68000000D02*
X68928000Y-60978000D01*
X66500000Y-58550000D02*
X66500000Y-45000000D01*
X66500000Y-45000000D02*
X66500000Y-36040000D01*
X68928000Y-60978000D02*
X66500000Y-58550000D01*
X71468000Y-68000000D02*
X75500000Y-63968000D01*
X75500000Y-63968000D02*
X75500000Y-45000000D01*
X75500000Y-35628000D02*
X76128000Y-35000000D01*
X75500000Y-45000000D02*
X75500000Y-35628000D01*
D24*
X38850000Y-69450000D02*
X41000000Y-69450000D01*
X41000000Y-69450000D02*
X44550000Y-73000000D01*
D23*
X56228000Y-68000000D02*
X53928000Y-65700000D01*
X35450000Y-62500000D02*
X39000000Y-62500000D01*
X35650000Y-62500000D02*
X33250000Y-64900000D01*
X32350000Y-59400000D02*
X35450000Y-62500000D01*
X44600000Y-53850000D02*
X39000000Y-48250000D01*
X39000000Y-48250000D02*
X35150000Y-48250000D01*
X47900000Y-71350000D02*
X49550000Y-73000000D01*
X39000000Y-62500000D02*
X35650000Y-62500000D01*
X34550000Y-67550000D02*
X40550000Y-67550000D01*
X33250000Y-66200000D02*
X34550000Y-67500000D01*
X53928000Y-65700000D02*
X50700000Y-65700000D01*
X44350000Y-71350000D02*
X47900000Y-71350000D01*
X35150000Y-48250000D02*
X32350000Y-51050000D01*
X33250000Y-64900000D02*
X33250000Y-66200000D01*
X34550000Y-67500000D02*
X34550000Y-67550000D01*
X40550000Y-67550000D02*
X44350000Y-71350000D01*
X44600000Y-59600000D02*
X44600000Y-53850000D01*
X50700000Y-65700000D02*
X44600000Y-59600000D01*
X32350000Y-51050000D02*
X32350000Y-59400000D01*
X41450000Y-65000000D02*
X43600000Y-62850000D01*
X46950000Y-70750000D02*
X52300000Y-70750000D01*
X41200000Y-65000000D02*
X46950000Y-70750000D01*
X39000000Y-65000000D02*
X41450000Y-65000000D01*
X53688000Y-69362000D02*
X52300000Y-70750000D01*
X53688000Y-68000000D02*
X53688000Y-69362000D01*
X39000000Y-65000000D02*
X41200000Y-65000000D01*
X52300000Y-70750000D02*
X54550000Y-73000000D01*
X43600000Y-54800000D02*
X39550000Y-50750000D01*
X43600000Y-62850000D02*
X43600000Y-54800000D01*
X39550000Y-50750000D02*
X39000000Y-50750000D01*
X57650000Y-73000000D02*
X58768000Y-71882000D01*
X46000000Y-73950000D02*
X47250000Y-75200000D01*
X56000000Y-73000000D02*
X57650000Y-73000000D01*
X54550000Y-75200000D02*
X56000000Y-73750000D01*
X43200000Y-75200000D02*
X47250000Y-75200000D01*
X47250000Y-75200000D02*
X52050000Y-75200000D01*
X46000000Y-73000000D02*
X46000000Y-73950000D01*
X56000000Y-73750000D02*
X56000000Y-73000000D01*
X41000000Y-73000000D02*
X43200000Y-75200000D01*
X51000000Y-73000000D02*
X51000000Y-74150000D01*
X52050000Y-75200000D02*
X54550000Y-75200000D01*
X51000000Y-74150000D02*
X52050000Y-75200000D01*
X58768000Y-71882000D02*
X58768000Y-68000000D01*
G04 #@! TA.AperFunction,Conductor*
G36*
X91003032Y-30200649D02*
G01*
X91067797Y-30203830D01*
X91366338Y-30218497D01*
X91378440Y-30219689D01*
X91735230Y-30272613D01*
X91747140Y-30274982D01*
X92097046Y-30362629D01*
X92108663Y-30366154D01*
X92448275Y-30487669D01*
X92459497Y-30492317D01*
X92785582Y-30646543D01*
X92796290Y-30652267D01*
X92984308Y-30764961D01*
X93105659Y-30837696D01*
X93115777Y-30844456D01*
X93405488Y-31059321D01*
X93414894Y-31067041D01*
X93682146Y-31309264D01*
X93690735Y-31317853D01*
X93894324Y-31542479D01*
X93932958Y-31585105D01*
X93940678Y-31594511D01*
X94155543Y-31884222D01*
X94162303Y-31894340D01*
X94347725Y-32203697D01*
X94353460Y-32214425D01*
X94411328Y-32336777D01*
X94507679Y-32540495D01*
X94512334Y-32551734D01*
X94593029Y-32777262D01*
X94633840Y-32891319D01*
X94637373Y-32902964D01*
X94725014Y-33252846D01*
X94727388Y-33264782D01*
X94780309Y-33621555D01*
X94781502Y-33633664D01*
X94799351Y-33996967D01*
X94799500Y-34003052D01*
X94799500Y-53139232D01*
X94784103Y-53191667D01*
X94797069Y-53216335D01*
X94799500Y-53240767D01*
X94799500Y-60759232D01*
X94784103Y-60811667D01*
X94797069Y-60836335D01*
X94799500Y-60860767D01*
X94799500Y-71996947D01*
X94799351Y-72003032D01*
X94781502Y-72366335D01*
X94780309Y-72378444D01*
X94727388Y-72735217D01*
X94725014Y-72747153D01*
X94637373Y-73097035D01*
X94633840Y-73108680D01*
X94512335Y-73448262D01*
X94507679Y-73459504D01*
X94353462Y-73785570D01*
X94347725Y-73796302D01*
X94162303Y-74105659D01*
X94155543Y-74115777D01*
X93940678Y-74405488D01*
X93932958Y-74414894D01*
X93690743Y-74682138D01*
X93682138Y-74690743D01*
X93414894Y-74932958D01*
X93405488Y-74940678D01*
X93115777Y-75155543D01*
X93105659Y-75162303D01*
X92796302Y-75347725D01*
X92785570Y-75353462D01*
X92459504Y-75507679D01*
X92448262Y-75512335D01*
X92108680Y-75633840D01*
X92097035Y-75637373D01*
X91747153Y-75725014D01*
X91735217Y-75727388D01*
X91378444Y-75780309D01*
X91366335Y-75781502D01*
X91003033Y-75799351D01*
X90996948Y-75799500D01*
X55134451Y-75799500D01*
X55067412Y-75779815D01*
X55021657Y-75727011D01*
X55011713Y-75657853D01*
X55040738Y-75594297D01*
X55046770Y-75587819D01*
X56342772Y-74291819D01*
X56404095Y-74258334D01*
X56430453Y-74255500D01*
X56500000Y-74255500D01*
X56571940Y-74250355D01*
X56709992Y-74209819D01*
X56831032Y-74132031D01*
X56925254Y-74023294D01*
X56985024Y-73892416D01*
X57005500Y-73750000D01*
X57005500Y-73749500D01*
X57005547Y-73749339D01*
X57005816Y-73745580D01*
X57006633Y-73745638D01*
X57025185Y-73682461D01*
X57077989Y-73636706D01*
X57129500Y-73625500D01*
X57711607Y-73625500D01*
X57772029Y-73613481D01*
X57832452Y-73601463D01*
X57877144Y-73582951D01*
X57946286Y-73554312D01*
X57997509Y-73520084D01*
X58048733Y-73485858D01*
X58135858Y-73398733D01*
X58135859Y-73398731D01*
X58142925Y-73391665D01*
X58142928Y-73391661D01*
X59166729Y-72367860D01*
X59166733Y-72367858D01*
X59253858Y-72280733D01*
X59322311Y-72178286D01*
X59322312Y-72178285D01*
X59345921Y-72121288D01*
X89149500Y-72121288D01*
X89181161Y-72361785D01*
X89243947Y-72596104D01*
X89301570Y-72735217D01*
X89336776Y-72820212D01*
X89458064Y-73030289D01*
X89458066Y-73030292D01*
X89458067Y-73030293D01*
X89605733Y-73222736D01*
X89605739Y-73222743D01*
X89777256Y-73394260D01*
X89777263Y-73394266D01*
X89783085Y-73398733D01*
X89969711Y-73541936D01*
X90179788Y-73663224D01*
X90375269Y-73744195D01*
X90387688Y-73749339D01*
X90403900Y-73756054D01*
X90638211Y-73818838D01*
X90818586Y-73842584D01*
X90878711Y-73850500D01*
X90878712Y-73850500D01*
X91121289Y-73850500D01*
X91169388Y-73844167D01*
X91361789Y-73818838D01*
X91596100Y-73756054D01*
X91820212Y-73663224D01*
X92030289Y-73541936D01*
X92222738Y-73394265D01*
X92394265Y-73222738D01*
X92541936Y-73030289D01*
X92663224Y-72820212D01*
X92756054Y-72596100D01*
X92818838Y-72361789D01*
X92850500Y-72121288D01*
X92850500Y-71878712D01*
X92818838Y-71638211D01*
X92756054Y-71403900D01*
X92663224Y-71179788D01*
X92541936Y-70969711D01*
X92394265Y-70777262D01*
X92394260Y-70777256D01*
X92222743Y-70605739D01*
X92222736Y-70605733D01*
X92030293Y-70458067D01*
X92030292Y-70458066D01*
X92030289Y-70458064D01*
X91820212Y-70336776D01*
X91758331Y-70311144D01*
X91596104Y-70243947D01*
X91361785Y-70181161D01*
X91121289Y-70149500D01*
X91121288Y-70149500D01*
X90878712Y-70149500D01*
X90878711Y-70149500D01*
X90638214Y-70181161D01*
X90403895Y-70243947D01*
X90179794Y-70336773D01*
X90179785Y-70336777D01*
X89969706Y-70458067D01*
X89777263Y-70605733D01*
X89777256Y-70605739D01*
X89605739Y-70777256D01*
X89605733Y-70777263D01*
X89458067Y-70969706D01*
X89336777Y-71179785D01*
X89336773Y-71179794D01*
X89243947Y-71403895D01*
X89181161Y-71638214D01*
X89149500Y-71878711D01*
X89149500Y-72121288D01*
X59345921Y-72121288D01*
X59369463Y-72064451D01*
X59393500Y-71943607D01*
X59393500Y-71820393D01*
X59393500Y-69275226D01*
X59413185Y-69208187D01*
X59446374Y-69173654D01*
X59639401Y-69038495D01*
X59806495Y-68871401D01*
X59920891Y-68708026D01*
X59936425Y-68685842D01*
X59991002Y-68642217D01*
X60060500Y-68635023D01*
X60122855Y-68666546D01*
X60139575Y-68685842D01*
X60269500Y-68871395D01*
X60269505Y-68871401D01*
X60436599Y-69038495D01*
X60533384Y-69106265D01*
X60630165Y-69174032D01*
X60630167Y-69174033D01*
X60630170Y-69174035D01*
X60844337Y-69273903D01*
X60844343Y-69273904D01*
X60844344Y-69273905D01*
X60899285Y-69288626D01*
X61072592Y-69335063D01*
X61249034Y-69350500D01*
X61307999Y-69355659D01*
X61308000Y-69355659D01*
X61308001Y-69355659D01*
X61366966Y-69350500D01*
X61543408Y-69335063D01*
X61771663Y-69273903D01*
X61985830Y-69174035D01*
X62179401Y-69038495D01*
X62346495Y-68871401D01*
X62460891Y-68708026D01*
X62476425Y-68685842D01*
X62531002Y-68642217D01*
X62600500Y-68635023D01*
X62662855Y-68666546D01*
X62679575Y-68685842D01*
X62809500Y-68871395D01*
X62809505Y-68871401D01*
X62976599Y-69038495D01*
X63073384Y-69106265D01*
X63170165Y-69174032D01*
X63170167Y-69174033D01*
X63170170Y-69174035D01*
X63384337Y-69273903D01*
X63384343Y-69273904D01*
X63384344Y-69273905D01*
X63439285Y-69288626D01*
X63612592Y-69335063D01*
X63789034Y-69350500D01*
X63847999Y-69355659D01*
X63848000Y-69355659D01*
X63848001Y-69355659D01*
X63906966Y-69350500D01*
X64083408Y-69335063D01*
X64311663Y-69273903D01*
X64525830Y-69174035D01*
X64719401Y-69038495D01*
X64886495Y-68871401D01*
X65000891Y-68708026D01*
X65016425Y-68685842D01*
X65071002Y-68642217D01*
X65140500Y-68635023D01*
X65202855Y-68666546D01*
X65219575Y-68685842D01*
X65349500Y-68871395D01*
X65349505Y-68871401D01*
X65516599Y-69038495D01*
X65613384Y-69106265D01*
X65710165Y-69174032D01*
X65710167Y-69174033D01*
X65710170Y-69174035D01*
X65924337Y-69273903D01*
X65924343Y-69273904D01*
X65924344Y-69273905D01*
X65979285Y-69288626D01*
X66152592Y-69335063D01*
X66329034Y-69350500D01*
X66387999Y-69355659D01*
X66388000Y-69355659D01*
X66388001Y-69355659D01*
X66446966Y-69350500D01*
X66623408Y-69335063D01*
X66851663Y-69273903D01*
X67065830Y-69174035D01*
X67259401Y-69038495D01*
X67426495Y-68871401D01*
X67540891Y-68708026D01*
X67556425Y-68685842D01*
X67611002Y-68642217D01*
X67680500Y-68635023D01*
X67742855Y-68666546D01*
X67759575Y-68685842D01*
X67889500Y-68871395D01*
X67889505Y-68871401D01*
X68056599Y-69038495D01*
X68153384Y-69106265D01*
X68250165Y-69174032D01*
X68250167Y-69174033D01*
X68250170Y-69174035D01*
X68464337Y-69273903D01*
X68464343Y-69273904D01*
X68464344Y-69273905D01*
X68519285Y-69288626D01*
X68692592Y-69335063D01*
X68869034Y-69350500D01*
X68927999Y-69355659D01*
X68928000Y-69355659D01*
X68928001Y-69355659D01*
X68986966Y-69350500D01*
X69163408Y-69335063D01*
X69391663Y-69273903D01*
X69605830Y-69174035D01*
X69799401Y-69038495D01*
X69966495Y-68871401D01*
X70080891Y-68708026D01*
X70096425Y-68685842D01*
X70151002Y-68642217D01*
X70220500Y-68635023D01*
X70282855Y-68666546D01*
X70299575Y-68685842D01*
X70429500Y-68871395D01*
X70429505Y-68871401D01*
X70596599Y-69038495D01*
X70693384Y-69106265D01*
X70790165Y-69174032D01*
X70790167Y-69174033D01*
X70790170Y-69174035D01*
X71004337Y-69273903D01*
X71004343Y-69273904D01*
X71004344Y-69273905D01*
X71059285Y-69288626D01*
X71232592Y-69335063D01*
X71409034Y-69350500D01*
X71467999Y-69355659D01*
X71468000Y-69355659D01*
X71468001Y-69355659D01*
X71526966Y-69350500D01*
X71703408Y-69335063D01*
X71931663Y-69273903D01*
X72145830Y-69174035D01*
X72339401Y-69038495D01*
X72506495Y-68871401D01*
X72642035Y-68677830D01*
X72741903Y-68463663D01*
X72803063Y-68235408D01*
X72823659Y-68000000D01*
X72803063Y-67764592D01*
X72776143Y-67664125D01*
X72777806Y-67594276D01*
X72808235Y-67544353D01*
X75898729Y-64453860D01*
X75898733Y-64453858D01*
X75985858Y-64366733D01*
X76020084Y-64315509D01*
X76054312Y-64264286D01*
X76101463Y-64150451D01*
X76125500Y-64029607D01*
X76125500Y-63906393D01*
X76125500Y-60810001D01*
X76944532Y-60810001D01*
X76964364Y-61036686D01*
X76964366Y-61036697D01*
X77023258Y-61256488D01*
X77023261Y-61256497D01*
X77119431Y-61462732D01*
X77119432Y-61462734D01*
X77249954Y-61649141D01*
X77410858Y-61810045D01*
X77410861Y-61810047D01*
X77597266Y-61940568D01*
X77803504Y-62036739D01*
X78023308Y-62095635D01*
X78185230Y-62109801D01*
X78249998Y-62115468D01*
X78250000Y-62115468D01*
X78250002Y-62115468D01*
X78306673Y-62110509D01*
X78476692Y-62095635D01*
X78696496Y-62036739D01*
X78902734Y-61940568D01*
X79089139Y-61810047D01*
X79250047Y-61649139D01*
X79380568Y-61462734D01*
X79476739Y-61256496D01*
X79535635Y-61036692D01*
X79555468Y-60810001D01*
X81944532Y-60810001D01*
X81964364Y-61036686D01*
X81964366Y-61036697D01*
X82023258Y-61256488D01*
X82023261Y-61256497D01*
X82119431Y-61462732D01*
X82119432Y-61462734D01*
X82249954Y-61649141D01*
X82410858Y-61810045D01*
X82410861Y-61810047D01*
X82597266Y-61940568D01*
X82803504Y-62036739D01*
X83023308Y-62095635D01*
X83185230Y-62109801D01*
X83249998Y-62115468D01*
X83250000Y-62115468D01*
X83250002Y-62115468D01*
X83306673Y-62110509D01*
X83476692Y-62095635D01*
X83696496Y-62036739D01*
X83902734Y-61940568D01*
X84089139Y-61810047D01*
X84250047Y-61649139D01*
X84380568Y-61462734D01*
X84476739Y-61256496D01*
X84535635Y-61036692D01*
X84555468Y-60810001D01*
X86944532Y-60810001D01*
X86964364Y-61036686D01*
X86964366Y-61036697D01*
X87023258Y-61256488D01*
X87023261Y-61256497D01*
X87119431Y-61462732D01*
X87119432Y-61462734D01*
X87249954Y-61649141D01*
X87410858Y-61810045D01*
X87410861Y-61810047D01*
X87597266Y-61940568D01*
X87803504Y-62036739D01*
X88023308Y-62095635D01*
X88185230Y-62109801D01*
X88249998Y-62115468D01*
X88250000Y-62115468D01*
X88250002Y-62115468D01*
X88306673Y-62110509D01*
X88476692Y-62095635D01*
X88696496Y-62036739D01*
X88902734Y-61940568D01*
X89089139Y-61810047D01*
X89250047Y-61649139D01*
X89380568Y-61462734D01*
X89476739Y-61256496D01*
X89535635Y-61036692D01*
X89555468Y-60810001D01*
X91944532Y-60810001D01*
X91964364Y-61036686D01*
X91964366Y-61036697D01*
X92023258Y-61256488D01*
X92023261Y-61256497D01*
X92119431Y-61462732D01*
X92119432Y-61462734D01*
X92249954Y-61649141D01*
X92410858Y-61810045D01*
X92410861Y-61810047D01*
X92597266Y-61940568D01*
X92803504Y-62036739D01*
X93023308Y-62095635D01*
X93185230Y-62109801D01*
X93249998Y-62115468D01*
X93250000Y-62115468D01*
X93250002Y-62115468D01*
X93306673Y-62110509D01*
X93476692Y-62095635D01*
X93696496Y-62036739D01*
X93902734Y-61940568D01*
X94089139Y-61810047D01*
X94250047Y-61649139D01*
X94380568Y-61462734D01*
X94476739Y-61256496D01*
X94535635Y-61036692D01*
X94551972Y-60849960D01*
X94567260Y-60810874D01*
X94556523Y-60794167D01*
X94551972Y-60770039D01*
X94546528Y-60707816D01*
X94535635Y-60583308D01*
X94476739Y-60363504D01*
X94380568Y-60157266D01*
X94250047Y-59970861D01*
X94250045Y-59970858D01*
X94089141Y-59809954D01*
X93902734Y-59679432D01*
X93902732Y-59679431D01*
X93696497Y-59583261D01*
X93696488Y-59583258D01*
X93476697Y-59524366D01*
X93476693Y-59524365D01*
X93476692Y-59524365D01*
X93476691Y-59524364D01*
X93476686Y-59524364D01*
X93250002Y-59504532D01*
X93249998Y-59504532D01*
X93023313Y-59524364D01*
X93023302Y-59524366D01*
X92803511Y-59583258D01*
X92803502Y-59583261D01*
X92597267Y-59679431D01*
X92597265Y-59679432D01*
X92410858Y-59809954D01*
X92249954Y-59970858D01*
X92119432Y-60157265D01*
X92119431Y-60157267D01*
X92023261Y-60363502D01*
X92023258Y-60363511D01*
X91964366Y-60583302D01*
X91964364Y-60583313D01*
X91944532Y-60809998D01*
X91944532Y-60810001D01*
X89555468Y-60810001D01*
X89555468Y-60810000D01*
X89535635Y-60583308D01*
X89476739Y-60363504D01*
X89380568Y-60157266D01*
X89250047Y-59970861D01*
X89250045Y-59970858D01*
X89089141Y-59809954D01*
X88902734Y-59679432D01*
X88902732Y-59679431D01*
X88696497Y-59583261D01*
X88696488Y-59583258D01*
X88476697Y-59524366D01*
X88476693Y-59524365D01*
X88476692Y-59524365D01*
X88476691Y-59524364D01*
X88476686Y-59524364D01*
X88250002Y-59504532D01*
X88249998Y-59504532D01*
X88023313Y-59524364D01*
X88023302Y-59524366D01*
X87803511Y-59583258D01*
X87803502Y-59583261D01*
X87597267Y-59679431D01*
X87597265Y-59679432D01*
X87410858Y-59809954D01*
X87249954Y-59970858D01*
X87119432Y-60157265D01*
X87119431Y-60157267D01*
X87023261Y-60363502D01*
X87023258Y-60363511D01*
X86964366Y-60583302D01*
X86964364Y-60583313D01*
X86944532Y-60809998D01*
X86944532Y-60810001D01*
X84555468Y-60810001D01*
X84555468Y-60810000D01*
X84535635Y-60583308D01*
X84476739Y-60363504D01*
X84380568Y-60157266D01*
X84250047Y-59970861D01*
X84250045Y-59970858D01*
X84089141Y-59809954D01*
X83902734Y-59679432D01*
X83902732Y-59679431D01*
X83696497Y-59583261D01*
X83696488Y-59583258D01*
X83476697Y-59524366D01*
X83476693Y-59524365D01*
X83476692Y-59524365D01*
X83476691Y-59524364D01*
X83476686Y-59524364D01*
X83250002Y-59504532D01*
X83249998Y-59504532D01*
X83023313Y-59524364D01*
X83023302Y-59524366D01*
X82803511Y-59583258D01*
X82803502Y-59583261D01*
X82597267Y-59679431D01*
X82597265Y-59679432D01*
X82410858Y-59809954D01*
X82249954Y-59970858D01*
X82119432Y-60157265D01*
X82119431Y-60157267D01*
X82023261Y-60363502D01*
X82023258Y-60363511D01*
X81964366Y-60583302D01*
X81964364Y-60583313D01*
X81944532Y-60809998D01*
X81944532Y-60810001D01*
X79555468Y-60810001D01*
X79555468Y-60810000D01*
X79535635Y-60583308D01*
X79476739Y-60363504D01*
X79380568Y-60157266D01*
X79250047Y-59970861D01*
X79250045Y-59970858D01*
X79089141Y-59809954D01*
X78902734Y-59679432D01*
X78902732Y-59679431D01*
X78696497Y-59583261D01*
X78696488Y-59583258D01*
X78476697Y-59524366D01*
X78476693Y-59524365D01*
X78476692Y-59524365D01*
X78476691Y-59524364D01*
X78476686Y-59524364D01*
X78250002Y-59504532D01*
X78249998Y-59504532D01*
X78023313Y-59524364D01*
X78023302Y-59524366D01*
X77803511Y-59583258D01*
X77803502Y-59583261D01*
X77597267Y-59679431D01*
X77597265Y-59679432D01*
X77410858Y-59809954D01*
X77249954Y-59970858D01*
X77119432Y-60157265D01*
X77119431Y-60157267D01*
X77023261Y-60363502D01*
X77023258Y-60363511D01*
X76964366Y-60583302D01*
X76964364Y-60583313D01*
X76944532Y-60809998D01*
X76944532Y-60810001D01*
X76125500Y-60810001D01*
X76125500Y-53190001D01*
X76944532Y-53190001D01*
X76964364Y-53416686D01*
X76964366Y-53416697D01*
X77023258Y-53636488D01*
X77023261Y-53636497D01*
X77119431Y-53842732D01*
X77119432Y-53842734D01*
X77249954Y-54029141D01*
X77410858Y-54190045D01*
X77410861Y-54190047D01*
X77597266Y-54320568D01*
X77803504Y-54416739D01*
X78023308Y-54475635D01*
X78185230Y-54489801D01*
X78249998Y-54495468D01*
X78250000Y-54495468D01*
X78250002Y-54495468D01*
X78306673Y-54490509D01*
X78476692Y-54475635D01*
X78696496Y-54416739D01*
X78902734Y-54320568D01*
X79089139Y-54190047D01*
X79250047Y-54029139D01*
X79380568Y-53842734D01*
X79476739Y-53636496D01*
X79535635Y-53416692D01*
X79555468Y-53190001D01*
X81944532Y-53190001D01*
X81964364Y-53416686D01*
X81964366Y-53416697D01*
X82023258Y-53636488D01*
X82023261Y-53636497D01*
X82119431Y-53842732D01*
X82119432Y-53842734D01*
X82249954Y-54029141D01*
X82410858Y-54190045D01*
X82410861Y-54190047D01*
X82597266Y-54320568D01*
X82803504Y-54416739D01*
X83023308Y-54475635D01*
X83185230Y-54489801D01*
X83249998Y-54495468D01*
X83250000Y-54495468D01*
X83250002Y-54495468D01*
X83306673Y-54490509D01*
X83476692Y-54475635D01*
X83696496Y-54416739D01*
X83902734Y-54320568D01*
X84089139Y-54190047D01*
X84250047Y-54029139D01*
X84380568Y-53842734D01*
X84476739Y-53636496D01*
X84535635Y-53416692D01*
X84555468Y-53190001D01*
X86944532Y-53190001D01*
X86964364Y-53416686D01*
X86964366Y-53416697D01*
X87023258Y-53636488D01*
X87023261Y-53636497D01*
X87119431Y-53842732D01*
X87119432Y-53842734D01*
X87249954Y-54029141D01*
X87410858Y-54190045D01*
X87410861Y-54190047D01*
X87597266Y-54320568D01*
X87803504Y-54416739D01*
X88023308Y-54475635D01*
X88185230Y-54489801D01*
X88249998Y-54495468D01*
X88250000Y-54495468D01*
X88250002Y-54495468D01*
X88306673Y-54490509D01*
X88476692Y-54475635D01*
X88696496Y-54416739D01*
X88902734Y-54320568D01*
X89089139Y-54190047D01*
X89250047Y-54029139D01*
X89380568Y-53842734D01*
X89476739Y-53636496D01*
X89535635Y-53416692D01*
X89555468Y-53190001D01*
X91944532Y-53190001D01*
X91964364Y-53416686D01*
X91964366Y-53416697D01*
X92023258Y-53636488D01*
X92023261Y-53636497D01*
X92119431Y-53842732D01*
X92119432Y-53842734D01*
X92249954Y-54029141D01*
X92410858Y-54190045D01*
X92410861Y-54190047D01*
X92597266Y-54320568D01*
X92803504Y-54416739D01*
X93023308Y-54475635D01*
X93185230Y-54489801D01*
X93249998Y-54495468D01*
X93250000Y-54495468D01*
X93250002Y-54495468D01*
X93306673Y-54490509D01*
X93476692Y-54475635D01*
X93696496Y-54416739D01*
X93902734Y-54320568D01*
X94089139Y-54190047D01*
X94250047Y-54029139D01*
X94380568Y-53842734D01*
X94476739Y-53636496D01*
X94535635Y-53416692D01*
X94551972Y-53229960D01*
X94567260Y-53190874D01*
X94556523Y-53174167D01*
X94551972Y-53150039D01*
X94535635Y-52963313D01*
X94535635Y-52963308D01*
X94476739Y-52743504D01*
X94380568Y-52537266D01*
X94250047Y-52350861D01*
X94250045Y-52350858D01*
X94089141Y-52189954D01*
X93902734Y-52059432D01*
X93902732Y-52059431D01*
X93696497Y-51963261D01*
X93696488Y-51963258D01*
X93476697Y-51904366D01*
X93476693Y-51904365D01*
X93476692Y-51904365D01*
X93476691Y-51904364D01*
X93476686Y-51904364D01*
X93250002Y-51884532D01*
X93249998Y-51884532D01*
X93023313Y-51904364D01*
X93023302Y-51904366D01*
X92803511Y-51963258D01*
X92803502Y-51963261D01*
X92597267Y-52059431D01*
X92597265Y-52059432D01*
X92410858Y-52189954D01*
X92249954Y-52350858D01*
X92119432Y-52537265D01*
X92119431Y-52537267D01*
X92023261Y-52743502D01*
X92023258Y-52743511D01*
X91964366Y-52963302D01*
X91964364Y-52963313D01*
X91944532Y-53189998D01*
X91944532Y-53190001D01*
X89555468Y-53190001D01*
X89555468Y-53190000D01*
X89535635Y-52963308D01*
X89476739Y-52743504D01*
X89380568Y-52537266D01*
X89250047Y-52350861D01*
X89250045Y-52350858D01*
X89089141Y-52189954D01*
X88902734Y-52059432D01*
X88902732Y-52059431D01*
X88696497Y-51963261D01*
X88696488Y-51963258D01*
X88476697Y-51904366D01*
X88476693Y-51904365D01*
X88476692Y-51904365D01*
X88476691Y-51904364D01*
X88476686Y-51904364D01*
X88250002Y-51884532D01*
X88249998Y-51884532D01*
X88023313Y-51904364D01*
X88023302Y-51904366D01*
X87803511Y-51963258D01*
X87803502Y-51963261D01*
X87597267Y-52059431D01*
X87597265Y-52059432D01*
X87410858Y-52189954D01*
X87249954Y-52350858D01*
X87119432Y-52537265D01*
X87119431Y-52537267D01*
X87023261Y-52743502D01*
X87023258Y-52743511D01*
X86964366Y-52963302D01*
X86964364Y-52963313D01*
X86944532Y-53189998D01*
X86944532Y-53190001D01*
X84555468Y-53190001D01*
X84555468Y-53190000D01*
X84535635Y-52963308D01*
X84476739Y-52743504D01*
X84380568Y-52537266D01*
X84250047Y-52350861D01*
X84250045Y-52350858D01*
X84089141Y-52189954D01*
X83902734Y-52059432D01*
X83902732Y-52059431D01*
X83696497Y-51963261D01*
X83696488Y-51963258D01*
X83476697Y-51904366D01*
X83476693Y-51904365D01*
X83476692Y-51904365D01*
X83476691Y-51904364D01*
X83476686Y-51904364D01*
X83250002Y-51884532D01*
X83249998Y-51884532D01*
X83023313Y-51904364D01*
X83023302Y-51904366D01*
X82803511Y-51963258D01*
X82803502Y-51963261D01*
X82597267Y-52059431D01*
X82597265Y-52059432D01*
X82410858Y-52189954D01*
X82249954Y-52350858D01*
X82119432Y-52537265D01*
X82119431Y-52537267D01*
X82023261Y-52743502D01*
X82023258Y-52743511D01*
X81964366Y-52963302D01*
X81964364Y-52963313D01*
X81944532Y-53189998D01*
X81944532Y-53190001D01*
X79555468Y-53190001D01*
X79555468Y-53190000D01*
X79535635Y-52963308D01*
X79476739Y-52743504D01*
X79380568Y-52537266D01*
X79250047Y-52350861D01*
X79250045Y-52350858D01*
X79089141Y-52189954D01*
X78902734Y-52059432D01*
X78902732Y-52059431D01*
X78696497Y-51963261D01*
X78696488Y-51963258D01*
X78476697Y-51904366D01*
X78476693Y-51904365D01*
X78476692Y-51904365D01*
X78476691Y-51904364D01*
X78476686Y-51904364D01*
X78250002Y-51884532D01*
X78249998Y-51884532D01*
X78023313Y-51904364D01*
X78023302Y-51904366D01*
X77803511Y-51963258D01*
X77803502Y-51963261D01*
X77597267Y-52059431D01*
X77597265Y-52059432D01*
X77410858Y-52189954D01*
X77249954Y-52350858D01*
X77119432Y-52537265D01*
X77119431Y-52537267D01*
X77023261Y-52743502D01*
X77023258Y-52743511D01*
X76964366Y-52963302D01*
X76964364Y-52963313D01*
X76944532Y-53189998D01*
X76944532Y-53190001D01*
X76125500Y-53190001D01*
X76125500Y-46614981D01*
X76145185Y-46547942D01*
X76197989Y-46502187D01*
X76236899Y-46491623D01*
X76237391Y-46491572D01*
X76252797Y-46489999D01*
X76419334Y-46434814D01*
X76568656Y-46342712D01*
X76692712Y-46218656D01*
X76784814Y-46069334D01*
X76784814Y-46069331D01*
X76788448Y-46063441D01*
X76840395Y-46016716D01*
X76909358Y-46005493D01*
X76973440Y-46033336D01*
X76981668Y-46040856D01*
X77120535Y-46179723D01*
X77120540Y-46179727D01*
X77292442Y-46304620D01*
X77481782Y-46401095D01*
X77683871Y-46466757D01*
X77750000Y-46477231D01*
X77750000Y-45433012D01*
X77807007Y-45465925D01*
X77934174Y-45500000D01*
X78065826Y-45500000D01*
X78192993Y-45465925D01*
X78250000Y-45433012D01*
X78250000Y-46477230D01*
X78316126Y-46466757D01*
X78316129Y-46466757D01*
X78518217Y-46401095D01*
X78707557Y-46304620D01*
X78879459Y-46179727D01*
X78879464Y-46179723D01*
X79029723Y-46029464D01*
X79029727Y-46029459D01*
X79154620Y-45857557D01*
X79251095Y-45668217D01*
X79316757Y-45466130D01*
X79316757Y-45466127D01*
X79350000Y-45256246D01*
X79350000Y-45250000D01*
X78433012Y-45250000D01*
X78465925Y-45192993D01*
X78500000Y-45065826D01*
X78500000Y-44934174D01*
X78465925Y-44807007D01*
X78433012Y-44750000D01*
X79350000Y-44750000D01*
X79350000Y-44743753D01*
X79316757Y-44533872D01*
X79316757Y-44533869D01*
X79251095Y-44331782D01*
X79154620Y-44142442D01*
X79029727Y-43970540D01*
X79029723Y-43970535D01*
X78879464Y-43820276D01*
X78879459Y-43820272D01*
X78707557Y-43695379D01*
X78518215Y-43598903D01*
X78316124Y-43533241D01*
X78250000Y-43522768D01*
X78250000Y-44566988D01*
X78192993Y-44534075D01*
X78065826Y-44500000D01*
X77934174Y-44500000D01*
X77807007Y-44534075D01*
X77750000Y-44566988D01*
X77750000Y-43522768D01*
X77749999Y-43522768D01*
X77683875Y-43533241D01*
X77481784Y-43598903D01*
X77292442Y-43695379D01*
X77120541Y-43820271D01*
X76981668Y-43959144D01*
X76920345Y-43992628D01*
X76850653Y-43987644D01*
X76794720Y-43945772D01*
X76788448Y-43936558D01*
X76765890Y-43899986D01*
X76692712Y-43781344D01*
X76568656Y-43657288D01*
X76419334Y-43565186D01*
X76252797Y-43510001D01*
X76248965Y-43509609D01*
X76236894Y-43508376D01*
X76172203Y-43481978D01*
X76132053Y-43424796D01*
X76125500Y-43385018D01*
X76125500Y-37124499D01*
X76145185Y-37057460D01*
X76197989Y-37011705D01*
X76249500Y-37000499D01*
X77675871Y-37000499D01*
X77675872Y-37000499D01*
X77735483Y-36994091D01*
X77870331Y-36943796D01*
X77985546Y-36857546D01*
X78071796Y-36742331D01*
X78122091Y-36607483D01*
X78128500Y-36547873D01*
X78128500Y-35000001D01*
X79202891Y-35000001D01*
X79223300Y-35285362D01*
X79284109Y-35564895D01*
X79384091Y-35832958D01*
X79521191Y-36084038D01*
X79521196Y-36084046D01*
X79627882Y-36226561D01*
X79627883Y-36226562D01*
X80522767Y-35331677D01*
X80534497Y-35359995D01*
X80617670Y-35484472D01*
X80723528Y-35590330D01*
X80848005Y-35673503D01*
X80876320Y-35685231D01*
X79981436Y-36580115D01*
X80123960Y-36686807D01*
X80123961Y-36686808D01*
X80375042Y-36823908D01*
X80375041Y-36823908D01*
X80643104Y-36923890D01*
X80922637Y-36984699D01*
X81207999Y-37005109D01*
X81208001Y-37005109D01*
X81493362Y-36984699D01*
X81772895Y-36923890D01*
X82040958Y-36823908D01*
X82292047Y-36686803D01*
X82434561Y-36580116D01*
X82434562Y-36580115D01*
X81539679Y-35685231D01*
X81567995Y-35673503D01*
X81692472Y-35590330D01*
X81798330Y-35484472D01*
X81881503Y-35359995D01*
X81893231Y-35331678D01*
X82788115Y-36226562D01*
X82788116Y-36226561D01*
X82894803Y-36084047D01*
X83031908Y-35832958D01*
X83131890Y-35564895D01*
X83192699Y-35285362D01*
X83213109Y-35000001D01*
X83213109Y-34999998D01*
X83192699Y-34714637D01*
X83131890Y-34435104D01*
X83031908Y-34167041D01*
X83006925Y-34121288D01*
X89149500Y-34121288D01*
X89181161Y-34361785D01*
X89243947Y-34596104D01*
X89319422Y-34778316D01*
X89336776Y-34820212D01*
X89458064Y-35030289D01*
X89458066Y-35030292D01*
X89458067Y-35030293D01*
X89605733Y-35222736D01*
X89605739Y-35222743D01*
X89777256Y-35394260D01*
X89777262Y-35394265D01*
X89969711Y-35541936D01*
X90179788Y-35663224D01*
X90403900Y-35756054D01*
X90638211Y-35818838D01*
X90818586Y-35842584D01*
X90878711Y-35850500D01*
X90878712Y-35850500D01*
X91121289Y-35850500D01*
X91169388Y-35844167D01*
X91361789Y-35818838D01*
X91596100Y-35756054D01*
X91820212Y-35663224D01*
X92030289Y-35541936D01*
X92222738Y-35394265D01*
X92394265Y-35222738D01*
X92541936Y-35030289D01*
X92663224Y-34820212D01*
X92756054Y-34596100D01*
X92818838Y-34361789D01*
X92850500Y-34121288D01*
X92850500Y-33878712D01*
X92818838Y-33638211D01*
X92756054Y-33403900D01*
X92663224Y-33179788D01*
X92541936Y-32969711D01*
X92394265Y-32777262D01*
X92394260Y-32777256D01*
X92222743Y-32605739D01*
X92222736Y-32605733D01*
X92030293Y-32458067D01*
X92030292Y-32458066D01*
X92030289Y-32458064D01*
X91820212Y-32336776D01*
X91820205Y-32336773D01*
X91596104Y-32243947D01*
X91361785Y-32181161D01*
X91121289Y-32149500D01*
X91121288Y-32149500D01*
X90878712Y-32149500D01*
X90878711Y-32149500D01*
X90638214Y-32181161D01*
X90403895Y-32243947D01*
X90179794Y-32336773D01*
X90179785Y-32336777D01*
X89969706Y-32458067D01*
X89777263Y-32605733D01*
X89777256Y-32605739D01*
X89605739Y-32777256D01*
X89605733Y-32777263D01*
X89458067Y-32969706D01*
X89336777Y-33179785D01*
X89336773Y-33179794D01*
X89243947Y-33403895D01*
X89181161Y-33638214D01*
X89149500Y-33878711D01*
X89149500Y-34121288D01*
X83006925Y-34121288D01*
X82894808Y-33915961D01*
X82894807Y-33915960D01*
X82788115Y-33773436D01*
X81893231Y-34668320D01*
X81881503Y-34640005D01*
X81798330Y-34515528D01*
X81692472Y-34409670D01*
X81567995Y-34326497D01*
X81539678Y-34314767D01*
X82434562Y-33419883D01*
X82434561Y-33419882D01*
X82292046Y-33313196D01*
X82292038Y-33313191D01*
X82040957Y-33176091D01*
X82040958Y-33176091D01*
X81772895Y-33076109D01*
X81493362Y-33015300D01*
X81208001Y-32994891D01*
X81207999Y-32994891D01*
X80922637Y-33015300D01*
X80643104Y-33076109D01*
X80375041Y-33176091D01*
X80123961Y-33313191D01*
X80123953Y-33313196D01*
X79981437Y-33419882D01*
X79981436Y-33419883D01*
X80876321Y-34314767D01*
X80848005Y-34326497D01*
X80723528Y-34409670D01*
X80617670Y-34515528D01*
X80534497Y-34640005D01*
X80522768Y-34668321D01*
X79627883Y-33773436D01*
X79627882Y-33773437D01*
X79521196Y-33915953D01*
X79521191Y-33915961D01*
X79384091Y-34167041D01*
X79284109Y-34435104D01*
X79223300Y-34714637D01*
X79202891Y-34999998D01*
X79202891Y-35000001D01*
X78128500Y-35000001D01*
X78128499Y-33452128D01*
X78122091Y-33392517D01*
X78092506Y-33313196D01*
X78071797Y-33257671D01*
X78071793Y-33257664D01*
X77985547Y-33142455D01*
X77985544Y-33142452D01*
X77870335Y-33056206D01*
X77870328Y-33056202D01*
X77735482Y-33005908D01*
X77735483Y-33005908D01*
X77675883Y-32999501D01*
X77675881Y-32999500D01*
X77675873Y-32999500D01*
X77675864Y-32999500D01*
X74580129Y-32999500D01*
X74580123Y-32999501D01*
X74520516Y-33005908D01*
X74385671Y-33056202D01*
X74385664Y-33056206D01*
X74270455Y-33142452D01*
X74270452Y-33142455D01*
X74184206Y-33257664D01*
X74184202Y-33257671D01*
X74133908Y-33392517D01*
X74127501Y-33452116D01*
X74127501Y-33452123D01*
X74127500Y-33452135D01*
X74127500Y-36547870D01*
X74127501Y-36547876D01*
X74133908Y-36607483D01*
X74184202Y-36742328D01*
X74184206Y-36742335D01*
X74270452Y-36857544D01*
X74270455Y-36857547D01*
X74385664Y-36943793D01*
X74385671Y-36943797D01*
X74430618Y-36960561D01*
X74520517Y-36994091D01*
X74580127Y-37000500D01*
X74750500Y-37000499D01*
X74817539Y-37020183D01*
X74863294Y-37072987D01*
X74874500Y-37124499D01*
X74874500Y-43385018D01*
X74854815Y-43452057D01*
X74802011Y-43497812D01*
X74763107Y-43508376D01*
X74747200Y-43510001D01*
X74580668Y-43565185D01*
X74580663Y-43565187D01*
X74431342Y-43657289D01*
X74307289Y-43781342D01*
X74215187Y-43930663D01*
X74215185Y-43930668D01*
X74210180Y-43945772D01*
X74160001Y-44097203D01*
X74160001Y-44097204D01*
X74160000Y-44097204D01*
X74149500Y-44199983D01*
X74149500Y-45800001D01*
X74149501Y-45800018D01*
X74160000Y-45902796D01*
X74160001Y-45902799D01*
X74194031Y-46005493D01*
X74215186Y-46069334D01*
X74307288Y-46218656D01*
X74431344Y-46342712D01*
X74580666Y-46434814D01*
X74747203Y-46489999D01*
X74763101Y-46491623D01*
X74827793Y-46518018D01*
X74867945Y-46575198D01*
X74874500Y-46614981D01*
X74874500Y-63657547D01*
X74854815Y-63724586D01*
X74838181Y-63745228D01*
X71923646Y-66659762D01*
X71862323Y-66693247D01*
X71803872Y-66691856D01*
X71703413Y-66664938D01*
X71703403Y-66664936D01*
X71468001Y-66644341D01*
X71467999Y-66644341D01*
X71232596Y-66664936D01*
X71232586Y-66664938D01*
X71004344Y-66726094D01*
X71004335Y-66726098D01*
X70790171Y-66825964D01*
X70790169Y-66825965D01*
X70596597Y-66961505D01*
X70429505Y-67128597D01*
X70299575Y-67314158D01*
X70244998Y-67357783D01*
X70175500Y-67364977D01*
X70113145Y-67333454D01*
X70096425Y-67314158D01*
X69966494Y-67128597D01*
X69799401Y-66961505D01*
X69606376Y-66826347D01*
X69562751Y-66771770D01*
X69553500Y-66724772D01*
X69553500Y-61045741D01*
X69553501Y-61045720D01*
X69553501Y-60916391D01*
X69532338Y-60810001D01*
X69529463Y-60795549D01*
X69482312Y-60681715D01*
X69413858Y-60579267D01*
X69413855Y-60579263D01*
X67161819Y-58327227D01*
X67128334Y-58265904D01*
X67125500Y-58239546D01*
X67125500Y-55643288D01*
X69513500Y-55643288D01*
X69545161Y-55883785D01*
X69607947Y-56118104D01*
X69682259Y-56297509D01*
X69700776Y-56342212D01*
X69822064Y-56552289D01*
X69822066Y-56552292D01*
X69822067Y-56552293D01*
X69969733Y-56744736D01*
X69969737Y-56744741D01*
X70141256Y-56916260D01*
X70141262Y-56916265D01*
X70333711Y-57063936D01*
X70543788Y-57185224D01*
X70767900Y-57278054D01*
X71002211Y-57340838D01*
X71182586Y-57364584D01*
X71242711Y-57372500D01*
X71242712Y-57372500D01*
X71485289Y-57372500D01*
X71533388Y-57366167D01*
X71725789Y-57340838D01*
X71960100Y-57278054D01*
X72184212Y-57185224D01*
X72394289Y-57063936D01*
X72586738Y-56916265D01*
X72652990Y-56850013D01*
X72758263Y-56744741D01*
X72758265Y-56744738D01*
X72905936Y-56552289D01*
X73027224Y-56342212D01*
X73120054Y-56118100D01*
X73182838Y-55883789D01*
X73214500Y-55643288D01*
X73214500Y-55400712D01*
X73182838Y-55160211D01*
X73120054Y-54925900D01*
X73027224Y-54701788D01*
X72905936Y-54491711D01*
X72758265Y-54299262D01*
X72758260Y-54299256D01*
X72586743Y-54127739D01*
X72586736Y-54127733D01*
X72394293Y-53980067D01*
X72394292Y-53980066D01*
X72394289Y-53980064D01*
X72184212Y-53858776D01*
X72184205Y-53858773D01*
X71960104Y-53765947D01*
X71725785Y-53703161D01*
X71485289Y-53671500D01*
X71485288Y-53671500D01*
X71242712Y-53671500D01*
X71242711Y-53671500D01*
X71002214Y-53703161D01*
X70767895Y-53765947D01*
X70543794Y-53858773D01*
X70543785Y-53858777D01*
X70333706Y-53980067D01*
X70141263Y-54127733D01*
X70141256Y-54127739D01*
X69969739Y-54299256D01*
X69969733Y-54299263D01*
X69822067Y-54491706D01*
X69700777Y-54701785D01*
X69700773Y-54701794D01*
X69607947Y-54925895D01*
X69545161Y-55160214D01*
X69513500Y-55400711D01*
X69513500Y-55643288D01*
X67125500Y-55643288D01*
X67125500Y-46614981D01*
X67145185Y-46547942D01*
X67197989Y-46502187D01*
X67236899Y-46491623D01*
X67237391Y-46491572D01*
X67252797Y-46489999D01*
X67419334Y-46434814D01*
X67568656Y-46342712D01*
X67692712Y-46218656D01*
X67784814Y-46069334D01*
X67784814Y-46069331D01*
X67788448Y-46063441D01*
X67840395Y-46016716D01*
X67909358Y-46005493D01*
X67973440Y-46033336D01*
X67981668Y-46040856D01*
X68120535Y-46179723D01*
X68120540Y-46179727D01*
X68292442Y-46304620D01*
X68481782Y-46401095D01*
X68683871Y-46466757D01*
X68750000Y-46477231D01*
X68750000Y-45433012D01*
X68807007Y-45465925D01*
X68934174Y-45500000D01*
X69065826Y-45500000D01*
X69192993Y-45465925D01*
X69250000Y-45433012D01*
X69250000Y-46477230D01*
X69316126Y-46466757D01*
X69316129Y-46466757D01*
X69518217Y-46401095D01*
X69707557Y-46304620D01*
X69879459Y-46179727D01*
X69879464Y-46179723D01*
X70029723Y-46029464D01*
X70029727Y-46029459D01*
X70154620Y-45857557D01*
X70251095Y-45668217D01*
X70316757Y-45466130D01*
X70316757Y-45466127D01*
X70350000Y-45256246D01*
X70350000Y-45250000D01*
X69433012Y-45250000D01*
X69465925Y-45192993D01*
X69500000Y-45065826D01*
X69500000Y-44934174D01*
X69465925Y-44807007D01*
X69433012Y-44750000D01*
X70350000Y-44750000D01*
X70350000Y-44743753D01*
X70316757Y-44533872D01*
X70316757Y-44533869D01*
X70251095Y-44331782D01*
X70154620Y-44142442D01*
X70029727Y-43970540D01*
X70029723Y-43970535D01*
X69879464Y-43820276D01*
X69879459Y-43820272D01*
X69707557Y-43695379D01*
X69518215Y-43598903D01*
X69316124Y-43533241D01*
X69250000Y-43522768D01*
X69250000Y-44566988D01*
X69192993Y-44534075D01*
X69065826Y-44500000D01*
X68934174Y-44500000D01*
X68807007Y-44534075D01*
X68750000Y-44566988D01*
X68750000Y-43522768D01*
X68749999Y-43522768D01*
X68683875Y-43533241D01*
X68481784Y-43598903D01*
X68292442Y-43695379D01*
X68120541Y-43820271D01*
X67981668Y-43959144D01*
X67920345Y-43992628D01*
X67850653Y-43987644D01*
X67794720Y-43945772D01*
X67788448Y-43936558D01*
X67765890Y-43899986D01*
X67692712Y-43781344D01*
X67568656Y-43657288D01*
X67419334Y-43565186D01*
X67252797Y-43510001D01*
X67248965Y-43509609D01*
X67236894Y-43508376D01*
X67172203Y-43481978D01*
X67132053Y-43424796D01*
X67125500Y-43385018D01*
X67125500Y-37058547D01*
X67145185Y-36991508D01*
X67194801Y-36948514D01*
X67194546Y-36948047D01*
X67196697Y-36946872D01*
X67197989Y-36945753D01*
X67201128Y-36944452D01*
X67202326Y-36943797D01*
X67202331Y-36943796D01*
X67317546Y-36857546D01*
X67403796Y-36742331D01*
X67454091Y-36607483D01*
X67460500Y-36547873D01*
X67460500Y-35000001D01*
X68534891Y-35000001D01*
X68555300Y-35285362D01*
X68616109Y-35564895D01*
X68716091Y-35832958D01*
X68853191Y-36084038D01*
X68853196Y-36084046D01*
X68959882Y-36226561D01*
X68959883Y-36226562D01*
X69854767Y-35331677D01*
X69866497Y-35359995D01*
X69949670Y-35484472D01*
X70055528Y-35590330D01*
X70180005Y-35673503D01*
X70208320Y-35685231D01*
X69313436Y-36580115D01*
X69455960Y-36686807D01*
X69455961Y-36686808D01*
X69707042Y-36823908D01*
X69707041Y-36823908D01*
X69975104Y-36923890D01*
X70254637Y-36984699D01*
X70539999Y-37005109D01*
X70540001Y-37005109D01*
X70825362Y-36984699D01*
X71104895Y-36923890D01*
X71372958Y-36823908D01*
X71624047Y-36686803D01*
X71766561Y-36580116D01*
X71766562Y-36580115D01*
X70871679Y-35685231D01*
X70899995Y-35673503D01*
X71024472Y-35590330D01*
X71130330Y-35484472D01*
X71213503Y-35359995D01*
X71225231Y-35331678D01*
X72120115Y-36226562D01*
X72120116Y-36226561D01*
X72226803Y-36084047D01*
X72363908Y-35832958D01*
X72463890Y-35564895D01*
X72524699Y-35285362D01*
X72545109Y-35000001D01*
X72545109Y-34999998D01*
X72524699Y-34714637D01*
X72463890Y-34435104D01*
X72363908Y-34167041D01*
X72226808Y-33915961D01*
X72226807Y-33915960D01*
X72120115Y-33773436D01*
X71225231Y-34668320D01*
X71213503Y-34640005D01*
X71130330Y-34515528D01*
X71024472Y-34409670D01*
X70899995Y-34326497D01*
X70871678Y-34314767D01*
X71766562Y-33419883D01*
X71766561Y-33419882D01*
X71624046Y-33313196D01*
X71624038Y-33313191D01*
X71372957Y-33176091D01*
X71372958Y-33176091D01*
X71104895Y-33076109D01*
X70825362Y-33015300D01*
X70540001Y-32994891D01*
X70539999Y-32994891D01*
X70254637Y-33015300D01*
X69975104Y-33076109D01*
X69707041Y-33176091D01*
X69455961Y-33313191D01*
X69455953Y-33313196D01*
X69313437Y-33419882D01*
X69313436Y-33419883D01*
X70208321Y-34314767D01*
X70180005Y-34326497D01*
X70055528Y-34409670D01*
X69949670Y-34515528D01*
X69866497Y-34640005D01*
X69854768Y-34668321D01*
X68959883Y-33773436D01*
X68959882Y-33773437D01*
X68853196Y-33915953D01*
X68853191Y-33915961D01*
X68716091Y-34167041D01*
X68616109Y-34435104D01*
X68555300Y-34714637D01*
X68534891Y-34999998D01*
X68534891Y-35000001D01*
X67460500Y-35000001D01*
X67460499Y-33452128D01*
X67454091Y-33392517D01*
X67424506Y-33313196D01*
X67403797Y-33257671D01*
X67403793Y-33257664D01*
X67317547Y-33142455D01*
X67317544Y-33142452D01*
X67202335Y-33056206D01*
X67202328Y-33056202D01*
X67067482Y-33005908D01*
X67067483Y-33005908D01*
X67007883Y-32999501D01*
X67007881Y-32999500D01*
X67007873Y-32999500D01*
X67007864Y-32999500D01*
X63912129Y-32999500D01*
X63912123Y-32999501D01*
X63852516Y-33005908D01*
X63717671Y-33056202D01*
X63717664Y-33056206D01*
X63602455Y-33142452D01*
X63602452Y-33142455D01*
X63516206Y-33257664D01*
X63516202Y-33257671D01*
X63465908Y-33392517D01*
X63459501Y-33452116D01*
X63459501Y-33452123D01*
X63459500Y-33452135D01*
X63459500Y-36547870D01*
X63459501Y-36547876D01*
X63465908Y-36607483D01*
X63516202Y-36742328D01*
X63516206Y-36742335D01*
X63602452Y-36857544D01*
X63602455Y-36857547D01*
X63717664Y-36943793D01*
X63717671Y-36943797D01*
X63852517Y-36994091D01*
X63852516Y-36994091D01*
X63859444Y-36994835D01*
X63912127Y-37000500D01*
X65750500Y-37000499D01*
X65817539Y-37020184D01*
X65863294Y-37072987D01*
X65874500Y-37124499D01*
X65874500Y-43385018D01*
X65854815Y-43452057D01*
X65802011Y-43497812D01*
X65763107Y-43508376D01*
X65747200Y-43510001D01*
X65580668Y-43565185D01*
X65580663Y-43565187D01*
X65431342Y-43657289D01*
X65307289Y-43781342D01*
X65215187Y-43930663D01*
X65215185Y-43930668D01*
X65210180Y-43945772D01*
X65160001Y-44097203D01*
X65160001Y-44097204D01*
X65160000Y-44097204D01*
X65149500Y-44199983D01*
X65149500Y-45800001D01*
X65149501Y-45800018D01*
X65160000Y-45902796D01*
X65160001Y-45902799D01*
X65194031Y-46005493D01*
X65215186Y-46069334D01*
X65307288Y-46218656D01*
X65431344Y-46342712D01*
X65580666Y-46434814D01*
X65747203Y-46489999D01*
X65763101Y-46491623D01*
X65827793Y-46518018D01*
X65867945Y-46575198D01*
X65874500Y-46614981D01*
X65874500Y-58611611D01*
X65898535Y-58732444D01*
X65898540Y-58732461D01*
X65945685Y-58846280D01*
X65945690Y-58846289D01*
X65979914Y-58897507D01*
X65979915Y-58897509D01*
X66014140Y-58948731D01*
X66014141Y-58948732D01*
X66014142Y-58948733D01*
X66101267Y-59035858D01*
X66101268Y-59035858D01*
X66108335Y-59042925D01*
X66108334Y-59042925D01*
X66108338Y-59042928D01*
X68266181Y-61200771D01*
X68299666Y-61262094D01*
X68302500Y-61288452D01*
X68302500Y-66724773D01*
X68282815Y-66791812D01*
X68249623Y-66826348D01*
X68056597Y-66961505D01*
X67889505Y-67128597D01*
X67759575Y-67314158D01*
X67704998Y-67357783D01*
X67635500Y-67364977D01*
X67573145Y-67333454D01*
X67556425Y-67314158D01*
X67426494Y-67128597D01*
X67259401Y-66961505D01*
X67066376Y-66826347D01*
X67022751Y-66771770D01*
X67013500Y-66724772D01*
X67013500Y-64776396D01*
X67013500Y-64776394D01*
X66989463Y-64655548D01*
X66975652Y-64622207D01*
X66942312Y-64541714D01*
X66883607Y-64453858D01*
X66873858Y-64439267D01*
X66786733Y-64352142D01*
X66786732Y-64352141D01*
X66783621Y-64349030D01*
X66783606Y-64349016D01*
X58161819Y-55727229D01*
X58128334Y-55665906D01*
X58125500Y-55639548D01*
X58125500Y-46614981D01*
X58145185Y-46547942D01*
X58197989Y-46502187D01*
X58236899Y-46491623D01*
X58237391Y-46491572D01*
X58252797Y-46489999D01*
X58419334Y-46434814D01*
X58568656Y-46342712D01*
X58692712Y-46218656D01*
X58784814Y-46069334D01*
X58784814Y-46069331D01*
X58788448Y-46063441D01*
X58840395Y-46016716D01*
X58909358Y-46005493D01*
X58973440Y-46033336D01*
X58981668Y-46040856D01*
X59120535Y-46179723D01*
X59120540Y-46179727D01*
X59292442Y-46304620D01*
X59481782Y-46401095D01*
X59683871Y-46466757D01*
X59750000Y-46477231D01*
X59750000Y-45433012D01*
X59807007Y-45465925D01*
X59934174Y-45500000D01*
X60065826Y-45500000D01*
X60192993Y-45465925D01*
X60250000Y-45433012D01*
X60250000Y-46477231D01*
X60316126Y-46466757D01*
X60316129Y-46466757D01*
X60518217Y-46401095D01*
X60707557Y-46304620D01*
X60879459Y-46179727D01*
X60879464Y-46179723D01*
X61029723Y-46029464D01*
X61029727Y-46029459D01*
X61154620Y-45857557D01*
X61251095Y-45668217D01*
X61316757Y-45466130D01*
X61316757Y-45466127D01*
X61350000Y-45256246D01*
X61350000Y-45250000D01*
X60433012Y-45250000D01*
X60465925Y-45192993D01*
X60500000Y-45065826D01*
X60500000Y-44934174D01*
X60465925Y-44807007D01*
X60433012Y-44750000D01*
X61350000Y-44750000D01*
X61350000Y-44743753D01*
X61316757Y-44533872D01*
X61316757Y-44533869D01*
X61251095Y-44331782D01*
X61154620Y-44142442D01*
X61029727Y-43970540D01*
X61029723Y-43970535D01*
X60879464Y-43820276D01*
X60879459Y-43820272D01*
X60707557Y-43695379D01*
X60518215Y-43598903D01*
X60316124Y-43533241D01*
X60250000Y-43522768D01*
X60250000Y-44566988D01*
X60192993Y-44534075D01*
X60065826Y-44500000D01*
X59934174Y-44500000D01*
X59807007Y-44534075D01*
X59750000Y-44566988D01*
X59750000Y-43522768D01*
X59749999Y-43522768D01*
X59683875Y-43533241D01*
X59481784Y-43598903D01*
X59292442Y-43695379D01*
X59120541Y-43820271D01*
X58981668Y-43959144D01*
X58920345Y-43992628D01*
X58850653Y-43987644D01*
X58794720Y-43945772D01*
X58788448Y-43936558D01*
X58765890Y-43899986D01*
X58692712Y-43781344D01*
X58568656Y-43657288D01*
X58419334Y-43565186D01*
X58252797Y-43510001D01*
X58248965Y-43509609D01*
X58236894Y-43508376D01*
X58172203Y-43481978D01*
X58132053Y-43424796D01*
X58125500Y-43385018D01*
X58125500Y-37646393D01*
X58125499Y-37646389D01*
X58101464Y-37525555D01*
X58101463Y-37525548D01*
X58054311Y-37411714D01*
X58054310Y-37411713D01*
X58054307Y-37411707D01*
X57985859Y-37309268D01*
X57985858Y-37309267D01*
X57898733Y-37222142D01*
X57898732Y-37222141D01*
X57363394Y-36686803D01*
X56828818Y-36152227D01*
X56795333Y-36090904D01*
X56792499Y-36064546D01*
X56792499Y-35000001D01*
X57866891Y-35000001D01*
X57887300Y-35285362D01*
X57948109Y-35564895D01*
X58048091Y-35832958D01*
X58185191Y-36084038D01*
X58185196Y-36084046D01*
X58291882Y-36226561D01*
X58291883Y-36226562D01*
X59186767Y-35331677D01*
X59198497Y-35359995D01*
X59281670Y-35484472D01*
X59387528Y-35590330D01*
X59512005Y-35673503D01*
X59540320Y-35685231D01*
X58645436Y-36580115D01*
X58787960Y-36686807D01*
X58787961Y-36686808D01*
X59039042Y-36823908D01*
X59039041Y-36823908D01*
X59307104Y-36923890D01*
X59586637Y-36984699D01*
X59871999Y-37005109D01*
X59872001Y-37005109D01*
X60157362Y-36984699D01*
X60436895Y-36923890D01*
X60704958Y-36823908D01*
X60956047Y-36686803D01*
X61098561Y-36580116D01*
X61098562Y-36580115D01*
X60203679Y-35685231D01*
X60231995Y-35673503D01*
X60356472Y-35590330D01*
X60462330Y-35484472D01*
X60545503Y-35359995D01*
X60557231Y-35331678D01*
X61452115Y-36226562D01*
X61452116Y-36226561D01*
X61558803Y-36084047D01*
X61695908Y-35832958D01*
X61795890Y-35564895D01*
X61856699Y-35285362D01*
X61877109Y-35000001D01*
X61877109Y-34999998D01*
X61856699Y-34714637D01*
X61795890Y-34435104D01*
X61695908Y-34167041D01*
X61558808Y-33915961D01*
X61558807Y-33915960D01*
X61452115Y-33773436D01*
X60557231Y-34668320D01*
X60545503Y-34640005D01*
X60462330Y-34515528D01*
X60356472Y-34409670D01*
X60231995Y-34326497D01*
X60203678Y-34314767D01*
X61098562Y-33419883D01*
X61098561Y-33419882D01*
X60956046Y-33313196D01*
X60956038Y-33313191D01*
X60704957Y-33176091D01*
X60704958Y-33176091D01*
X60436895Y-33076109D01*
X60157362Y-33015300D01*
X59872001Y-32994891D01*
X59871999Y-32994891D01*
X59586637Y-33015300D01*
X59307104Y-33076109D01*
X59039041Y-33176091D01*
X58787961Y-33313191D01*
X58787953Y-33313196D01*
X58645437Y-33419882D01*
X58645436Y-33419883D01*
X59540321Y-34314767D01*
X59512005Y-34326497D01*
X59387528Y-34409670D01*
X59281670Y-34515528D01*
X59198497Y-34640005D01*
X59186768Y-34668321D01*
X58291883Y-33773436D01*
X58291882Y-33773437D01*
X58185196Y-33915953D01*
X58185191Y-33915961D01*
X58048091Y-34167041D01*
X57948109Y-34435104D01*
X57887300Y-34714637D01*
X57866891Y-34999998D01*
X57866891Y-35000001D01*
X56792499Y-35000001D01*
X56792499Y-33452129D01*
X56792498Y-33452123D01*
X56792497Y-33452116D01*
X56786091Y-33392517D01*
X56756506Y-33313196D01*
X56735797Y-33257671D01*
X56735793Y-33257664D01*
X56649547Y-33142455D01*
X56649544Y-33142452D01*
X56534335Y-33056206D01*
X56534328Y-33056202D01*
X56399482Y-33005908D01*
X56399483Y-33005908D01*
X56339883Y-32999501D01*
X56339881Y-32999500D01*
X56339873Y-32999500D01*
X56339864Y-32999500D01*
X53244129Y-32999500D01*
X53244123Y-32999501D01*
X53184516Y-33005908D01*
X53049671Y-33056202D01*
X53049664Y-33056206D01*
X52934455Y-33142452D01*
X52934452Y-33142455D01*
X52848206Y-33257664D01*
X52848202Y-33257671D01*
X52797908Y-33392517D01*
X52791501Y-33452116D01*
X52791501Y-33452123D01*
X52791500Y-33452135D01*
X52791500Y-36547870D01*
X52791501Y-36547876D01*
X52797908Y-36607483D01*
X52848202Y-36742328D01*
X52848206Y-36742335D01*
X52934452Y-36857544D01*
X52934455Y-36857547D01*
X53049664Y-36943793D01*
X53049671Y-36943797D01*
X53184517Y-36994091D01*
X53184516Y-36994091D01*
X53191444Y-36994835D01*
X53244127Y-37000500D01*
X55856546Y-37000499D01*
X55923585Y-37020184D01*
X55944227Y-37036818D01*
X56838181Y-37930771D01*
X56871666Y-37992094D01*
X56874500Y-38018452D01*
X56874500Y-43385018D01*
X56854815Y-43452057D01*
X56802011Y-43497812D01*
X56763107Y-43508376D01*
X56747200Y-43510001D01*
X56580668Y-43565185D01*
X56580663Y-43565187D01*
X56431342Y-43657289D01*
X56307289Y-43781342D01*
X56215187Y-43930663D01*
X56215185Y-43930668D01*
X56210180Y-43945772D01*
X56160001Y-44097203D01*
X56160001Y-44097204D01*
X56160000Y-44097204D01*
X56149500Y-44199983D01*
X56149500Y-45800001D01*
X56149501Y-45800018D01*
X56160000Y-45902796D01*
X56160001Y-45902799D01*
X56194031Y-46005493D01*
X56215186Y-46069334D01*
X56307288Y-46218656D01*
X56431344Y-46342712D01*
X56580666Y-46434814D01*
X56747203Y-46489999D01*
X56763101Y-46491623D01*
X56827793Y-46518018D01*
X56867945Y-46575198D01*
X56874500Y-46614981D01*
X56874500Y-56011611D01*
X56898535Y-56132444D01*
X56898540Y-56132461D01*
X56945685Y-56246280D01*
X56945690Y-56246289D01*
X56979914Y-56297507D01*
X56979915Y-56297509D01*
X57014141Y-56348733D01*
X57105586Y-56440178D01*
X57105608Y-56440198D01*
X60528229Y-59862819D01*
X60561714Y-59924142D01*
X60556730Y-59993834D01*
X60514858Y-60049767D01*
X60449394Y-60074184D01*
X60440548Y-60074500D01*
X58510452Y-60074500D01*
X58443413Y-60054815D01*
X58422771Y-60038181D01*
X54561819Y-56177229D01*
X54528334Y-56115906D01*
X54525500Y-56089548D01*
X54525500Y-54938393D01*
X54525499Y-54938389D01*
X54501464Y-54817555D01*
X54501463Y-54817548D01*
X54454311Y-54703714D01*
X54454310Y-54703713D01*
X54454307Y-54703707D01*
X54385858Y-54601267D01*
X54385855Y-54601263D01*
X54295637Y-54511045D01*
X54295606Y-54511016D01*
X49161819Y-49377229D01*
X49128334Y-49315906D01*
X49125500Y-49289548D01*
X49125500Y-46614981D01*
X49145185Y-46547942D01*
X49197989Y-46502187D01*
X49236899Y-46491623D01*
X49237391Y-46491572D01*
X49252797Y-46489999D01*
X49419334Y-46434814D01*
X49568656Y-46342712D01*
X49692712Y-46218656D01*
X49784814Y-46069334D01*
X49784814Y-46069331D01*
X49788448Y-46063441D01*
X49840395Y-46016716D01*
X49909358Y-46005493D01*
X49973440Y-46033336D01*
X49981668Y-46040856D01*
X50120535Y-46179723D01*
X50120540Y-46179727D01*
X50292442Y-46304620D01*
X50481782Y-46401095D01*
X50683871Y-46466757D01*
X50750000Y-46477231D01*
X50750000Y-45433012D01*
X50807007Y-45465925D01*
X50934174Y-45500000D01*
X51065826Y-45500000D01*
X51192993Y-45465925D01*
X51250000Y-45433012D01*
X51250000Y-46477230D01*
X51316126Y-46466757D01*
X51316129Y-46466757D01*
X51518217Y-46401095D01*
X51707557Y-46304620D01*
X51879459Y-46179727D01*
X51879464Y-46179723D01*
X52029723Y-46029464D01*
X52029727Y-46029459D01*
X52154620Y-45857557D01*
X52251095Y-45668217D01*
X52316757Y-45466130D01*
X52316757Y-45466127D01*
X52350000Y-45256246D01*
X52350000Y-45250000D01*
X51433012Y-45250000D01*
X51465925Y-45192993D01*
X51500000Y-45065826D01*
X51500000Y-44934174D01*
X51465925Y-44807007D01*
X51433012Y-44750000D01*
X52350000Y-44750000D01*
X52350000Y-44743753D01*
X52316757Y-44533872D01*
X52316757Y-44533869D01*
X52251095Y-44331782D01*
X52154620Y-44142442D01*
X52029727Y-43970540D01*
X52029723Y-43970535D01*
X51879464Y-43820276D01*
X51879459Y-43820272D01*
X51707557Y-43695379D01*
X51518215Y-43598903D01*
X51316124Y-43533241D01*
X51250000Y-43522768D01*
X51250000Y-44566988D01*
X51192993Y-44534075D01*
X51065826Y-44500000D01*
X50934174Y-44500000D01*
X50807007Y-44534075D01*
X50750000Y-44566988D01*
X50750000Y-43522768D01*
X50749999Y-43522768D01*
X50683875Y-43533241D01*
X50481784Y-43598903D01*
X50292442Y-43695379D01*
X50120541Y-43820271D01*
X49981668Y-43959144D01*
X49920345Y-43992628D01*
X49850653Y-43987644D01*
X49794720Y-43945772D01*
X49788448Y-43936558D01*
X49765890Y-43899986D01*
X49692712Y-43781344D01*
X49568656Y-43657288D01*
X49419334Y-43565186D01*
X49252797Y-43510001D01*
X49248965Y-43509609D01*
X49236894Y-43508376D01*
X49172203Y-43481978D01*
X49132053Y-43424796D01*
X49125500Y-43385018D01*
X49125500Y-39443741D01*
X49125501Y-39443720D01*
X49125501Y-39314391D01*
X49101464Y-39193555D01*
X49101463Y-39193549D01*
X49054312Y-39079715D01*
X48985858Y-38977267D01*
X48985855Y-38977263D01*
X46160818Y-36152227D01*
X46127333Y-36090904D01*
X46124499Y-36064546D01*
X46124499Y-35000001D01*
X47198891Y-35000001D01*
X47219300Y-35285362D01*
X47280109Y-35564895D01*
X47380091Y-35832958D01*
X47517191Y-36084038D01*
X47517196Y-36084046D01*
X47623882Y-36226561D01*
X47623883Y-36226562D01*
X48518767Y-35331677D01*
X48530497Y-35359995D01*
X48613670Y-35484472D01*
X48719528Y-35590330D01*
X48844005Y-35673503D01*
X48872320Y-35685231D01*
X47977436Y-36580115D01*
X48119960Y-36686807D01*
X48119961Y-36686808D01*
X48371042Y-36823908D01*
X48371041Y-36823908D01*
X48639104Y-36923890D01*
X48918637Y-36984699D01*
X49203999Y-37005109D01*
X49204001Y-37005109D01*
X49489362Y-36984699D01*
X49768895Y-36923890D01*
X50036958Y-36823908D01*
X50288047Y-36686803D01*
X50430561Y-36580116D01*
X50430562Y-36580115D01*
X49535679Y-35685231D01*
X49563995Y-35673503D01*
X49688472Y-35590330D01*
X49794330Y-35484472D01*
X49877503Y-35359995D01*
X49889231Y-35331678D01*
X50784115Y-36226562D01*
X50784116Y-36226561D01*
X50890803Y-36084047D01*
X51027908Y-35832958D01*
X51127890Y-35564895D01*
X51188699Y-35285362D01*
X51209109Y-35000001D01*
X51209109Y-34999998D01*
X51188699Y-34714637D01*
X51127890Y-34435104D01*
X51027908Y-34167041D01*
X50890808Y-33915961D01*
X50890807Y-33915960D01*
X50784115Y-33773436D01*
X49889231Y-34668320D01*
X49877503Y-34640005D01*
X49794330Y-34515528D01*
X49688472Y-34409670D01*
X49563995Y-34326497D01*
X49535678Y-34314767D01*
X50430562Y-33419883D01*
X50430561Y-33419882D01*
X50288046Y-33313196D01*
X50288038Y-33313191D01*
X50036957Y-33176091D01*
X50036958Y-33176091D01*
X49768895Y-33076109D01*
X49489362Y-33015300D01*
X49204001Y-32994891D01*
X49203999Y-32994891D01*
X48918637Y-33015300D01*
X48639104Y-33076109D01*
X48371041Y-33176091D01*
X48119961Y-33313191D01*
X48119953Y-33313196D01*
X47977437Y-33419882D01*
X47977436Y-33419883D01*
X48872321Y-34314767D01*
X48844005Y-34326497D01*
X48719528Y-34409670D01*
X48613670Y-34515528D01*
X48530497Y-34640005D01*
X48518768Y-34668321D01*
X47623883Y-33773436D01*
X47623882Y-33773437D01*
X47517196Y-33915953D01*
X47517191Y-33915961D01*
X47380091Y-34167041D01*
X47280109Y-34435104D01*
X47219300Y-34714637D01*
X47198891Y-34999998D01*
X47198891Y-35000001D01*
X46124499Y-35000001D01*
X46124499Y-33452129D01*
X46124498Y-33452123D01*
X46124497Y-33452116D01*
X46118091Y-33392517D01*
X46088506Y-33313196D01*
X46067797Y-33257671D01*
X46067793Y-33257664D01*
X45981547Y-33142455D01*
X45981544Y-33142452D01*
X45866335Y-33056206D01*
X45866328Y-33056202D01*
X45731482Y-33005908D01*
X45731483Y-33005908D01*
X45671883Y-32999501D01*
X45671881Y-32999500D01*
X45671873Y-32999500D01*
X45671864Y-32999500D01*
X42576129Y-32999500D01*
X42576123Y-32999501D01*
X42516516Y-33005908D01*
X42381671Y-33056202D01*
X42381664Y-33056206D01*
X42266455Y-33142452D01*
X42266452Y-33142455D01*
X42180206Y-33257664D01*
X42180202Y-33257671D01*
X42129908Y-33392517D01*
X42123501Y-33452116D01*
X42123501Y-33452123D01*
X42123500Y-33452135D01*
X42123500Y-36547870D01*
X42123501Y-36547876D01*
X42129908Y-36607483D01*
X42180202Y-36742328D01*
X42180206Y-36742335D01*
X42266452Y-36857544D01*
X42266455Y-36857547D01*
X42381664Y-36943793D01*
X42381671Y-36943797D01*
X42516517Y-36994091D01*
X42516516Y-36994091D01*
X42523444Y-36994835D01*
X42576127Y-37000500D01*
X45188546Y-37000499D01*
X45255585Y-37020184D01*
X45276227Y-37036818D01*
X47838181Y-39598771D01*
X47871666Y-39660094D01*
X47874500Y-39686452D01*
X47874500Y-43385018D01*
X47854815Y-43452057D01*
X47802011Y-43497812D01*
X47763107Y-43508376D01*
X47747200Y-43510001D01*
X47580668Y-43565185D01*
X47580663Y-43565187D01*
X47431342Y-43657289D01*
X47307289Y-43781342D01*
X47215187Y-43930663D01*
X47215185Y-43930668D01*
X47210180Y-43945772D01*
X47160001Y-44097203D01*
X47160001Y-44097204D01*
X47160000Y-44097204D01*
X47149500Y-44199983D01*
X47149500Y-45800001D01*
X47149501Y-45800018D01*
X47160000Y-45902796D01*
X47160001Y-45902799D01*
X47194031Y-46005493D01*
X47215186Y-46069334D01*
X47307288Y-46218656D01*
X47431344Y-46342712D01*
X47580666Y-46434814D01*
X47747203Y-46489999D01*
X47763101Y-46491623D01*
X47827793Y-46518018D01*
X47867945Y-46575198D01*
X47874500Y-46614981D01*
X47874500Y-49661611D01*
X47898535Y-49782444D01*
X47898540Y-49782461D01*
X47945685Y-49896280D01*
X47945690Y-49896289D01*
X47979914Y-49947507D01*
X47979915Y-49947509D01*
X48014141Y-49998733D01*
X48105586Y-50090178D01*
X48105608Y-50090198D01*
X53238181Y-55222771D01*
X53271666Y-55284094D01*
X53274500Y-55310452D01*
X53274500Y-56461611D01*
X53298535Y-56582444D01*
X53298540Y-56582461D01*
X53345685Y-56696281D01*
X53345687Y-56696285D01*
X53378064Y-56744738D01*
X53378065Y-56744741D01*
X53414138Y-56798728D01*
X53414144Y-56798736D01*
X53505586Y-56890178D01*
X53505608Y-56890198D01*
X57711016Y-61095606D01*
X57711045Y-61095637D01*
X57801263Y-61185855D01*
X57801267Y-61185858D01*
X57903707Y-61254307D01*
X57903716Y-61254312D01*
X57908989Y-61256496D01*
X58017548Y-61301463D01*
X58077971Y-61313481D01*
X58138393Y-61325500D01*
X58138394Y-61325500D01*
X60439548Y-61325500D01*
X60506587Y-61345185D01*
X60527229Y-61361819D01*
X63186181Y-64020771D01*
X63219666Y-64082094D01*
X63222500Y-64108452D01*
X63222500Y-66724773D01*
X63202815Y-66791812D01*
X63169623Y-66826348D01*
X62976597Y-66961505D01*
X62809505Y-67128597D01*
X62679575Y-67314158D01*
X62624998Y-67357783D01*
X62555500Y-67364977D01*
X62493145Y-67333454D01*
X62476425Y-67314158D01*
X62346494Y-67128597D01*
X62179401Y-66961505D01*
X62179395Y-66961501D01*
X61985834Y-66825967D01*
X61985830Y-66825965D01*
X61933500Y-66801563D01*
X61771663Y-66726097D01*
X61771659Y-66726096D01*
X61771655Y-66726094D01*
X61543413Y-66664938D01*
X61543403Y-66664936D01*
X61308001Y-66644341D01*
X61307999Y-66644341D01*
X61072596Y-66664936D01*
X61072586Y-66664938D01*
X60844344Y-66726094D01*
X60844335Y-66726098D01*
X60630171Y-66825964D01*
X60630169Y-66825965D01*
X60436597Y-66961505D01*
X60269505Y-67128597D01*
X60139575Y-67314158D01*
X60084998Y-67357783D01*
X60015500Y-67364977D01*
X59953145Y-67333454D01*
X59936425Y-67314158D01*
X59806494Y-67128597D01*
X59639401Y-66961505D01*
X59639395Y-66961501D01*
X59445834Y-66825967D01*
X59445830Y-66825965D01*
X59393500Y-66801563D01*
X59231663Y-66726097D01*
X59231659Y-66726096D01*
X59231655Y-66726094D01*
X59003413Y-66664938D01*
X59003403Y-66664936D01*
X58768001Y-66644341D01*
X58767999Y-66644341D01*
X58532596Y-66664936D01*
X58532586Y-66664938D01*
X58304344Y-66726094D01*
X58304335Y-66726098D01*
X58090171Y-66825964D01*
X58090169Y-66825965D01*
X57896597Y-66961505D01*
X57729505Y-67128597D01*
X57599575Y-67314158D01*
X57544998Y-67357783D01*
X57475500Y-67364977D01*
X57413145Y-67333454D01*
X57396425Y-67314158D01*
X57266494Y-67128597D01*
X57099401Y-66961505D01*
X57099395Y-66961501D01*
X56905834Y-66825967D01*
X56905830Y-66825965D01*
X56853500Y-66801563D01*
X56691663Y-66726097D01*
X56691659Y-66726096D01*
X56691655Y-66726094D01*
X56463413Y-66664938D01*
X56463403Y-66664936D01*
X56228001Y-66644341D01*
X56227999Y-66644341D01*
X55992596Y-66664936D01*
X55992586Y-66664938D01*
X55892126Y-66691856D01*
X55822276Y-66690193D01*
X55772352Y-66659762D01*
X54418198Y-65305608D01*
X54418178Y-65305586D01*
X54326733Y-65214141D01*
X54275509Y-65179915D01*
X54224286Y-65145688D01*
X54129162Y-65106287D01*
X54129159Y-65106285D01*
X54129158Y-65106285D01*
X54110458Y-65098539D01*
X54110446Y-65098535D01*
X54029587Y-65082451D01*
X54029580Y-65082451D01*
X53989607Y-65074500D01*
X53989606Y-65074500D01*
X51010453Y-65074500D01*
X50943414Y-65054815D01*
X50922772Y-65038181D01*
X45261819Y-59377228D01*
X45228334Y-59315905D01*
X45225500Y-59289547D01*
X45225500Y-55643288D01*
X46765500Y-55643288D01*
X46797161Y-55883785D01*
X46859947Y-56118104D01*
X46934259Y-56297509D01*
X46952776Y-56342212D01*
X47074064Y-56552289D01*
X47074066Y-56552292D01*
X47074067Y-56552293D01*
X47221733Y-56744736D01*
X47221737Y-56744741D01*
X47393256Y-56916260D01*
X47393262Y-56916265D01*
X47585711Y-57063936D01*
X47795788Y-57185224D01*
X48019900Y-57278054D01*
X48254211Y-57340838D01*
X48434586Y-57364584D01*
X48494711Y-57372500D01*
X48494712Y-57372500D01*
X48737289Y-57372500D01*
X48785388Y-57366167D01*
X48977789Y-57340838D01*
X49212100Y-57278054D01*
X49436212Y-57185224D01*
X49646289Y-57063936D01*
X49838738Y-56916265D01*
X49904990Y-56850013D01*
X50010263Y-56744741D01*
X50010265Y-56744738D01*
X50157936Y-56552289D01*
X50279224Y-56342212D01*
X50372054Y-56118100D01*
X50434838Y-55883789D01*
X50466500Y-55643288D01*
X50466500Y-55400712D01*
X50434838Y-55160211D01*
X50372054Y-54925900D01*
X50279224Y-54701788D01*
X50157936Y-54491711D01*
X50010265Y-54299262D01*
X50010260Y-54299256D01*
X49838743Y-54127739D01*
X49838736Y-54127733D01*
X49646293Y-53980067D01*
X49646292Y-53980066D01*
X49646289Y-53980064D01*
X49436212Y-53858776D01*
X49436205Y-53858773D01*
X49212104Y-53765947D01*
X48977785Y-53703161D01*
X48737289Y-53671500D01*
X48737288Y-53671500D01*
X48494712Y-53671500D01*
X48494711Y-53671500D01*
X48254214Y-53703161D01*
X48019895Y-53765947D01*
X47795794Y-53858773D01*
X47795785Y-53858777D01*
X47585706Y-53980067D01*
X47393263Y-54127733D01*
X47393256Y-54127739D01*
X47221739Y-54299256D01*
X47221733Y-54299263D01*
X47074067Y-54491706D01*
X46952777Y-54701785D01*
X46952773Y-54701794D01*
X46859947Y-54925895D01*
X46797161Y-55160214D01*
X46765500Y-55400711D01*
X46765500Y-55643288D01*
X45225500Y-55643288D01*
X45225500Y-53788393D01*
X45225499Y-53788389D01*
X45221035Y-53765946D01*
X45201463Y-53667548D01*
X45180338Y-53616547D01*
X45154312Y-53553715D01*
X45137256Y-53528190D01*
X45085858Y-53451267D01*
X45085856Y-53451264D01*
X44995637Y-53361045D01*
X44995606Y-53361016D01*
X40436773Y-48802183D01*
X40403288Y-48740860D01*
X40406522Y-48676186D01*
X40442246Y-48566243D01*
X40475500Y-48356287D01*
X40475500Y-48143713D01*
X40442246Y-47933757D01*
X40376557Y-47731588D01*
X40280051Y-47542184D01*
X40280049Y-47542181D01*
X40280048Y-47542179D01*
X40155109Y-47370213D01*
X40004792Y-47219896D01*
X40004784Y-47219890D01*
X39840204Y-47100316D01*
X39797540Y-47044989D01*
X39791561Y-46975376D01*
X39824166Y-46913580D01*
X39840199Y-46899686D01*
X40004792Y-46780104D01*
X40155104Y-46629792D01*
X40155106Y-46629788D01*
X40155109Y-46629786D01*
X40280048Y-46457820D01*
X40280047Y-46457820D01*
X40280051Y-46457816D01*
X40376557Y-46268412D01*
X40442246Y-46066243D01*
X40475500Y-45856287D01*
X40475500Y-45643713D01*
X40442246Y-45433757D01*
X40376557Y-45231588D01*
X40280051Y-45042184D01*
X40280049Y-45042181D01*
X40280048Y-45042179D01*
X40155109Y-44870213D01*
X40015931Y-44731035D01*
X39982446Y-44669712D01*
X39987430Y-44600020D01*
X40029302Y-44544087D01*
X40038516Y-44537815D01*
X40193343Y-44442317D01*
X40317315Y-44318345D01*
X40409356Y-44169124D01*
X40409358Y-44169119D01*
X40464505Y-44002697D01*
X40464506Y-44002690D01*
X40474999Y-43899986D01*
X40475000Y-43899973D01*
X40475000Y-43500000D01*
X39404146Y-43500000D01*
X39442630Y-43433343D01*
X39475000Y-43312535D01*
X39475000Y-43187465D01*
X39442630Y-43066657D01*
X39404146Y-43000000D01*
X40474999Y-43000000D01*
X40474999Y-42600028D01*
X40474998Y-42600013D01*
X40464505Y-42497302D01*
X40409358Y-42330880D01*
X40409356Y-42330875D01*
X40317315Y-42181654D01*
X40193345Y-42057684D01*
X40044124Y-41965643D01*
X40044119Y-41965641D01*
X39877697Y-41910494D01*
X39877690Y-41910493D01*
X39774986Y-41900000D01*
X39250000Y-41900000D01*
X39250000Y-42845854D01*
X39183343Y-42807370D01*
X39062535Y-42775000D01*
X38937465Y-42775000D01*
X38816657Y-42807370D01*
X38750000Y-42845854D01*
X38750000Y-41900000D01*
X38225028Y-41900000D01*
X38225012Y-41900001D01*
X38122302Y-41910494D01*
X37955880Y-41965641D01*
X37955875Y-41965643D01*
X37806654Y-42057684D01*
X37682684Y-42181654D01*
X37590643Y-42330875D01*
X37590641Y-42330880D01*
X37535494Y-42497302D01*
X37535493Y-42497309D01*
X37525000Y-42600013D01*
X37525000Y-43000000D01*
X38595854Y-43000000D01*
X38557370Y-43066657D01*
X38525000Y-43187465D01*
X38525000Y-43312535D01*
X38557370Y-43433343D01*
X38595854Y-43500000D01*
X37525001Y-43500000D01*
X37525001Y-43899986D01*
X37535494Y-44002697D01*
X37590641Y-44169119D01*
X37590643Y-44169124D01*
X37682684Y-44318345D01*
X37806654Y-44442315D01*
X37961484Y-44537815D01*
X38008208Y-44589763D01*
X38019431Y-44658726D01*
X37991587Y-44722808D01*
X37984069Y-44731035D01*
X37844889Y-44870215D01*
X37719951Y-45042179D01*
X37623444Y-45231585D01*
X37557753Y-45433760D01*
X37524500Y-45643713D01*
X37524500Y-45856286D01*
X37551928Y-46029464D01*
X37557754Y-46066243D01*
X37607276Y-46218656D01*
X37623444Y-46268414D01*
X37719951Y-46457820D01*
X37844890Y-46629786D01*
X37995209Y-46780105D01*
X37995214Y-46780109D01*
X38159793Y-46899682D01*
X38202459Y-46955011D01*
X38208438Y-47024625D01*
X38175833Y-47086420D01*
X38159793Y-47100318D01*
X37995214Y-47219890D01*
X37995209Y-47219894D01*
X37844890Y-47370213D01*
X37719950Y-47542180D01*
X37712503Y-47556797D01*
X37664527Y-47607592D01*
X37602019Y-47624500D01*
X35211607Y-47624500D01*
X35088393Y-47624500D01*
X35070018Y-47628155D01*
X35011289Y-47639836D01*
X34967545Y-47648537D01*
X34947543Y-47656823D01*
X34934207Y-47662347D01*
X34853719Y-47695684D01*
X34853705Y-47695692D01*
X34751272Y-47764138D01*
X34751264Y-47764144D01*
X31864144Y-50651264D01*
X31864138Y-50651272D01*
X31795692Y-50753705D01*
X31795684Y-50753719D01*
X31762347Y-50834207D01*
X31756823Y-50847543D01*
X31748537Y-50867545D01*
X31748535Y-50867553D01*
X31724500Y-50988389D01*
X31724500Y-50988394D01*
X31724500Y-59338393D01*
X31724500Y-59461607D01*
X31733038Y-59504532D01*
X31748537Y-59582452D01*
X31762347Y-59615792D01*
X31762347Y-59615793D01*
X31795685Y-59696280D01*
X31795690Y-59696289D01*
X31829914Y-59747507D01*
X31829915Y-59747509D01*
X31864141Y-59798733D01*
X31955586Y-59890178D01*
X31955608Y-59890198D01*
X34577728Y-62512318D01*
X34611213Y-62573641D01*
X34606229Y-62643333D01*
X34577728Y-62687680D01*
X32851269Y-64414140D01*
X32764143Y-64501265D01*
X32764142Y-64501267D01*
X32755539Y-64514143D01*
X32695688Y-64603714D01*
X32674218Y-64655548D01*
X32648538Y-64717544D01*
X32648535Y-64717556D01*
X32624500Y-64838389D01*
X32624500Y-66261611D01*
X32648535Y-66382444D01*
X32648540Y-66382461D01*
X32695685Y-66496280D01*
X32695690Y-66496289D01*
X32729914Y-66547507D01*
X32729915Y-66547509D01*
X32764140Y-66598731D01*
X32764141Y-66598732D01*
X32764142Y-66598733D01*
X32851267Y-66685858D01*
X32851268Y-66685858D01*
X32858335Y-66692925D01*
X32858334Y-66692925D01*
X32858338Y-66692928D01*
X33966929Y-67801520D01*
X33993806Y-67841742D01*
X33995686Y-67846281D01*
X33995690Y-67846289D01*
X34064138Y-67948728D01*
X34064144Y-67948736D01*
X34151263Y-68035855D01*
X34151267Y-68035858D01*
X34253707Y-68104307D01*
X34253713Y-68104310D01*
X34253714Y-68104311D01*
X34367548Y-68151463D01*
X34488389Y-68175499D01*
X34488393Y-68175500D01*
X34488394Y-68175500D01*
X34611606Y-68175500D01*
X40239548Y-68175500D01*
X40306587Y-68195185D01*
X40327229Y-68211819D01*
X40603229Y-68487819D01*
X40636714Y-68549142D01*
X40631730Y-68618834D01*
X40589858Y-68674767D01*
X40524394Y-68699184D01*
X40515548Y-68699500D01*
X39389337Y-68699500D01*
X39322298Y-68679815D01*
X39316452Y-68675818D01*
X39302734Y-68665851D01*
X39302729Y-68665848D01*
X39129807Y-68588857D01*
X39129802Y-68588855D01*
X38984001Y-68557865D01*
X38944646Y-68549500D01*
X38755354Y-68549500D01*
X38722897Y-68556398D01*
X38570197Y-68588855D01*
X38570192Y-68588857D01*
X38397270Y-68665848D01*
X38397265Y-68665851D01*
X38244129Y-68777111D01*
X38117466Y-68917785D01*
X38022821Y-69081715D01*
X38022818Y-69081722D01*
X37975216Y-69228228D01*
X37964326Y-69261744D01*
X37944540Y-69450000D01*
X37964326Y-69638256D01*
X37964327Y-69638259D01*
X38022818Y-69818277D01*
X38022821Y-69818284D01*
X38117467Y-69982216D01*
X38212879Y-70088181D01*
X38244129Y-70122888D01*
X38397265Y-70234148D01*
X38397270Y-70234151D01*
X38570192Y-70311142D01*
X38570197Y-70311144D01*
X38755354Y-70350500D01*
X38755355Y-70350500D01*
X38944644Y-70350500D01*
X38944646Y-70350500D01*
X39129803Y-70311144D01*
X39302730Y-70234151D01*
X39304776Y-70232664D01*
X39316452Y-70224182D01*
X39382258Y-70200702D01*
X39389337Y-70200500D01*
X40637770Y-70200500D01*
X40704809Y-70220185D01*
X40725451Y-70236819D01*
X43508181Y-73019548D01*
X43541666Y-73080871D01*
X43544500Y-73107229D01*
X43544500Y-73750002D01*
X43549644Y-73821940D01*
X43578338Y-73919660D01*
X43581596Y-73930756D01*
X43590182Y-73959994D01*
X43667967Y-74081030D01*
X43667971Y-74081034D01*
X43728260Y-74133275D01*
X43776706Y-74175254D01*
X43817174Y-74193735D01*
X43907580Y-74235023D01*
X43907583Y-74235023D01*
X43907584Y-74235024D01*
X44050000Y-74255500D01*
X44050003Y-74255500D01*
X45049984Y-74255500D01*
X45050000Y-74255500D01*
X45113522Y-74251493D01*
X45113526Y-74251492D01*
X45113527Y-74251492D01*
X45133755Y-74245919D01*
X45160104Y-74238660D01*
X45210680Y-74235469D01*
X45350000Y-74255500D01*
X45385566Y-74255500D01*
X45452605Y-74275185D01*
X45488668Y-74310609D01*
X45514141Y-74348732D01*
X45514144Y-74348736D01*
X45528227Y-74362819D01*
X45561712Y-74424142D01*
X45556728Y-74493834D01*
X45514856Y-74549767D01*
X45449392Y-74574184D01*
X45440546Y-74574500D01*
X43510452Y-74574500D01*
X43443413Y-74554815D01*
X43422771Y-74538181D01*
X42041819Y-73157229D01*
X42008334Y-73095906D01*
X42005500Y-73069548D01*
X42005500Y-72250000D01*
X42000355Y-72178060D01*
X42000354Y-72178058D01*
X41982060Y-72115754D01*
X41959819Y-72040008D01*
X41897868Y-71943611D01*
X41882032Y-71918969D01*
X41882028Y-71918965D01*
X41773299Y-71824750D01*
X41773297Y-71824748D01*
X41773294Y-71824746D01*
X41773290Y-71824744D01*
X41642419Y-71764976D01*
X41642414Y-71764975D01*
X41500000Y-71744500D01*
X40350000Y-71744500D01*
X40349978Y-71744500D01*
X40269669Y-71750923D01*
X40269656Y-71750926D01*
X40132310Y-71793773D01*
X40132308Y-71793775D01*
X40012595Y-71873584D01*
X39920211Y-71983894D01*
X39862651Y-72115754D01*
X39844570Y-72258490D01*
X39867438Y-72400545D01*
X39867439Y-72400548D01*
X39929399Y-72530401D01*
X40196609Y-72931216D01*
X40217417Y-72997915D01*
X40198862Y-73065276D01*
X40196609Y-73068782D01*
X39929399Y-73469598D01*
X39890182Y-73540005D01*
X39890179Y-73540012D01*
X39849645Y-73678058D01*
X39849645Y-73678060D01*
X39849645Y-73821940D01*
X39881596Y-73930756D01*
X39890182Y-73959994D01*
X39967967Y-74081030D01*
X39967971Y-74081034D01*
X40028260Y-74133275D01*
X40076706Y-74175254D01*
X40117174Y-74193735D01*
X40207580Y-74235023D01*
X40207583Y-74235023D01*
X40207584Y-74235024D01*
X40350000Y-74255500D01*
X41319548Y-74255500D01*
X41386587Y-74275185D01*
X41407229Y-74291819D01*
X42702058Y-75586648D01*
X42735543Y-75647971D01*
X42730559Y-75717663D01*
X42688687Y-75773596D01*
X42623223Y-75798013D01*
X42613902Y-75798328D01*
X33516733Y-75763473D01*
X33499014Y-75762132D01*
X33264782Y-75727388D01*
X33252846Y-75725014D01*
X32902964Y-75637373D01*
X32891323Y-75633841D01*
X32551734Y-75512334D01*
X32540495Y-75507679D01*
X32214429Y-75353462D01*
X32203702Y-75347727D01*
X31894340Y-75162303D01*
X31884222Y-75155543D01*
X31594511Y-74940678D01*
X31585105Y-74932958D01*
X31542479Y-74894324D01*
X31317853Y-74690735D01*
X31309264Y-74682146D01*
X31067041Y-74414894D01*
X31059321Y-74405488D01*
X31017231Y-74348736D01*
X30844454Y-74115774D01*
X30837696Y-74105659D01*
X30652267Y-73796290D01*
X30646543Y-73785582D01*
X30492317Y-73459497D01*
X30487669Y-73448275D01*
X30366154Y-73108663D01*
X30362629Y-73097046D01*
X30274982Y-72747140D01*
X30272613Y-72735230D01*
X30219689Y-72378440D01*
X30218497Y-72366334D01*
X30212806Y-72250500D01*
X30206458Y-72121288D01*
X32149500Y-72121288D01*
X32181161Y-72361785D01*
X32243947Y-72596104D01*
X32301570Y-72735217D01*
X32336776Y-72820212D01*
X32458064Y-73030289D01*
X32458066Y-73030292D01*
X32458067Y-73030293D01*
X32605733Y-73222736D01*
X32605739Y-73222743D01*
X32777256Y-73394260D01*
X32777263Y-73394266D01*
X32783085Y-73398733D01*
X32969711Y-73541936D01*
X33179788Y-73663224D01*
X33375269Y-73744195D01*
X33387688Y-73749339D01*
X33403900Y-73756054D01*
X33638211Y-73818838D01*
X33818586Y-73842584D01*
X33878711Y-73850500D01*
X33878712Y-73850500D01*
X34121289Y-73850500D01*
X34169388Y-73844167D01*
X34361789Y-73818838D01*
X34596100Y-73756054D01*
X34820212Y-73663224D01*
X35030289Y-73541936D01*
X35222738Y-73394265D01*
X35394265Y-73222738D01*
X35541936Y-73030289D01*
X35663224Y-72820212D01*
X35756054Y-72596100D01*
X35818838Y-72361789D01*
X35850500Y-72121288D01*
X35850500Y-71878712D01*
X35818838Y-71638211D01*
X35756054Y-71403900D01*
X35663224Y-71179788D01*
X35541936Y-70969711D01*
X35394265Y-70777262D01*
X35394260Y-70777256D01*
X35222743Y-70605739D01*
X35222736Y-70605733D01*
X35030293Y-70458067D01*
X35030292Y-70458066D01*
X35030289Y-70458064D01*
X34820212Y-70336776D01*
X34758331Y-70311144D01*
X34596104Y-70243947D01*
X34361785Y-70181161D01*
X34121289Y-70149500D01*
X34121288Y-70149500D01*
X33878712Y-70149500D01*
X33878711Y-70149500D01*
X33638214Y-70181161D01*
X33403895Y-70243947D01*
X33179794Y-70336773D01*
X33179785Y-70336777D01*
X32969706Y-70458067D01*
X32777263Y-70605733D01*
X32777256Y-70605739D01*
X32605739Y-70777256D01*
X32605733Y-70777263D01*
X32458067Y-70969706D01*
X32336777Y-71179785D01*
X32336773Y-71179794D01*
X32243947Y-71403895D01*
X32181161Y-71638214D01*
X32149500Y-71878711D01*
X32149500Y-72121288D01*
X30206458Y-72121288D01*
X30200649Y-72003031D01*
X30200500Y-71996947D01*
X30200500Y-34121288D01*
X32149500Y-34121288D01*
X32181161Y-34361785D01*
X32243947Y-34596104D01*
X32319422Y-34778316D01*
X32336776Y-34820212D01*
X32458064Y-35030289D01*
X32458066Y-35030292D01*
X32458067Y-35030293D01*
X32605733Y-35222736D01*
X32605739Y-35222743D01*
X32777256Y-35394260D01*
X32777262Y-35394265D01*
X32969711Y-35541936D01*
X33179788Y-35663224D01*
X33403900Y-35756054D01*
X33638211Y-35818838D01*
X33818586Y-35842584D01*
X33878711Y-35850500D01*
X33878712Y-35850500D01*
X34121289Y-35850500D01*
X34169388Y-35844167D01*
X34361789Y-35818838D01*
X34596100Y-35756054D01*
X34820212Y-35663224D01*
X35030289Y-35541936D01*
X35222738Y-35394265D01*
X35394265Y-35222738D01*
X35541936Y-35030289D01*
X35663224Y-34820212D01*
X35756054Y-34596100D01*
X35818838Y-34361789D01*
X35850500Y-34121288D01*
X35850500Y-33878712D01*
X35818838Y-33638211D01*
X35756054Y-33403900D01*
X35663224Y-33179788D01*
X35541936Y-32969711D01*
X35394265Y-32777262D01*
X35394260Y-32777256D01*
X35222743Y-32605739D01*
X35222736Y-32605733D01*
X35030293Y-32458067D01*
X35030292Y-32458066D01*
X35030289Y-32458064D01*
X34820212Y-32336776D01*
X34820205Y-32336773D01*
X34596104Y-32243947D01*
X34361785Y-32181161D01*
X34121289Y-32149500D01*
X34121288Y-32149500D01*
X33878712Y-32149500D01*
X33878711Y-32149500D01*
X33638214Y-32181161D01*
X33403895Y-32243947D01*
X33179794Y-32336773D01*
X33179785Y-32336777D01*
X32969706Y-32458067D01*
X32777263Y-32605733D01*
X32777256Y-32605739D01*
X32605739Y-32777256D01*
X32605733Y-32777263D01*
X32458067Y-32969706D01*
X32336777Y-33179785D01*
X32336773Y-33179794D01*
X32243947Y-33403895D01*
X32181161Y-33638214D01*
X32149500Y-33878711D01*
X32149500Y-34121288D01*
X30200500Y-34121288D01*
X30200500Y-34003052D01*
X30200649Y-33996968D01*
X30210041Y-33805799D01*
X30218497Y-33633659D01*
X30219690Y-33621555D01*
X30272614Y-33264765D01*
X30274981Y-33252863D01*
X30362631Y-32902947D01*
X30366152Y-32891341D01*
X30487672Y-32551717D01*
X30492314Y-32540509D01*
X30646547Y-32214409D01*
X30652262Y-32203717D01*
X30837704Y-31894327D01*
X30844447Y-31884234D01*
X31059329Y-31594500D01*
X31067032Y-31585115D01*
X31309273Y-31317843D01*
X31317843Y-31309273D01*
X31585115Y-31067032D01*
X31594500Y-31059329D01*
X31884234Y-30844447D01*
X31894327Y-30837704D01*
X32203717Y-30652262D01*
X32214409Y-30646547D01*
X32540509Y-30492314D01*
X32551717Y-30487672D01*
X32891341Y-30366152D01*
X32902947Y-30362631D01*
X33252863Y-30274981D01*
X33264765Y-30272614D01*
X33621561Y-30219689D01*
X33633659Y-30218497D01*
X33942885Y-30203305D01*
X33996968Y-30200649D01*
X34003052Y-30200500D01*
X34039882Y-30200500D01*
X90960118Y-30200500D01*
X90996948Y-30200500D01*
X91003032Y-30200649D01*
G37*
G04 #@! TD.AperFunction*
G04 #@! TA.AperFunction,Conductor*
G36*
X44430703Y-60315739D02*
G01*
X44437181Y-60321771D01*
X50301263Y-66185855D01*
X50301267Y-66185858D01*
X50403710Y-66254309D01*
X50403711Y-66254309D01*
X50403715Y-66254312D01*
X50470396Y-66281931D01*
X50470398Y-66281933D01*
X50500129Y-66294247D01*
X50517548Y-66301463D01*
X50638394Y-66325500D01*
X50761607Y-66325500D01*
X53617548Y-66325500D01*
X53684587Y-66345185D01*
X53705229Y-66361819D01*
X53776070Y-66432660D01*
X53809555Y-66493983D01*
X53804571Y-66563675D01*
X53762699Y-66619608D01*
X53697235Y-66644025D01*
X53688389Y-66644341D01*
X53687999Y-66644341D01*
X53452596Y-66664936D01*
X53452586Y-66664938D01*
X53224344Y-66726094D01*
X53224335Y-66726098D01*
X53010171Y-66825964D01*
X53010169Y-66825965D01*
X52816597Y-66961505D01*
X52649508Y-67128594D01*
X52519269Y-67314595D01*
X52464692Y-67358219D01*
X52395193Y-67365412D01*
X52332839Y-67333890D01*
X52316119Y-67314594D01*
X52186113Y-67128926D01*
X52186108Y-67128920D01*
X52019082Y-66961894D01*
X51825578Y-66826399D01*
X51611492Y-66726570D01*
X51611486Y-66726567D01*
X51398000Y-66669364D01*
X51398000Y-67566988D01*
X51340993Y-67534075D01*
X51213826Y-67500000D01*
X51082174Y-67500000D01*
X50955007Y-67534075D01*
X50898000Y-67566988D01*
X50898000Y-66669364D01*
X50897999Y-66669364D01*
X50684513Y-66726567D01*
X50684507Y-66726570D01*
X50470422Y-66826399D01*
X50470420Y-66826400D01*
X50276926Y-66961886D01*
X50154865Y-67083947D01*
X50093542Y-67117431D01*
X50023850Y-67112447D01*
X49967917Y-67070575D01*
X49951002Y-67039598D01*
X49901797Y-66907671D01*
X49901793Y-66907664D01*
X49815547Y-66792455D01*
X49815544Y-66792452D01*
X49700335Y-66706206D01*
X49700328Y-66706202D01*
X49565482Y-66655908D01*
X49565483Y-66655908D01*
X49505883Y-66649501D01*
X49505881Y-66649500D01*
X49505873Y-66649500D01*
X49505864Y-66649500D01*
X47710129Y-66649500D01*
X47710123Y-66649501D01*
X47650516Y-66655908D01*
X47515671Y-66706202D01*
X47515664Y-66706206D01*
X47400455Y-66792452D01*
X47400452Y-66792455D01*
X47314206Y-66907664D01*
X47314202Y-66907671D01*
X47263908Y-67042517D01*
X47257501Y-67102116D01*
X47257500Y-67102135D01*
X47257500Y-68897870D01*
X47257501Y-68897876D01*
X47263908Y-68957483D01*
X47314202Y-69092328D01*
X47314206Y-69092335D01*
X47400452Y-69207544D01*
X47400455Y-69207547D01*
X47515664Y-69293793D01*
X47515671Y-69293797D01*
X47650517Y-69344091D01*
X47650516Y-69344091D01*
X47657444Y-69344835D01*
X47710127Y-69350500D01*
X49505872Y-69350499D01*
X49565483Y-69344091D01*
X49700331Y-69293796D01*
X49815546Y-69207546D01*
X49901796Y-69092331D01*
X49951002Y-68960401D01*
X49992872Y-68904468D01*
X50058337Y-68880050D01*
X50126610Y-68894901D01*
X50154865Y-68916053D01*
X50276917Y-69038105D01*
X50470421Y-69173600D01*
X50684507Y-69273429D01*
X50684516Y-69273433D01*
X50898000Y-69330634D01*
X50898000Y-68433012D01*
X50955007Y-68465925D01*
X51082174Y-68500000D01*
X51213826Y-68500000D01*
X51340993Y-68465925D01*
X51398000Y-68433012D01*
X51398000Y-69330634D01*
X51611483Y-69273433D01*
X51611492Y-69273429D01*
X51825578Y-69173600D01*
X52019082Y-69038105D01*
X52186105Y-68871082D01*
X52316119Y-68685405D01*
X52370696Y-68641781D01*
X52440195Y-68634588D01*
X52502549Y-68666110D01*
X52519269Y-68685405D01*
X52532180Y-68703844D01*
X52649505Y-68871401D01*
X52816599Y-69038495D01*
X52851073Y-69062634D01*
X52878063Y-69081533D01*
X52921688Y-69136110D01*
X52928880Y-69205608D01*
X52897357Y-69267963D01*
X52894620Y-69270788D01*
X52077229Y-70088181D01*
X52015906Y-70121666D01*
X51989548Y-70124500D01*
X47260452Y-70124500D01*
X47193413Y-70104815D01*
X47172771Y-70088181D01*
X42297270Y-65212680D01*
X42263785Y-65151357D01*
X42268769Y-65081665D01*
X42297266Y-65037323D01*
X43998729Y-63335860D01*
X43998733Y-63335858D01*
X44085858Y-63248733D01*
X44154311Y-63146286D01*
X44201463Y-63032452D01*
X44225500Y-62911606D01*
X44225500Y-60409452D01*
X44245185Y-60342413D01*
X44297989Y-60296658D01*
X44367147Y-60286714D01*
X44430703Y-60315739D01*
G37*
G04 #@! TD.AperFunction*
G04 #@! TA.AperFunction,Conductor*
G36*
X37669058Y-48895185D02*
G01*
X37712503Y-48943203D01*
X37719950Y-48957819D01*
X37844890Y-49129786D01*
X37995209Y-49280105D01*
X37995214Y-49280109D01*
X38159793Y-49399682D01*
X38202459Y-49455011D01*
X38208438Y-49524625D01*
X38175833Y-49586420D01*
X38159793Y-49600318D01*
X37995214Y-49719890D01*
X37995209Y-49719894D01*
X37844890Y-49870213D01*
X37719951Y-50042179D01*
X37623444Y-50231585D01*
X37557753Y-50433760D01*
X37537103Y-50564139D01*
X37524500Y-50643713D01*
X37524500Y-50856287D01*
X37534534Y-50919644D01*
X37557753Y-51066239D01*
X37623444Y-51268414D01*
X37719951Y-51457820D01*
X37844890Y-51629786D01*
X37995213Y-51780109D01*
X38167179Y-51905048D01*
X38167181Y-51905049D01*
X38167184Y-51905051D01*
X38356588Y-52001557D01*
X38558757Y-52067246D01*
X38768713Y-52100500D01*
X38768714Y-52100500D01*
X39231286Y-52100500D01*
X39231287Y-52100500D01*
X39441243Y-52067246D01*
X39643412Y-52001557D01*
X39744358Y-51950121D01*
X39813027Y-51937225D01*
X39877768Y-51963501D01*
X39888335Y-51972925D01*
X42938181Y-55022771D01*
X42971666Y-55084094D01*
X42974500Y-55110452D01*
X42974500Y-62539548D01*
X42954815Y-62606587D01*
X42938181Y-62627229D01*
X41227229Y-64338181D01*
X41165906Y-64371666D01*
X41139548Y-64374500D01*
X40397981Y-64374500D01*
X40330942Y-64354815D01*
X40287497Y-64306797D01*
X40280049Y-64292180D01*
X40155109Y-64120213D01*
X40004792Y-63969896D01*
X40004784Y-63969890D01*
X39840204Y-63850316D01*
X39797540Y-63794989D01*
X39791561Y-63725376D01*
X39824166Y-63663580D01*
X39840199Y-63649686D01*
X40004792Y-63530104D01*
X40155104Y-63379792D01*
X40155106Y-63379788D01*
X40155109Y-63379786D01*
X40280048Y-63207820D01*
X40280049Y-63207819D01*
X40280051Y-63207816D01*
X40376557Y-63018412D01*
X40442246Y-62816243D01*
X40475500Y-62606287D01*
X40475500Y-62393713D01*
X40442246Y-62183757D01*
X40376557Y-61981588D01*
X40280051Y-61792184D01*
X40280049Y-61792181D01*
X40280048Y-61792179D01*
X40155109Y-61620213D01*
X40004792Y-61469896D01*
X39994934Y-61462734D01*
X39840204Y-61350316D01*
X39797540Y-61294989D01*
X39791561Y-61225376D01*
X39824166Y-61163580D01*
X39840199Y-61149686D01*
X40004792Y-61030104D01*
X40155104Y-60879792D01*
X40155106Y-60879788D01*
X40155109Y-60879786D01*
X40280048Y-60707820D01*
X40280047Y-60707820D01*
X40280051Y-60707816D01*
X40376557Y-60518412D01*
X40442246Y-60316243D01*
X40475500Y-60106287D01*
X40475500Y-59893713D01*
X40442246Y-59683757D01*
X40376557Y-59481588D01*
X40280051Y-59292184D01*
X40280049Y-59292181D01*
X40280048Y-59292179D01*
X40155109Y-59120213D01*
X40015931Y-58981035D01*
X39982446Y-58919712D01*
X39987430Y-58850020D01*
X40029302Y-58794087D01*
X40038516Y-58787815D01*
X40193343Y-58692317D01*
X40317315Y-58568345D01*
X40409356Y-58419124D01*
X40409358Y-58419119D01*
X40464505Y-58252697D01*
X40464506Y-58252690D01*
X40474999Y-58149986D01*
X40475000Y-58149973D01*
X40475000Y-57750000D01*
X39404146Y-57750000D01*
X39442630Y-57683343D01*
X39475000Y-57562535D01*
X39475000Y-57437465D01*
X39442630Y-57316657D01*
X39404146Y-57250000D01*
X40474999Y-57250000D01*
X40474999Y-56850028D01*
X40474998Y-56850013D01*
X40464505Y-56747302D01*
X40409358Y-56580880D01*
X40409356Y-56580875D01*
X40317315Y-56431654D01*
X40193345Y-56307684D01*
X40044124Y-56215643D01*
X40044119Y-56215641D01*
X39877697Y-56160494D01*
X39877690Y-56160493D01*
X39774986Y-56150000D01*
X39250000Y-56150000D01*
X39250000Y-57095854D01*
X39183343Y-57057370D01*
X39062535Y-57025000D01*
X38937465Y-57025000D01*
X38816657Y-57057370D01*
X38750000Y-57095854D01*
X38750000Y-56150000D01*
X38225028Y-56150000D01*
X38225012Y-56150001D01*
X38122302Y-56160494D01*
X37955880Y-56215641D01*
X37955875Y-56215643D01*
X37806654Y-56307684D01*
X37682684Y-56431654D01*
X37590643Y-56580875D01*
X37590641Y-56580880D01*
X37535494Y-56747302D01*
X37535493Y-56747309D01*
X37525000Y-56850013D01*
X37525000Y-57250000D01*
X38595854Y-57250000D01*
X38557370Y-57316657D01*
X38525000Y-57437465D01*
X38525000Y-57562535D01*
X38557370Y-57683343D01*
X38595854Y-57750000D01*
X37525001Y-57750000D01*
X37525001Y-58149986D01*
X37535494Y-58252697D01*
X37590641Y-58419119D01*
X37590643Y-58419124D01*
X37682684Y-58568345D01*
X37806654Y-58692315D01*
X37961484Y-58787815D01*
X38008208Y-58839763D01*
X38019431Y-58908726D01*
X37991587Y-58972808D01*
X37984069Y-58981035D01*
X37844889Y-59120215D01*
X37719951Y-59292179D01*
X37623444Y-59481585D01*
X37557753Y-59683760D01*
X37539543Y-59798733D01*
X37524500Y-59893713D01*
X37524500Y-60106287D01*
X37557754Y-60316243D01*
X37573112Y-60363511D01*
X37623444Y-60518414D01*
X37719951Y-60707820D01*
X37844890Y-60879786D01*
X37995209Y-61030105D01*
X37995214Y-61030109D01*
X38159793Y-61149682D01*
X38202459Y-61205011D01*
X38208438Y-61274625D01*
X38175833Y-61336420D01*
X38159793Y-61350318D01*
X37995214Y-61469890D01*
X37995209Y-61469894D01*
X37844890Y-61620213D01*
X37719950Y-61792180D01*
X37712503Y-61806797D01*
X37664527Y-61857592D01*
X37602019Y-61874500D01*
X35760452Y-61874500D01*
X35693413Y-61854815D01*
X35672771Y-61838181D01*
X33011819Y-59177229D01*
X32978334Y-59115906D01*
X32975500Y-59089548D01*
X32975500Y-51360452D01*
X32995185Y-51293413D01*
X33011819Y-51272771D01*
X35372771Y-48911819D01*
X35434094Y-48878334D01*
X35460452Y-48875500D01*
X37602019Y-48875500D01*
X37669058Y-48895185D01*
G37*
G04 #@! TD.AperFunction*
M02*
