%TF.GenerationSoftware,KiCad,Pcbnew,8.0.1-8.0.1-1~ubuntu22.04.1*%
%TF.CreationDate,2024-05-03T10:54:56-07:00*%
%TF.ProjectId,pifire-ads-board,70696669-7265-42d6-9164-732d626f6172,rev?*%
%TF.SameCoordinates,Original*%
%TF.FileFunction,Drillmap*%
%TF.FilePolarity,Positive*%
%FSLAX45Y45*%
G04 Gerber Fmt 4.5, Leading zero omitted, Abs format (unit mm)*
G04 Created by KiCad (PCBNEW 8.0.1-8.0.1-1~ubuntu22.04.1) date 2024-05-03 10:54:56*
%MOMM*%
%LPD*%
G01*
G04 APERTURE LIST*
%ADD10C,0.200000*%
%ADD11C,0.320000*%
G04 APERTURE END LIST*
D10*
X9500000Y-7200000D02*
G75*
G02*
X9100000Y-7600000I-400000J0D01*
G01*
X3000000Y-7200000D02*
X3000000Y-3400000D01*
X9100000Y-7600000D02*
X3400000Y-7600000D01*
X3400000Y-3000000D02*
X9100000Y-3000000D01*
X3400000Y-7600000D02*
G75*
G02*
X3000000Y-7200000I0J400000D01*
G01*
X3000000Y-3400000D02*
G75*
G02*
X3400000Y-3000000I400000J0D01*
G01*
X9500000Y-3400000D02*
X9500000Y-7200000D01*
X9100000Y-3000000D02*
G75*
G02*
X9500000Y-3400000I0J-400000D01*
G01*
D11*
X3240000Y-3240000D02*
X3560000Y-3560000D01*
X3560000Y-3240000D02*
X3240000Y-3560000D01*
X3240000Y-7040000D02*
X3560000Y-7360000D01*
X3560000Y-7040000D02*
X3240000Y-7360000D01*
X4701600Y-5392200D02*
X5021600Y-5712200D01*
X5021600Y-5392200D02*
X4701600Y-5712200D01*
X6976400Y-5392200D02*
X7296400Y-5712200D01*
X7296400Y-5392200D02*
X6976400Y-5712200D01*
X8940000Y-3240000D02*
X9260000Y-3560000D01*
X9260000Y-3240000D02*
X8940000Y-3560000D01*
X8940000Y-7040000D02*
X9260000Y-7360000D01*
X9260000Y-7040000D02*
X8940000Y-7360000D01*
D10*
X3250777Y-7921484D02*
X3250777Y-7721484D01*
X3250777Y-7721484D02*
X3298396Y-7721484D01*
X3298396Y-7721484D02*
X3326967Y-7731008D01*
X3326967Y-7731008D02*
X3346015Y-7750055D01*
X3346015Y-7750055D02*
X3355539Y-7769103D01*
X3355539Y-7769103D02*
X3365062Y-7807198D01*
X3365062Y-7807198D02*
X3365062Y-7835769D01*
X3365062Y-7835769D02*
X3355539Y-7873865D01*
X3355539Y-7873865D02*
X3346015Y-7892912D01*
X3346015Y-7892912D02*
X3326967Y-7911960D01*
X3326967Y-7911960D02*
X3298396Y-7921484D01*
X3298396Y-7921484D02*
X3250777Y-7921484D01*
X3450777Y-7921484D02*
X3450777Y-7788150D01*
X3450777Y-7826246D02*
X3460301Y-7807198D01*
X3460301Y-7807198D02*
X3469824Y-7797674D01*
X3469824Y-7797674D02*
X3488872Y-7788150D01*
X3488872Y-7788150D02*
X3507920Y-7788150D01*
X3574586Y-7921484D02*
X3574586Y-7788150D01*
X3574586Y-7721484D02*
X3565062Y-7731008D01*
X3565062Y-7731008D02*
X3574586Y-7740531D01*
X3574586Y-7740531D02*
X3584110Y-7731008D01*
X3584110Y-7731008D02*
X3574586Y-7721484D01*
X3574586Y-7721484D02*
X3574586Y-7740531D01*
X3698396Y-7921484D02*
X3679348Y-7911960D01*
X3679348Y-7911960D02*
X3669824Y-7892912D01*
X3669824Y-7892912D02*
X3669824Y-7721484D01*
X3803158Y-7921484D02*
X3784110Y-7911960D01*
X3784110Y-7911960D02*
X3774586Y-7892912D01*
X3774586Y-7892912D02*
X3774586Y-7721484D01*
X4031729Y-7921484D02*
X4031729Y-7721484D01*
X4031729Y-7721484D02*
X4098396Y-7864341D01*
X4098396Y-7864341D02*
X4165062Y-7721484D01*
X4165062Y-7721484D02*
X4165062Y-7921484D01*
X4346015Y-7921484D02*
X4346015Y-7816722D01*
X4346015Y-7816722D02*
X4336491Y-7797674D01*
X4336491Y-7797674D02*
X4317444Y-7788150D01*
X4317444Y-7788150D02*
X4279348Y-7788150D01*
X4279348Y-7788150D02*
X4260301Y-7797674D01*
X4346015Y-7911960D02*
X4326967Y-7921484D01*
X4326967Y-7921484D02*
X4279348Y-7921484D01*
X4279348Y-7921484D02*
X4260301Y-7911960D01*
X4260301Y-7911960D02*
X4250777Y-7892912D01*
X4250777Y-7892912D02*
X4250777Y-7873865D01*
X4250777Y-7873865D02*
X4260301Y-7854817D01*
X4260301Y-7854817D02*
X4279348Y-7845293D01*
X4279348Y-7845293D02*
X4326967Y-7845293D01*
X4326967Y-7845293D02*
X4346015Y-7835769D01*
X4441253Y-7788150D02*
X4441253Y-7988150D01*
X4441253Y-7797674D02*
X4460301Y-7788150D01*
X4460301Y-7788150D02*
X4498396Y-7788150D01*
X4498396Y-7788150D02*
X4517444Y-7797674D01*
X4517444Y-7797674D02*
X4526967Y-7807198D01*
X4526967Y-7807198D02*
X4536491Y-7826246D01*
X4536491Y-7826246D02*
X4536491Y-7883388D01*
X4536491Y-7883388D02*
X4526967Y-7902436D01*
X4526967Y-7902436D02*
X4517444Y-7911960D01*
X4517444Y-7911960D02*
X4498396Y-7921484D01*
X4498396Y-7921484D02*
X4460301Y-7921484D01*
X4460301Y-7921484D02*
X4441253Y-7911960D01*
X4622205Y-7902436D02*
X4631729Y-7911960D01*
X4631729Y-7911960D02*
X4622205Y-7921484D01*
X4622205Y-7921484D02*
X4612682Y-7911960D01*
X4612682Y-7911960D02*
X4622205Y-7902436D01*
X4622205Y-7902436D02*
X4622205Y-7921484D01*
X4622205Y-7797674D02*
X4631729Y-7807198D01*
X4631729Y-7807198D02*
X4622205Y-7816722D01*
X4622205Y-7816722D02*
X4612682Y-7807198D01*
X4612682Y-7807198D02*
X4622205Y-7797674D01*
X4622205Y-7797674D02*
X4622205Y-7816722D01*
X2790000Y-8150000D02*
X2990000Y-8350000D01*
X2990000Y-8150000D02*
X2790000Y-8350000D01*
X3231729Y-8141484D02*
X3355539Y-8141484D01*
X3355539Y-8141484D02*
X3288872Y-8217674D01*
X3288872Y-8217674D02*
X3317443Y-8217674D01*
X3317443Y-8217674D02*
X3336491Y-8227198D01*
X3336491Y-8227198D02*
X3346015Y-8236722D01*
X3346015Y-8236722D02*
X3355539Y-8255769D01*
X3355539Y-8255769D02*
X3355539Y-8303388D01*
X3355539Y-8303388D02*
X3346015Y-8322436D01*
X3346015Y-8322436D02*
X3336491Y-8331960D01*
X3336491Y-8331960D02*
X3317443Y-8341484D01*
X3317443Y-8341484D02*
X3260301Y-8341484D01*
X3260301Y-8341484D02*
X3241253Y-8331960D01*
X3241253Y-8331960D02*
X3231729Y-8322436D01*
X3441253Y-8322436D02*
X3450777Y-8331960D01*
X3450777Y-8331960D02*
X3441253Y-8341484D01*
X3441253Y-8341484D02*
X3431729Y-8331960D01*
X3431729Y-8331960D02*
X3441253Y-8322436D01*
X3441253Y-8322436D02*
X3441253Y-8341484D01*
X3526967Y-8160531D02*
X3536491Y-8151008D01*
X3536491Y-8151008D02*
X3555539Y-8141484D01*
X3555539Y-8141484D02*
X3603158Y-8141484D01*
X3603158Y-8141484D02*
X3622205Y-8151008D01*
X3622205Y-8151008D02*
X3631729Y-8160531D01*
X3631729Y-8160531D02*
X3641253Y-8179579D01*
X3641253Y-8179579D02*
X3641253Y-8198627D01*
X3641253Y-8198627D02*
X3631729Y-8227198D01*
X3631729Y-8227198D02*
X3517443Y-8341484D01*
X3517443Y-8341484D02*
X3641253Y-8341484D01*
X3765062Y-8141484D02*
X3784110Y-8141484D01*
X3784110Y-8141484D02*
X3803158Y-8151008D01*
X3803158Y-8151008D02*
X3812682Y-8160531D01*
X3812682Y-8160531D02*
X3822205Y-8179579D01*
X3822205Y-8179579D02*
X3831729Y-8217674D01*
X3831729Y-8217674D02*
X3831729Y-8265293D01*
X3831729Y-8265293D02*
X3822205Y-8303388D01*
X3822205Y-8303388D02*
X3812682Y-8322436D01*
X3812682Y-8322436D02*
X3803158Y-8331960D01*
X3803158Y-8331960D02*
X3784110Y-8341484D01*
X3784110Y-8341484D02*
X3765062Y-8341484D01*
X3765062Y-8341484D02*
X3746015Y-8331960D01*
X3746015Y-8331960D02*
X3736491Y-8322436D01*
X3736491Y-8322436D02*
X3726967Y-8303388D01*
X3726967Y-8303388D02*
X3717443Y-8265293D01*
X3717443Y-8265293D02*
X3717443Y-8217674D01*
X3717443Y-8217674D02*
X3726967Y-8179579D01*
X3726967Y-8179579D02*
X3736491Y-8160531D01*
X3736491Y-8160531D02*
X3746015Y-8151008D01*
X3746015Y-8151008D02*
X3765062Y-8141484D01*
X3955539Y-8141484D02*
X3974586Y-8141484D01*
X3974586Y-8141484D02*
X3993634Y-8151008D01*
X3993634Y-8151008D02*
X4003158Y-8160531D01*
X4003158Y-8160531D02*
X4012682Y-8179579D01*
X4012682Y-8179579D02*
X4022205Y-8217674D01*
X4022205Y-8217674D02*
X4022205Y-8265293D01*
X4022205Y-8265293D02*
X4012682Y-8303388D01*
X4012682Y-8303388D02*
X4003158Y-8322436D01*
X4003158Y-8322436D02*
X3993634Y-8331960D01*
X3993634Y-8331960D02*
X3974586Y-8341484D01*
X3974586Y-8341484D02*
X3955539Y-8341484D01*
X3955539Y-8341484D02*
X3936491Y-8331960D01*
X3936491Y-8331960D02*
X3926967Y-8322436D01*
X3926967Y-8322436D02*
X3917443Y-8303388D01*
X3917443Y-8303388D02*
X3907920Y-8265293D01*
X3907920Y-8265293D02*
X3907920Y-8217674D01*
X3907920Y-8217674D02*
X3917443Y-8179579D01*
X3917443Y-8179579D02*
X3926967Y-8160531D01*
X3926967Y-8160531D02*
X3936491Y-8151008D01*
X3936491Y-8151008D02*
X3955539Y-8141484D01*
X4107920Y-8341484D02*
X4107920Y-8208150D01*
X4107920Y-8227198D02*
X4117443Y-8217674D01*
X4117443Y-8217674D02*
X4136491Y-8208150D01*
X4136491Y-8208150D02*
X4165063Y-8208150D01*
X4165063Y-8208150D02*
X4184110Y-8217674D01*
X4184110Y-8217674D02*
X4193634Y-8236722D01*
X4193634Y-8236722D02*
X4193634Y-8341484D01*
X4193634Y-8236722D02*
X4203158Y-8217674D01*
X4203158Y-8217674D02*
X4222205Y-8208150D01*
X4222205Y-8208150D02*
X4250777Y-8208150D01*
X4250777Y-8208150D02*
X4269825Y-8217674D01*
X4269825Y-8217674D02*
X4279348Y-8236722D01*
X4279348Y-8236722D02*
X4279348Y-8341484D01*
X4374586Y-8341484D02*
X4374586Y-8208150D01*
X4374586Y-8227198D02*
X4384110Y-8217674D01*
X4384110Y-8217674D02*
X4403158Y-8208150D01*
X4403158Y-8208150D02*
X4431729Y-8208150D01*
X4431729Y-8208150D02*
X4450777Y-8217674D01*
X4450777Y-8217674D02*
X4460301Y-8236722D01*
X4460301Y-8236722D02*
X4460301Y-8341484D01*
X4460301Y-8236722D02*
X4469825Y-8217674D01*
X4469825Y-8217674D02*
X4488872Y-8208150D01*
X4488872Y-8208150D02*
X4517444Y-8208150D01*
X4517444Y-8208150D02*
X4536491Y-8217674D01*
X4536491Y-8217674D02*
X4546015Y-8236722D01*
X4546015Y-8236722D02*
X4546015Y-8341484D01*
X4936491Y-8131960D02*
X4765063Y-8389103D01*
X5193634Y-8141484D02*
X5212682Y-8141484D01*
X5212682Y-8141484D02*
X5231729Y-8151008D01*
X5231729Y-8151008D02*
X5241253Y-8160531D01*
X5241253Y-8160531D02*
X5250777Y-8179579D01*
X5250777Y-8179579D02*
X5260301Y-8217674D01*
X5260301Y-8217674D02*
X5260301Y-8265293D01*
X5260301Y-8265293D02*
X5250777Y-8303388D01*
X5250777Y-8303388D02*
X5241253Y-8322436D01*
X5241253Y-8322436D02*
X5231729Y-8331960D01*
X5231729Y-8331960D02*
X5212682Y-8341484D01*
X5212682Y-8341484D02*
X5193634Y-8341484D01*
X5193634Y-8341484D02*
X5174587Y-8331960D01*
X5174587Y-8331960D02*
X5165063Y-8322436D01*
X5165063Y-8322436D02*
X5155539Y-8303388D01*
X5155539Y-8303388D02*
X5146015Y-8265293D01*
X5146015Y-8265293D02*
X5146015Y-8217674D01*
X5146015Y-8217674D02*
X5155539Y-8179579D01*
X5155539Y-8179579D02*
X5165063Y-8160531D01*
X5165063Y-8160531D02*
X5174587Y-8151008D01*
X5174587Y-8151008D02*
X5193634Y-8141484D01*
X5346015Y-8322436D02*
X5355539Y-8331960D01*
X5355539Y-8331960D02*
X5346015Y-8341484D01*
X5346015Y-8341484D02*
X5336491Y-8331960D01*
X5336491Y-8331960D02*
X5346015Y-8322436D01*
X5346015Y-8322436D02*
X5346015Y-8341484D01*
X5546015Y-8341484D02*
X5431729Y-8341484D01*
X5488872Y-8341484D02*
X5488872Y-8141484D01*
X5488872Y-8141484D02*
X5469825Y-8170055D01*
X5469825Y-8170055D02*
X5450777Y-8189103D01*
X5450777Y-8189103D02*
X5431729Y-8198627D01*
X5622206Y-8160531D02*
X5631729Y-8151008D01*
X5631729Y-8151008D02*
X5650777Y-8141484D01*
X5650777Y-8141484D02*
X5698396Y-8141484D01*
X5698396Y-8141484D02*
X5717444Y-8151008D01*
X5717444Y-8151008D02*
X5726967Y-8160531D01*
X5726967Y-8160531D02*
X5736491Y-8179579D01*
X5736491Y-8179579D02*
X5736491Y-8198627D01*
X5736491Y-8198627D02*
X5726967Y-8227198D01*
X5726967Y-8227198D02*
X5612682Y-8341484D01*
X5612682Y-8341484D02*
X5736491Y-8341484D01*
X5907920Y-8141484D02*
X5869825Y-8141484D01*
X5869825Y-8141484D02*
X5850777Y-8151008D01*
X5850777Y-8151008D02*
X5841253Y-8160531D01*
X5841253Y-8160531D02*
X5822206Y-8189103D01*
X5822206Y-8189103D02*
X5812682Y-8227198D01*
X5812682Y-8227198D02*
X5812682Y-8303388D01*
X5812682Y-8303388D02*
X5822206Y-8322436D01*
X5822206Y-8322436D02*
X5831729Y-8331960D01*
X5831729Y-8331960D02*
X5850777Y-8341484D01*
X5850777Y-8341484D02*
X5888872Y-8341484D01*
X5888872Y-8341484D02*
X5907920Y-8331960D01*
X5907920Y-8331960D02*
X5917444Y-8322436D01*
X5917444Y-8322436D02*
X5926967Y-8303388D01*
X5926967Y-8303388D02*
X5926967Y-8255769D01*
X5926967Y-8255769D02*
X5917444Y-8236722D01*
X5917444Y-8236722D02*
X5907920Y-8227198D01*
X5907920Y-8227198D02*
X5888872Y-8217674D01*
X5888872Y-8217674D02*
X5850777Y-8217674D01*
X5850777Y-8217674D02*
X5831729Y-8227198D01*
X5831729Y-8227198D02*
X5822206Y-8236722D01*
X5822206Y-8236722D02*
X5812682Y-8255769D01*
X6050777Y-8141484D02*
X6069825Y-8141484D01*
X6069825Y-8141484D02*
X6088872Y-8151008D01*
X6088872Y-8151008D02*
X6098396Y-8160531D01*
X6098396Y-8160531D02*
X6107920Y-8179579D01*
X6107920Y-8179579D02*
X6117444Y-8217674D01*
X6117444Y-8217674D02*
X6117444Y-8265293D01*
X6117444Y-8265293D02*
X6107920Y-8303388D01*
X6107920Y-8303388D02*
X6098396Y-8322436D01*
X6098396Y-8322436D02*
X6088872Y-8331960D01*
X6088872Y-8331960D02*
X6069825Y-8341484D01*
X6069825Y-8341484D02*
X6050777Y-8341484D01*
X6050777Y-8341484D02*
X6031729Y-8331960D01*
X6031729Y-8331960D02*
X6022206Y-8322436D01*
X6022206Y-8322436D02*
X6012682Y-8303388D01*
X6012682Y-8303388D02*
X6003158Y-8265293D01*
X6003158Y-8265293D02*
X6003158Y-8217674D01*
X6003158Y-8217674D02*
X6012682Y-8179579D01*
X6012682Y-8179579D02*
X6022206Y-8160531D01*
X6022206Y-8160531D02*
X6031729Y-8151008D01*
X6031729Y-8151008D02*
X6050777Y-8141484D01*
X6193634Y-8141484D02*
X6193634Y-8179579D01*
X6269825Y-8141484D02*
X6269825Y-8179579D01*
X6565063Y-8417674D02*
X6555539Y-8408150D01*
X6555539Y-8408150D02*
X6536491Y-8379579D01*
X6536491Y-8379579D02*
X6526968Y-8360531D01*
X6526968Y-8360531D02*
X6517444Y-8331960D01*
X6517444Y-8331960D02*
X6507920Y-8284341D01*
X6507920Y-8284341D02*
X6507920Y-8246246D01*
X6507920Y-8246246D02*
X6517444Y-8198627D01*
X6517444Y-8198627D02*
X6526968Y-8170055D01*
X6526968Y-8170055D02*
X6536491Y-8151008D01*
X6536491Y-8151008D02*
X6555539Y-8122436D01*
X6555539Y-8122436D02*
X6565063Y-8112912D01*
X6726968Y-8141484D02*
X6688872Y-8141484D01*
X6688872Y-8141484D02*
X6669825Y-8151008D01*
X6669825Y-8151008D02*
X6660301Y-8160531D01*
X6660301Y-8160531D02*
X6641253Y-8189103D01*
X6641253Y-8189103D02*
X6631729Y-8227198D01*
X6631729Y-8227198D02*
X6631729Y-8303388D01*
X6631729Y-8303388D02*
X6641253Y-8322436D01*
X6641253Y-8322436D02*
X6650777Y-8331960D01*
X6650777Y-8331960D02*
X6669825Y-8341484D01*
X6669825Y-8341484D02*
X6707920Y-8341484D01*
X6707920Y-8341484D02*
X6726968Y-8331960D01*
X6726968Y-8331960D02*
X6736491Y-8322436D01*
X6736491Y-8322436D02*
X6746015Y-8303388D01*
X6746015Y-8303388D02*
X6746015Y-8255769D01*
X6746015Y-8255769D02*
X6736491Y-8236722D01*
X6736491Y-8236722D02*
X6726968Y-8227198D01*
X6726968Y-8227198D02*
X6707920Y-8217674D01*
X6707920Y-8217674D02*
X6669825Y-8217674D01*
X6669825Y-8217674D02*
X6650777Y-8227198D01*
X6650777Y-8227198D02*
X6641253Y-8236722D01*
X6641253Y-8236722D02*
X6631729Y-8255769D01*
X6984110Y-8341484D02*
X6984110Y-8141484D01*
X7069825Y-8341484D02*
X7069825Y-8236722D01*
X7069825Y-8236722D02*
X7060301Y-8217674D01*
X7060301Y-8217674D02*
X7041253Y-8208150D01*
X7041253Y-8208150D02*
X7012682Y-8208150D01*
X7012682Y-8208150D02*
X6993634Y-8217674D01*
X6993634Y-8217674D02*
X6984110Y-8227198D01*
X7193634Y-8341484D02*
X7174587Y-8331960D01*
X7174587Y-8331960D02*
X7165063Y-8322436D01*
X7165063Y-8322436D02*
X7155539Y-8303388D01*
X7155539Y-8303388D02*
X7155539Y-8246246D01*
X7155539Y-8246246D02*
X7165063Y-8227198D01*
X7165063Y-8227198D02*
X7174587Y-8217674D01*
X7174587Y-8217674D02*
X7193634Y-8208150D01*
X7193634Y-8208150D02*
X7222206Y-8208150D01*
X7222206Y-8208150D02*
X7241253Y-8217674D01*
X7241253Y-8217674D02*
X7250777Y-8227198D01*
X7250777Y-8227198D02*
X7260301Y-8246246D01*
X7260301Y-8246246D02*
X7260301Y-8303388D01*
X7260301Y-8303388D02*
X7250777Y-8322436D01*
X7250777Y-8322436D02*
X7241253Y-8331960D01*
X7241253Y-8331960D02*
X7222206Y-8341484D01*
X7222206Y-8341484D02*
X7193634Y-8341484D01*
X7374587Y-8341484D02*
X7355539Y-8331960D01*
X7355539Y-8331960D02*
X7346015Y-8312912D01*
X7346015Y-8312912D02*
X7346015Y-8141484D01*
X7526968Y-8331960D02*
X7507920Y-8341484D01*
X7507920Y-8341484D02*
X7469825Y-8341484D01*
X7469825Y-8341484D02*
X7450777Y-8331960D01*
X7450777Y-8331960D02*
X7441253Y-8312912D01*
X7441253Y-8312912D02*
X7441253Y-8236722D01*
X7441253Y-8236722D02*
X7450777Y-8217674D01*
X7450777Y-8217674D02*
X7469825Y-8208150D01*
X7469825Y-8208150D02*
X7507920Y-8208150D01*
X7507920Y-8208150D02*
X7526968Y-8217674D01*
X7526968Y-8217674D02*
X7536491Y-8236722D01*
X7536491Y-8236722D02*
X7536491Y-8255769D01*
X7536491Y-8255769D02*
X7441253Y-8274817D01*
X7612682Y-8331960D02*
X7631730Y-8341484D01*
X7631730Y-8341484D02*
X7669825Y-8341484D01*
X7669825Y-8341484D02*
X7688872Y-8331960D01*
X7688872Y-8331960D02*
X7698396Y-8312912D01*
X7698396Y-8312912D02*
X7698396Y-8303388D01*
X7698396Y-8303388D02*
X7688872Y-8284341D01*
X7688872Y-8284341D02*
X7669825Y-8274817D01*
X7669825Y-8274817D02*
X7641253Y-8274817D01*
X7641253Y-8274817D02*
X7622206Y-8265293D01*
X7622206Y-8265293D02*
X7612682Y-8246246D01*
X7612682Y-8246246D02*
X7612682Y-8236722D01*
X7612682Y-8236722D02*
X7622206Y-8217674D01*
X7622206Y-8217674D02*
X7641253Y-8208150D01*
X7641253Y-8208150D02*
X7669825Y-8208150D01*
X7669825Y-8208150D02*
X7688872Y-8217674D01*
X7765063Y-8417674D02*
X7774587Y-8408150D01*
X7774587Y-8408150D02*
X7793634Y-8379579D01*
X7793634Y-8379579D02*
X7803158Y-8360531D01*
X7803158Y-8360531D02*
X7812682Y-8331960D01*
X7812682Y-8331960D02*
X7822206Y-8284341D01*
X7822206Y-8284341D02*
X7822206Y-8246246D01*
X7822206Y-8246246D02*
X7812682Y-8198627D01*
X7812682Y-8198627D02*
X7803158Y-8170055D01*
X7803158Y-8170055D02*
X7793634Y-8151008D01*
X7793634Y-8151008D02*
X7774587Y-8122436D01*
X7774587Y-8122436D02*
X7765063Y-8112912D01*
X8126968Y-8417674D02*
X8117444Y-8408150D01*
X8117444Y-8408150D02*
X8098396Y-8379579D01*
X8098396Y-8379579D02*
X8088872Y-8360531D01*
X8088872Y-8360531D02*
X8079349Y-8331960D01*
X8079349Y-8331960D02*
X8069825Y-8284341D01*
X8069825Y-8284341D02*
X8069825Y-8246246D01*
X8069825Y-8246246D02*
X8079349Y-8198627D01*
X8079349Y-8198627D02*
X8088872Y-8170055D01*
X8088872Y-8170055D02*
X8098396Y-8151008D01*
X8098396Y-8151008D02*
X8117444Y-8122436D01*
X8117444Y-8122436D02*
X8126968Y-8112912D01*
X8203158Y-8208150D02*
X8203158Y-8341484D01*
X8203158Y-8227198D02*
X8212682Y-8217674D01*
X8212682Y-8217674D02*
X8231730Y-8208150D01*
X8231730Y-8208150D02*
X8260301Y-8208150D01*
X8260301Y-8208150D02*
X8279349Y-8217674D01*
X8279349Y-8217674D02*
X8288872Y-8236722D01*
X8288872Y-8236722D02*
X8288872Y-8341484D01*
X8412682Y-8341484D02*
X8393634Y-8331960D01*
X8393634Y-8331960D02*
X8384111Y-8322436D01*
X8384111Y-8322436D02*
X8374587Y-8303388D01*
X8374587Y-8303388D02*
X8374587Y-8246246D01*
X8374587Y-8246246D02*
X8384111Y-8227198D01*
X8384111Y-8227198D02*
X8393634Y-8217674D01*
X8393634Y-8217674D02*
X8412682Y-8208150D01*
X8412682Y-8208150D02*
X8441254Y-8208150D01*
X8441254Y-8208150D02*
X8460301Y-8217674D01*
X8460301Y-8217674D02*
X8469825Y-8227198D01*
X8469825Y-8227198D02*
X8479349Y-8246246D01*
X8479349Y-8246246D02*
X8479349Y-8303388D01*
X8479349Y-8303388D02*
X8469825Y-8322436D01*
X8469825Y-8322436D02*
X8460301Y-8331960D01*
X8460301Y-8331960D02*
X8441254Y-8341484D01*
X8441254Y-8341484D02*
X8412682Y-8341484D01*
X8536492Y-8208150D02*
X8612682Y-8208150D01*
X8565063Y-8141484D02*
X8565063Y-8312912D01*
X8565063Y-8312912D02*
X8574587Y-8331960D01*
X8574587Y-8331960D02*
X8593634Y-8341484D01*
X8593634Y-8341484D02*
X8612682Y-8341484D01*
X8831730Y-8208150D02*
X8831730Y-8408150D01*
X8831730Y-8217674D02*
X8850777Y-8208150D01*
X8850777Y-8208150D02*
X8888873Y-8208150D01*
X8888873Y-8208150D02*
X8907920Y-8217674D01*
X8907920Y-8217674D02*
X8917444Y-8227198D01*
X8917444Y-8227198D02*
X8926968Y-8246246D01*
X8926968Y-8246246D02*
X8926968Y-8303388D01*
X8926968Y-8303388D02*
X8917444Y-8322436D01*
X8917444Y-8322436D02*
X8907920Y-8331960D01*
X8907920Y-8331960D02*
X8888873Y-8341484D01*
X8888873Y-8341484D02*
X8850777Y-8341484D01*
X8850777Y-8341484D02*
X8831730Y-8331960D01*
X9041254Y-8341484D02*
X9022206Y-8331960D01*
X9022206Y-8331960D02*
X9012682Y-8312912D01*
X9012682Y-8312912D02*
X9012682Y-8141484D01*
X9203158Y-8341484D02*
X9203158Y-8236722D01*
X9203158Y-8236722D02*
X9193635Y-8217674D01*
X9193635Y-8217674D02*
X9174587Y-8208150D01*
X9174587Y-8208150D02*
X9136492Y-8208150D01*
X9136492Y-8208150D02*
X9117444Y-8217674D01*
X9203158Y-8331960D02*
X9184111Y-8341484D01*
X9184111Y-8341484D02*
X9136492Y-8341484D01*
X9136492Y-8341484D02*
X9117444Y-8331960D01*
X9117444Y-8331960D02*
X9107920Y-8312912D01*
X9107920Y-8312912D02*
X9107920Y-8293865D01*
X9107920Y-8293865D02*
X9117444Y-8274817D01*
X9117444Y-8274817D02*
X9136492Y-8265293D01*
X9136492Y-8265293D02*
X9184111Y-8265293D01*
X9184111Y-8265293D02*
X9203158Y-8255769D01*
X9269825Y-8208150D02*
X9346015Y-8208150D01*
X9298396Y-8141484D02*
X9298396Y-8312912D01*
X9298396Y-8312912D02*
X9307920Y-8331960D01*
X9307920Y-8331960D02*
X9326968Y-8341484D01*
X9326968Y-8341484D02*
X9346015Y-8341484D01*
X9488873Y-8331960D02*
X9469825Y-8341484D01*
X9469825Y-8341484D02*
X9431730Y-8341484D01*
X9431730Y-8341484D02*
X9412682Y-8331960D01*
X9412682Y-8331960D02*
X9403158Y-8312912D01*
X9403158Y-8312912D02*
X9403158Y-8236722D01*
X9403158Y-8236722D02*
X9412682Y-8217674D01*
X9412682Y-8217674D02*
X9431730Y-8208150D01*
X9431730Y-8208150D02*
X9469825Y-8208150D01*
X9469825Y-8208150D02*
X9488873Y-8217674D01*
X9488873Y-8217674D02*
X9498396Y-8236722D01*
X9498396Y-8236722D02*
X9498396Y-8255769D01*
X9498396Y-8255769D02*
X9403158Y-8274817D01*
X9669825Y-8341484D02*
X9669825Y-8141484D01*
X9669825Y-8331960D02*
X9650777Y-8341484D01*
X9650777Y-8341484D02*
X9612682Y-8341484D01*
X9612682Y-8341484D02*
X9593635Y-8331960D01*
X9593635Y-8331960D02*
X9584111Y-8322436D01*
X9584111Y-8322436D02*
X9574587Y-8303388D01*
X9574587Y-8303388D02*
X9574587Y-8246246D01*
X9574587Y-8246246D02*
X9584111Y-8227198D01*
X9584111Y-8227198D02*
X9593635Y-8217674D01*
X9593635Y-8217674D02*
X9612682Y-8208150D01*
X9612682Y-8208150D02*
X9650777Y-8208150D01*
X9650777Y-8208150D02*
X9669825Y-8217674D01*
X9746016Y-8417674D02*
X9755539Y-8408150D01*
X9755539Y-8408150D02*
X9774587Y-8379579D01*
X9774587Y-8379579D02*
X9784111Y-8360531D01*
X9784111Y-8360531D02*
X9793635Y-8331960D01*
X9793635Y-8331960D02*
X9803158Y-8284341D01*
X9803158Y-8284341D02*
X9803158Y-8246246D01*
X9803158Y-8246246D02*
X9793635Y-8198627D01*
X9793635Y-8198627D02*
X9784111Y-8170055D01*
X9784111Y-8170055D02*
X9774587Y-8151008D01*
X9774587Y-8151008D02*
X9755539Y-8122436D01*
X9755539Y-8122436D02*
X9746016Y-8112912D01*
M02*
