%TF.GenerationSoftware,KiCad,Pcbnew,8.0.1-8.0.1-1~ubuntu22.04.1*%
%TF.CreationDate,2024-05-03T10:54:56-07:00*%
%TF.ProjectId,pifire-ads-board,70696669-7265-42d6-9164-732d626f6172,rev?*%
%TF.SameCoordinates,Original*%
%TF.FileFunction,Drillmap*%
%TF.FilePolarity,Positive*%
%FSLAX45Y45*%
G04 Gerber Fmt 4.5, Leading zero omitted, Abs format (unit mm)*
G04 Created by KiCad (PCBNEW 8.0.1-8.0.1-1~ubuntu22.04.1) date 2024-05-03 10:54:56*
%MOMM*%
%LPD*%
G01*
G04 APERTURE LIST*
%ADD10C,0.200000*%
%ADD11C,0.100000*%
%ADD12C,0.152000*%
G04 APERTURE END LIST*
D10*
X9500000Y-7200000D02*
G75*
G02*
X9100000Y-7600000I-400000J0D01*
G01*
X3000000Y-7200000D02*
X3000000Y-3400000D01*
X9100000Y-7600000D02*
X3400000Y-7600000D01*
X3400000Y-3000000D02*
X9100000Y-3000000D01*
X3400000Y-7600000D02*
G75*
G02*
X3000000Y-7200000I0J400000D01*
G01*
X3000000Y-3400000D02*
G75*
G02*
X3400000Y-3000000I400000J0D01*
G01*
X9500000Y-3400000D02*
X9500000Y-7200000D01*
X9100000Y-3000000D02*
G75*
G02*
X9500000Y-3400000I0J-400000D01*
G01*
D11*
X3865000Y-6925000D02*
X3905000Y-6965000D01*
X3905000Y-6925000D02*
X3865000Y-6965000D01*
X7865000Y-5319000D02*
G75*
G02*
X7785000Y-5319000I-40000J0D01*
G01*
X7785000Y-5319000D02*
G75*
G02*
X7865000Y-5319000I40000J0D01*
G01*
X7865000Y-6081000D02*
G75*
G02*
X7785000Y-6081000I-40000J0D01*
G01*
X7785000Y-6081000D02*
G75*
G02*
X7865000Y-6081000I40000J0D01*
G01*
X8365000Y-5319000D02*
G75*
G02*
X8285000Y-5319000I-40000J0D01*
G01*
X8285000Y-5319000D02*
G75*
G02*
X8365000Y-5319000I40000J0D01*
G01*
X8365000Y-6081000D02*
G75*
G02*
X8285000Y-6081000I-40000J0D01*
G01*
X8285000Y-6081000D02*
G75*
G02*
X8365000Y-6081000I40000J0D01*
G01*
X8865000Y-5319000D02*
G75*
G02*
X8785000Y-5319000I-40000J0D01*
G01*
X8785000Y-5319000D02*
G75*
G02*
X8865000Y-5319000I40000J0D01*
G01*
X8865000Y-6081000D02*
G75*
G02*
X8785000Y-6081000I-40000J0D01*
G01*
X8785000Y-6081000D02*
G75*
G02*
X8865000Y-6081000I40000J0D01*
G01*
X9365000Y-5319000D02*
G75*
G02*
X9285000Y-5319000I-40000J0D01*
G01*
X9285000Y-5319000D02*
G75*
G02*
X9365000Y-5319000I40000J0D01*
G01*
X9365000Y-6081000D02*
G75*
G02*
X9285000Y-6081000I-40000J0D01*
G01*
X9285000Y-6081000D02*
G75*
G02*
X9365000Y-6081000I40000J0D01*
G01*
X3900000Y-4277500D02*
X3900000Y-4372500D01*
X3852500Y-4325000D02*
X3947500Y-4325000D01*
X3900000Y-4527500D02*
X3900000Y-4622500D01*
X3852500Y-4575000D02*
X3947500Y-4575000D01*
X3900000Y-4777500D02*
X3900000Y-4872500D01*
X3852500Y-4825000D02*
X3947500Y-4825000D01*
X3900000Y-5027500D02*
X3900000Y-5122500D01*
X3852500Y-5075000D02*
X3947500Y-5075000D01*
X3900000Y-5702500D02*
X3900000Y-5797500D01*
X3852500Y-5750000D02*
X3947500Y-5750000D01*
X3900000Y-5952500D02*
X3900000Y-6047500D01*
X3852500Y-6000000D02*
X3947500Y-6000000D01*
X3900000Y-6202500D02*
X3900000Y-6297500D01*
X3852500Y-6250000D02*
X3947500Y-6250000D01*
X3900000Y-6452500D02*
X3900000Y-6547500D01*
X3852500Y-6500000D02*
X3947500Y-6500000D01*
X4885356Y-4535356D02*
X4885356Y-4464644D01*
X4814644Y-4464644D01*
X4814644Y-4535356D01*
X4885356Y-4535356D01*
X4896156Y-6835356D02*
X4896156Y-6764644D01*
X4825444Y-6764644D01*
X4825444Y-6835356D01*
X4896156Y-6835356D01*
X5135356Y-4535356D02*
X5135356Y-4464644D01*
X5064644Y-4464644D01*
X5064644Y-4535356D01*
X5135356Y-4535356D01*
X5150156Y-6835356D02*
X5150156Y-6764644D01*
X5079444Y-6764644D01*
X5079444Y-6835356D01*
X5150156Y-6835356D01*
X5404156Y-6835356D02*
X5404156Y-6764644D01*
X5333444Y-6764644D01*
X5333444Y-6835356D01*
X5404156Y-6835356D01*
X5658156Y-6835356D02*
X5658156Y-6764644D01*
X5587444Y-6764644D01*
X5587444Y-6835356D01*
X5658156Y-6835356D01*
X5785356Y-4535356D02*
X5785356Y-4464644D01*
X5714644Y-4464644D01*
X5714644Y-4535356D01*
X5785356Y-4535356D01*
X5912156Y-6835356D02*
X5912156Y-6764644D01*
X5841444Y-6764644D01*
X5841444Y-6835356D01*
X5912156Y-6835356D01*
X6035356Y-4535356D02*
X6035356Y-4464644D01*
X5964644Y-4464644D01*
X5964644Y-4535356D01*
X6035356Y-4535356D01*
X6166156Y-6835356D02*
X6166156Y-6764644D01*
X6095444Y-6764644D01*
X6095444Y-6835356D01*
X6166156Y-6835356D01*
X6420156Y-6835356D02*
X6420156Y-6764644D01*
X6349444Y-6764644D01*
X6349444Y-6835356D01*
X6420156Y-6835356D01*
X6674156Y-6835356D02*
X6674156Y-6764644D01*
X6603444Y-6764644D01*
X6603444Y-6835356D01*
X6674156Y-6835356D01*
X6685356Y-4535356D02*
X6685356Y-4464644D01*
X6614644Y-4464644D01*
X6614644Y-4535356D01*
X6685356Y-4535356D01*
X6928156Y-6835356D02*
X6928156Y-6764644D01*
X6857444Y-6764644D01*
X6857444Y-6835356D01*
X6928156Y-6835356D01*
X6935356Y-4535356D02*
X6935356Y-4464644D01*
X6864644Y-4464644D01*
X6864644Y-4535356D01*
X6935356Y-4535356D01*
X7182156Y-6835356D02*
X7182156Y-6764644D01*
X7111444Y-6764644D01*
X7111444Y-6835356D01*
X7182156Y-6835356D01*
X7585356Y-4535356D02*
X7585356Y-4464644D01*
X7514644Y-4464644D01*
X7514644Y-4535356D01*
X7585356Y-4535356D01*
X7835356Y-4535356D02*
X7835356Y-4464644D01*
X7764644Y-4464644D01*
X7764644Y-4535356D01*
X7835356Y-4535356D01*
D12*
X4412400Y-3576000D02*
X4488400Y-3500000D01*
X4412400Y-3424000D01*
X4336400Y-3500000D01*
X4412400Y-3576000D01*
X4920400Y-3576000D02*
X4996400Y-3500000D01*
X4920400Y-3424000D01*
X4844400Y-3500000D01*
X4920400Y-3576000D01*
X5479200Y-3576000D02*
X5555200Y-3500000D01*
X5479200Y-3424000D01*
X5403200Y-3500000D01*
X5479200Y-3576000D01*
X5987200Y-3576000D02*
X6063200Y-3500000D01*
X5987200Y-3424000D01*
X5911200Y-3500000D01*
X5987200Y-3576000D01*
X6546000Y-3576000D02*
X6622000Y-3500000D01*
X6546000Y-3424000D01*
X6470000Y-3500000D01*
X6546000Y-3576000D01*
X7054000Y-3576000D02*
X7130000Y-3500000D01*
X7054000Y-3424000D01*
X6978000Y-3500000D01*
X7054000Y-3576000D01*
X7612800Y-3576000D02*
X7688800Y-3500000D01*
X7612800Y-3424000D01*
X7536800Y-3500000D01*
X7612800Y-3576000D01*
X8120800Y-3576000D02*
X8196800Y-3500000D01*
X8120800Y-3424000D01*
X8044800Y-3500000D01*
X8120800Y-3576000D01*
D10*
X3250777Y-7921484D02*
X3250777Y-7721484D01*
X3250777Y-7721484D02*
X3298396Y-7721484D01*
X3298396Y-7721484D02*
X3326967Y-7731008D01*
X3326967Y-7731008D02*
X3346015Y-7750055D01*
X3346015Y-7750055D02*
X3355539Y-7769103D01*
X3355539Y-7769103D02*
X3365062Y-7807198D01*
X3365062Y-7807198D02*
X3365062Y-7835769D01*
X3365062Y-7835769D02*
X3355539Y-7873865D01*
X3355539Y-7873865D02*
X3346015Y-7892912D01*
X3346015Y-7892912D02*
X3326967Y-7911960D01*
X3326967Y-7911960D02*
X3298396Y-7921484D01*
X3298396Y-7921484D02*
X3250777Y-7921484D01*
X3450777Y-7921484D02*
X3450777Y-7788150D01*
X3450777Y-7826246D02*
X3460301Y-7807198D01*
X3460301Y-7807198D02*
X3469824Y-7797674D01*
X3469824Y-7797674D02*
X3488872Y-7788150D01*
X3488872Y-7788150D02*
X3507920Y-7788150D01*
X3574586Y-7921484D02*
X3574586Y-7788150D01*
X3574586Y-7721484D02*
X3565062Y-7731008D01*
X3565062Y-7731008D02*
X3574586Y-7740531D01*
X3574586Y-7740531D02*
X3584110Y-7731008D01*
X3584110Y-7731008D02*
X3574586Y-7721484D01*
X3574586Y-7721484D02*
X3574586Y-7740531D01*
X3698396Y-7921484D02*
X3679348Y-7911960D01*
X3679348Y-7911960D02*
X3669824Y-7892912D01*
X3669824Y-7892912D02*
X3669824Y-7721484D01*
X3803158Y-7921484D02*
X3784110Y-7911960D01*
X3784110Y-7911960D02*
X3774586Y-7892912D01*
X3774586Y-7892912D02*
X3774586Y-7721484D01*
X4031729Y-7921484D02*
X4031729Y-7721484D01*
X4031729Y-7721484D02*
X4098396Y-7864341D01*
X4098396Y-7864341D02*
X4165062Y-7721484D01*
X4165062Y-7721484D02*
X4165062Y-7921484D01*
X4346015Y-7921484D02*
X4346015Y-7816722D01*
X4346015Y-7816722D02*
X4336491Y-7797674D01*
X4336491Y-7797674D02*
X4317444Y-7788150D01*
X4317444Y-7788150D02*
X4279348Y-7788150D01*
X4279348Y-7788150D02*
X4260301Y-7797674D01*
X4346015Y-7911960D02*
X4326967Y-7921484D01*
X4326967Y-7921484D02*
X4279348Y-7921484D01*
X4279348Y-7921484D02*
X4260301Y-7911960D01*
X4260301Y-7911960D02*
X4250777Y-7892912D01*
X4250777Y-7892912D02*
X4250777Y-7873865D01*
X4250777Y-7873865D02*
X4260301Y-7854817D01*
X4260301Y-7854817D02*
X4279348Y-7845293D01*
X4279348Y-7845293D02*
X4326967Y-7845293D01*
X4326967Y-7845293D02*
X4346015Y-7835769D01*
X4441253Y-7788150D02*
X4441253Y-7988150D01*
X4441253Y-7797674D02*
X4460301Y-7788150D01*
X4460301Y-7788150D02*
X4498396Y-7788150D01*
X4498396Y-7788150D02*
X4517444Y-7797674D01*
X4517444Y-7797674D02*
X4526967Y-7807198D01*
X4526967Y-7807198D02*
X4536491Y-7826246D01*
X4536491Y-7826246D02*
X4536491Y-7883388D01*
X4536491Y-7883388D02*
X4526967Y-7902436D01*
X4526967Y-7902436D02*
X4517444Y-7911960D01*
X4517444Y-7911960D02*
X4498396Y-7921484D01*
X4498396Y-7921484D02*
X4460301Y-7921484D01*
X4460301Y-7921484D02*
X4441253Y-7911960D01*
X4622205Y-7902436D02*
X4631729Y-7911960D01*
X4631729Y-7911960D02*
X4622205Y-7921484D01*
X4622205Y-7921484D02*
X4612682Y-7911960D01*
X4612682Y-7911960D02*
X4622205Y-7902436D01*
X4622205Y-7902436D02*
X4622205Y-7921484D01*
X4622205Y-7797674D02*
X4631729Y-7807198D01*
X4631729Y-7807198D02*
X4622205Y-7816722D01*
X4622205Y-7816722D02*
X4612682Y-7807198D01*
X4612682Y-7807198D02*
X4622205Y-7797674D01*
X4622205Y-7797674D02*
X4622205Y-7816722D01*
D11*
X2950000Y-8230000D02*
X2990000Y-8270000D01*
X2990000Y-8230000D02*
X2950000Y-8270000D01*
D10*
X3288872Y-8141484D02*
X3307920Y-8141484D01*
X3307920Y-8141484D02*
X3326967Y-8151008D01*
X3326967Y-8151008D02*
X3336491Y-8160531D01*
X3336491Y-8160531D02*
X3346015Y-8179579D01*
X3346015Y-8179579D02*
X3355539Y-8217674D01*
X3355539Y-8217674D02*
X3355539Y-8265293D01*
X3355539Y-8265293D02*
X3346015Y-8303388D01*
X3346015Y-8303388D02*
X3336491Y-8322436D01*
X3336491Y-8322436D02*
X3326967Y-8331960D01*
X3326967Y-8331960D02*
X3307920Y-8341484D01*
X3307920Y-8341484D02*
X3288872Y-8341484D01*
X3288872Y-8341484D02*
X3269824Y-8331960D01*
X3269824Y-8331960D02*
X3260301Y-8322436D01*
X3260301Y-8322436D02*
X3250777Y-8303388D01*
X3250777Y-8303388D02*
X3241253Y-8265293D01*
X3241253Y-8265293D02*
X3241253Y-8217674D01*
X3241253Y-8217674D02*
X3250777Y-8179579D01*
X3250777Y-8179579D02*
X3260301Y-8160531D01*
X3260301Y-8160531D02*
X3269824Y-8151008D01*
X3269824Y-8151008D02*
X3288872Y-8141484D01*
X3441253Y-8322436D02*
X3450777Y-8331960D01*
X3450777Y-8331960D02*
X3441253Y-8341484D01*
X3441253Y-8341484D02*
X3431729Y-8331960D01*
X3431729Y-8331960D02*
X3441253Y-8322436D01*
X3441253Y-8322436D02*
X3441253Y-8341484D01*
X3622205Y-8208150D02*
X3622205Y-8341484D01*
X3574586Y-8131960D02*
X3526967Y-8274817D01*
X3526967Y-8274817D02*
X3650777Y-8274817D01*
X3765062Y-8141484D02*
X3784110Y-8141484D01*
X3784110Y-8141484D02*
X3803158Y-8151008D01*
X3803158Y-8151008D02*
X3812682Y-8160531D01*
X3812682Y-8160531D02*
X3822205Y-8179579D01*
X3822205Y-8179579D02*
X3831729Y-8217674D01*
X3831729Y-8217674D02*
X3831729Y-8265293D01*
X3831729Y-8265293D02*
X3822205Y-8303388D01*
X3822205Y-8303388D02*
X3812682Y-8322436D01*
X3812682Y-8322436D02*
X3803158Y-8331960D01*
X3803158Y-8331960D02*
X3784110Y-8341484D01*
X3784110Y-8341484D02*
X3765062Y-8341484D01*
X3765062Y-8341484D02*
X3746015Y-8331960D01*
X3746015Y-8331960D02*
X3736491Y-8322436D01*
X3736491Y-8322436D02*
X3726967Y-8303388D01*
X3726967Y-8303388D02*
X3717443Y-8265293D01*
X3717443Y-8265293D02*
X3717443Y-8217674D01*
X3717443Y-8217674D02*
X3726967Y-8179579D01*
X3726967Y-8179579D02*
X3736491Y-8160531D01*
X3736491Y-8160531D02*
X3746015Y-8151008D01*
X3746015Y-8151008D02*
X3765062Y-8141484D01*
X3955539Y-8141484D02*
X3974586Y-8141484D01*
X3974586Y-8141484D02*
X3993634Y-8151008D01*
X3993634Y-8151008D02*
X4003158Y-8160531D01*
X4003158Y-8160531D02*
X4012682Y-8179579D01*
X4012682Y-8179579D02*
X4022205Y-8217674D01*
X4022205Y-8217674D02*
X4022205Y-8265293D01*
X4022205Y-8265293D02*
X4012682Y-8303388D01*
X4012682Y-8303388D02*
X4003158Y-8322436D01*
X4003158Y-8322436D02*
X3993634Y-8331960D01*
X3993634Y-8331960D02*
X3974586Y-8341484D01*
X3974586Y-8341484D02*
X3955539Y-8341484D01*
X3955539Y-8341484D02*
X3936491Y-8331960D01*
X3936491Y-8331960D02*
X3926967Y-8322436D01*
X3926967Y-8322436D02*
X3917443Y-8303388D01*
X3917443Y-8303388D02*
X3907920Y-8265293D01*
X3907920Y-8265293D02*
X3907920Y-8217674D01*
X3907920Y-8217674D02*
X3917443Y-8179579D01*
X3917443Y-8179579D02*
X3926967Y-8160531D01*
X3926967Y-8160531D02*
X3936491Y-8151008D01*
X3936491Y-8151008D02*
X3955539Y-8141484D01*
X4107920Y-8341484D02*
X4107920Y-8208150D01*
X4107920Y-8227198D02*
X4117443Y-8217674D01*
X4117443Y-8217674D02*
X4136491Y-8208150D01*
X4136491Y-8208150D02*
X4165063Y-8208150D01*
X4165063Y-8208150D02*
X4184110Y-8217674D01*
X4184110Y-8217674D02*
X4193634Y-8236722D01*
X4193634Y-8236722D02*
X4193634Y-8341484D01*
X4193634Y-8236722D02*
X4203158Y-8217674D01*
X4203158Y-8217674D02*
X4222205Y-8208150D01*
X4222205Y-8208150D02*
X4250777Y-8208150D01*
X4250777Y-8208150D02*
X4269825Y-8217674D01*
X4269825Y-8217674D02*
X4279348Y-8236722D01*
X4279348Y-8236722D02*
X4279348Y-8341484D01*
X4374586Y-8341484D02*
X4374586Y-8208150D01*
X4374586Y-8227198D02*
X4384110Y-8217674D01*
X4384110Y-8217674D02*
X4403158Y-8208150D01*
X4403158Y-8208150D02*
X4431729Y-8208150D01*
X4431729Y-8208150D02*
X4450777Y-8217674D01*
X4450777Y-8217674D02*
X4460301Y-8236722D01*
X4460301Y-8236722D02*
X4460301Y-8341484D01*
X4460301Y-8236722D02*
X4469825Y-8217674D01*
X4469825Y-8217674D02*
X4488872Y-8208150D01*
X4488872Y-8208150D02*
X4517444Y-8208150D01*
X4517444Y-8208150D02*
X4536491Y-8217674D01*
X4536491Y-8217674D02*
X4546015Y-8236722D01*
X4546015Y-8236722D02*
X4546015Y-8341484D01*
X4936491Y-8131960D02*
X4765063Y-8389103D01*
X5193634Y-8141484D02*
X5212682Y-8141484D01*
X5212682Y-8141484D02*
X5231729Y-8151008D01*
X5231729Y-8151008D02*
X5241253Y-8160531D01*
X5241253Y-8160531D02*
X5250777Y-8179579D01*
X5250777Y-8179579D02*
X5260301Y-8217674D01*
X5260301Y-8217674D02*
X5260301Y-8265293D01*
X5260301Y-8265293D02*
X5250777Y-8303388D01*
X5250777Y-8303388D02*
X5241253Y-8322436D01*
X5241253Y-8322436D02*
X5231729Y-8331960D01*
X5231729Y-8331960D02*
X5212682Y-8341484D01*
X5212682Y-8341484D02*
X5193634Y-8341484D01*
X5193634Y-8341484D02*
X5174587Y-8331960D01*
X5174587Y-8331960D02*
X5165063Y-8322436D01*
X5165063Y-8322436D02*
X5155539Y-8303388D01*
X5155539Y-8303388D02*
X5146015Y-8265293D01*
X5146015Y-8265293D02*
X5146015Y-8217674D01*
X5146015Y-8217674D02*
X5155539Y-8179579D01*
X5155539Y-8179579D02*
X5165063Y-8160531D01*
X5165063Y-8160531D02*
X5174587Y-8151008D01*
X5174587Y-8151008D02*
X5193634Y-8141484D01*
X5346015Y-8322436D02*
X5355539Y-8331960D01*
X5355539Y-8331960D02*
X5346015Y-8341484D01*
X5346015Y-8341484D02*
X5336491Y-8331960D01*
X5336491Y-8331960D02*
X5346015Y-8322436D01*
X5346015Y-8322436D02*
X5346015Y-8341484D01*
X5479348Y-8141484D02*
X5498396Y-8141484D01*
X5498396Y-8141484D02*
X5517444Y-8151008D01*
X5517444Y-8151008D02*
X5526968Y-8160531D01*
X5526968Y-8160531D02*
X5536491Y-8179579D01*
X5536491Y-8179579D02*
X5546015Y-8217674D01*
X5546015Y-8217674D02*
X5546015Y-8265293D01*
X5546015Y-8265293D02*
X5536491Y-8303388D01*
X5536491Y-8303388D02*
X5526968Y-8322436D01*
X5526968Y-8322436D02*
X5517444Y-8331960D01*
X5517444Y-8331960D02*
X5498396Y-8341484D01*
X5498396Y-8341484D02*
X5479348Y-8341484D01*
X5479348Y-8341484D02*
X5460301Y-8331960D01*
X5460301Y-8331960D02*
X5450777Y-8322436D01*
X5450777Y-8322436D02*
X5441253Y-8303388D01*
X5441253Y-8303388D02*
X5431729Y-8265293D01*
X5431729Y-8265293D02*
X5431729Y-8217674D01*
X5431729Y-8217674D02*
X5441253Y-8179579D01*
X5441253Y-8179579D02*
X5450777Y-8160531D01*
X5450777Y-8160531D02*
X5460301Y-8151008D01*
X5460301Y-8151008D02*
X5479348Y-8141484D01*
X5736491Y-8341484D02*
X5622206Y-8341484D01*
X5679348Y-8341484D02*
X5679348Y-8141484D01*
X5679348Y-8141484D02*
X5660301Y-8170055D01*
X5660301Y-8170055D02*
X5641253Y-8189103D01*
X5641253Y-8189103D02*
X5622206Y-8198627D01*
X5917444Y-8141484D02*
X5822206Y-8141484D01*
X5822206Y-8141484D02*
X5812682Y-8236722D01*
X5812682Y-8236722D02*
X5822206Y-8227198D01*
X5822206Y-8227198D02*
X5841253Y-8217674D01*
X5841253Y-8217674D02*
X5888872Y-8217674D01*
X5888872Y-8217674D02*
X5907920Y-8227198D01*
X5907920Y-8227198D02*
X5917444Y-8236722D01*
X5917444Y-8236722D02*
X5926967Y-8255769D01*
X5926967Y-8255769D02*
X5926967Y-8303388D01*
X5926967Y-8303388D02*
X5917444Y-8322436D01*
X5917444Y-8322436D02*
X5907920Y-8331960D01*
X5907920Y-8331960D02*
X5888872Y-8341484D01*
X5888872Y-8341484D02*
X5841253Y-8341484D01*
X5841253Y-8341484D02*
X5822206Y-8331960D01*
X5822206Y-8331960D02*
X5812682Y-8322436D01*
X5993634Y-8141484D02*
X6126967Y-8141484D01*
X6126967Y-8141484D02*
X6041253Y-8341484D01*
X6193634Y-8141484D02*
X6193634Y-8179579D01*
X6269825Y-8141484D02*
X6269825Y-8179579D01*
X6565063Y-8417674D02*
X6555539Y-8408150D01*
X6555539Y-8408150D02*
X6536491Y-8379579D01*
X6536491Y-8379579D02*
X6526968Y-8360531D01*
X6526968Y-8360531D02*
X6517444Y-8331960D01*
X6517444Y-8331960D02*
X6507920Y-8284341D01*
X6507920Y-8284341D02*
X6507920Y-8246246D01*
X6507920Y-8246246D02*
X6517444Y-8198627D01*
X6517444Y-8198627D02*
X6526968Y-8170055D01*
X6526968Y-8170055D02*
X6536491Y-8151008D01*
X6536491Y-8151008D02*
X6555539Y-8122436D01*
X6555539Y-8122436D02*
X6565063Y-8112912D01*
X6746015Y-8341484D02*
X6631729Y-8341484D01*
X6688872Y-8341484D02*
X6688872Y-8141484D01*
X6688872Y-8141484D02*
X6669825Y-8170055D01*
X6669825Y-8170055D02*
X6650777Y-8189103D01*
X6650777Y-8189103D02*
X6631729Y-8198627D01*
X6984110Y-8341484D02*
X6984110Y-8141484D01*
X7069825Y-8341484D02*
X7069825Y-8236722D01*
X7069825Y-8236722D02*
X7060301Y-8217674D01*
X7060301Y-8217674D02*
X7041253Y-8208150D01*
X7041253Y-8208150D02*
X7012682Y-8208150D01*
X7012682Y-8208150D02*
X6993634Y-8217674D01*
X6993634Y-8217674D02*
X6984110Y-8227198D01*
X7193634Y-8341484D02*
X7174587Y-8331960D01*
X7174587Y-8331960D02*
X7165063Y-8322436D01*
X7165063Y-8322436D02*
X7155539Y-8303388D01*
X7155539Y-8303388D02*
X7155539Y-8246246D01*
X7155539Y-8246246D02*
X7165063Y-8227198D01*
X7165063Y-8227198D02*
X7174587Y-8217674D01*
X7174587Y-8217674D02*
X7193634Y-8208150D01*
X7193634Y-8208150D02*
X7222206Y-8208150D01*
X7222206Y-8208150D02*
X7241253Y-8217674D01*
X7241253Y-8217674D02*
X7250777Y-8227198D01*
X7250777Y-8227198D02*
X7260301Y-8246246D01*
X7260301Y-8246246D02*
X7260301Y-8303388D01*
X7260301Y-8303388D02*
X7250777Y-8322436D01*
X7250777Y-8322436D02*
X7241253Y-8331960D01*
X7241253Y-8331960D02*
X7222206Y-8341484D01*
X7222206Y-8341484D02*
X7193634Y-8341484D01*
X7374587Y-8341484D02*
X7355539Y-8331960D01*
X7355539Y-8331960D02*
X7346015Y-8312912D01*
X7346015Y-8312912D02*
X7346015Y-8141484D01*
X7526968Y-8331960D02*
X7507920Y-8341484D01*
X7507920Y-8341484D02*
X7469825Y-8341484D01*
X7469825Y-8341484D02*
X7450777Y-8331960D01*
X7450777Y-8331960D02*
X7441253Y-8312912D01*
X7441253Y-8312912D02*
X7441253Y-8236722D01*
X7441253Y-8236722D02*
X7450777Y-8217674D01*
X7450777Y-8217674D02*
X7469825Y-8208150D01*
X7469825Y-8208150D02*
X7507920Y-8208150D01*
X7507920Y-8208150D02*
X7526968Y-8217674D01*
X7526968Y-8217674D02*
X7536491Y-8236722D01*
X7536491Y-8236722D02*
X7536491Y-8255769D01*
X7536491Y-8255769D02*
X7441253Y-8274817D01*
X7603158Y-8417674D02*
X7612682Y-8408150D01*
X7612682Y-8408150D02*
X7631730Y-8379579D01*
X7631730Y-8379579D02*
X7641253Y-8360531D01*
X7641253Y-8360531D02*
X7650777Y-8331960D01*
X7650777Y-8331960D02*
X7660301Y-8284341D01*
X7660301Y-8284341D02*
X7660301Y-8246246D01*
X7660301Y-8246246D02*
X7650777Y-8198627D01*
X7650777Y-8198627D02*
X7641253Y-8170055D01*
X7641253Y-8170055D02*
X7631730Y-8151008D01*
X7631730Y-8151008D02*
X7612682Y-8122436D01*
X7612682Y-8122436D02*
X7603158Y-8112912D01*
D11*
X2990000Y-8514000D02*
G75*
G02*
X2910000Y-8514000I-40000J0D01*
G01*
X2910000Y-8514000D02*
G75*
G02*
X2990000Y-8514000I40000J0D01*
G01*
D10*
X3288872Y-8405484D02*
X3307920Y-8405484D01*
X3307920Y-8405484D02*
X3326967Y-8415008D01*
X3326967Y-8415008D02*
X3336491Y-8424531D01*
X3336491Y-8424531D02*
X3346015Y-8443579D01*
X3346015Y-8443579D02*
X3355539Y-8481674D01*
X3355539Y-8481674D02*
X3355539Y-8529293D01*
X3355539Y-8529293D02*
X3346015Y-8567389D01*
X3346015Y-8567389D02*
X3336491Y-8586436D01*
X3336491Y-8586436D02*
X3326967Y-8595960D01*
X3326967Y-8595960D02*
X3307920Y-8605484D01*
X3307920Y-8605484D02*
X3288872Y-8605484D01*
X3288872Y-8605484D02*
X3269824Y-8595960D01*
X3269824Y-8595960D02*
X3260301Y-8586436D01*
X3260301Y-8586436D02*
X3250777Y-8567389D01*
X3250777Y-8567389D02*
X3241253Y-8529293D01*
X3241253Y-8529293D02*
X3241253Y-8481674D01*
X3241253Y-8481674D02*
X3250777Y-8443579D01*
X3250777Y-8443579D02*
X3260301Y-8424531D01*
X3260301Y-8424531D02*
X3269824Y-8415008D01*
X3269824Y-8415008D02*
X3288872Y-8405484D01*
X3441253Y-8586436D02*
X3450777Y-8595960D01*
X3450777Y-8595960D02*
X3441253Y-8605484D01*
X3441253Y-8605484D02*
X3431729Y-8595960D01*
X3431729Y-8595960D02*
X3441253Y-8586436D01*
X3441253Y-8586436D02*
X3441253Y-8605484D01*
X3565062Y-8491198D02*
X3546015Y-8481674D01*
X3546015Y-8481674D02*
X3536491Y-8472150D01*
X3536491Y-8472150D02*
X3526967Y-8453103D01*
X3526967Y-8453103D02*
X3526967Y-8443579D01*
X3526967Y-8443579D02*
X3536491Y-8424531D01*
X3536491Y-8424531D02*
X3546015Y-8415008D01*
X3546015Y-8415008D02*
X3565062Y-8405484D01*
X3565062Y-8405484D02*
X3603158Y-8405484D01*
X3603158Y-8405484D02*
X3622205Y-8415008D01*
X3622205Y-8415008D02*
X3631729Y-8424531D01*
X3631729Y-8424531D02*
X3641253Y-8443579D01*
X3641253Y-8443579D02*
X3641253Y-8453103D01*
X3641253Y-8453103D02*
X3631729Y-8472150D01*
X3631729Y-8472150D02*
X3622205Y-8481674D01*
X3622205Y-8481674D02*
X3603158Y-8491198D01*
X3603158Y-8491198D02*
X3565062Y-8491198D01*
X3565062Y-8491198D02*
X3546015Y-8500722D01*
X3546015Y-8500722D02*
X3536491Y-8510246D01*
X3536491Y-8510246D02*
X3526967Y-8529293D01*
X3526967Y-8529293D02*
X3526967Y-8567389D01*
X3526967Y-8567389D02*
X3536491Y-8586436D01*
X3536491Y-8586436D02*
X3546015Y-8595960D01*
X3546015Y-8595960D02*
X3565062Y-8605484D01*
X3565062Y-8605484D02*
X3603158Y-8605484D01*
X3603158Y-8605484D02*
X3622205Y-8595960D01*
X3622205Y-8595960D02*
X3631729Y-8586436D01*
X3631729Y-8586436D02*
X3641253Y-8567389D01*
X3641253Y-8567389D02*
X3641253Y-8529293D01*
X3641253Y-8529293D02*
X3631729Y-8510246D01*
X3631729Y-8510246D02*
X3622205Y-8500722D01*
X3622205Y-8500722D02*
X3603158Y-8491198D01*
X3765062Y-8405484D02*
X3784110Y-8405484D01*
X3784110Y-8405484D02*
X3803158Y-8415008D01*
X3803158Y-8415008D02*
X3812682Y-8424531D01*
X3812682Y-8424531D02*
X3822205Y-8443579D01*
X3822205Y-8443579D02*
X3831729Y-8481674D01*
X3831729Y-8481674D02*
X3831729Y-8529293D01*
X3831729Y-8529293D02*
X3822205Y-8567389D01*
X3822205Y-8567389D02*
X3812682Y-8586436D01*
X3812682Y-8586436D02*
X3803158Y-8595960D01*
X3803158Y-8595960D02*
X3784110Y-8605484D01*
X3784110Y-8605484D02*
X3765062Y-8605484D01*
X3765062Y-8605484D02*
X3746015Y-8595960D01*
X3746015Y-8595960D02*
X3736491Y-8586436D01*
X3736491Y-8586436D02*
X3726967Y-8567389D01*
X3726967Y-8567389D02*
X3717443Y-8529293D01*
X3717443Y-8529293D02*
X3717443Y-8481674D01*
X3717443Y-8481674D02*
X3726967Y-8443579D01*
X3726967Y-8443579D02*
X3736491Y-8424531D01*
X3736491Y-8424531D02*
X3746015Y-8415008D01*
X3746015Y-8415008D02*
X3765062Y-8405484D01*
X3955539Y-8405484D02*
X3974586Y-8405484D01*
X3974586Y-8405484D02*
X3993634Y-8415008D01*
X3993634Y-8415008D02*
X4003158Y-8424531D01*
X4003158Y-8424531D02*
X4012682Y-8443579D01*
X4012682Y-8443579D02*
X4022205Y-8481674D01*
X4022205Y-8481674D02*
X4022205Y-8529293D01*
X4022205Y-8529293D02*
X4012682Y-8567389D01*
X4012682Y-8567389D02*
X4003158Y-8586436D01*
X4003158Y-8586436D02*
X3993634Y-8595960D01*
X3993634Y-8595960D02*
X3974586Y-8605484D01*
X3974586Y-8605484D02*
X3955539Y-8605484D01*
X3955539Y-8605484D02*
X3936491Y-8595960D01*
X3936491Y-8595960D02*
X3926967Y-8586436D01*
X3926967Y-8586436D02*
X3917443Y-8567389D01*
X3917443Y-8567389D02*
X3907920Y-8529293D01*
X3907920Y-8529293D02*
X3907920Y-8481674D01*
X3907920Y-8481674D02*
X3917443Y-8443579D01*
X3917443Y-8443579D02*
X3926967Y-8424531D01*
X3926967Y-8424531D02*
X3936491Y-8415008D01*
X3936491Y-8415008D02*
X3955539Y-8405484D01*
X4107920Y-8605484D02*
X4107920Y-8472150D01*
X4107920Y-8491198D02*
X4117443Y-8481674D01*
X4117443Y-8481674D02*
X4136491Y-8472150D01*
X4136491Y-8472150D02*
X4165063Y-8472150D01*
X4165063Y-8472150D02*
X4184110Y-8481674D01*
X4184110Y-8481674D02*
X4193634Y-8500722D01*
X4193634Y-8500722D02*
X4193634Y-8605484D01*
X4193634Y-8500722D02*
X4203158Y-8481674D01*
X4203158Y-8481674D02*
X4222205Y-8472150D01*
X4222205Y-8472150D02*
X4250777Y-8472150D01*
X4250777Y-8472150D02*
X4269825Y-8481674D01*
X4269825Y-8481674D02*
X4279348Y-8500722D01*
X4279348Y-8500722D02*
X4279348Y-8605484D01*
X4374586Y-8605484D02*
X4374586Y-8472150D01*
X4374586Y-8491198D02*
X4384110Y-8481674D01*
X4384110Y-8481674D02*
X4403158Y-8472150D01*
X4403158Y-8472150D02*
X4431729Y-8472150D01*
X4431729Y-8472150D02*
X4450777Y-8481674D01*
X4450777Y-8481674D02*
X4460301Y-8500722D01*
X4460301Y-8500722D02*
X4460301Y-8605484D01*
X4460301Y-8500722D02*
X4469825Y-8481674D01*
X4469825Y-8481674D02*
X4488872Y-8472150D01*
X4488872Y-8472150D02*
X4517444Y-8472150D01*
X4517444Y-8472150D02*
X4536491Y-8481674D01*
X4536491Y-8481674D02*
X4546015Y-8500722D01*
X4546015Y-8500722D02*
X4546015Y-8605484D01*
X4936491Y-8395960D02*
X4765063Y-8653103D01*
X5193634Y-8405484D02*
X5212682Y-8405484D01*
X5212682Y-8405484D02*
X5231729Y-8415008D01*
X5231729Y-8415008D02*
X5241253Y-8424531D01*
X5241253Y-8424531D02*
X5250777Y-8443579D01*
X5250777Y-8443579D02*
X5260301Y-8481674D01*
X5260301Y-8481674D02*
X5260301Y-8529293D01*
X5260301Y-8529293D02*
X5250777Y-8567389D01*
X5250777Y-8567389D02*
X5241253Y-8586436D01*
X5241253Y-8586436D02*
X5231729Y-8595960D01*
X5231729Y-8595960D02*
X5212682Y-8605484D01*
X5212682Y-8605484D02*
X5193634Y-8605484D01*
X5193634Y-8605484D02*
X5174587Y-8595960D01*
X5174587Y-8595960D02*
X5165063Y-8586436D01*
X5165063Y-8586436D02*
X5155539Y-8567389D01*
X5155539Y-8567389D02*
X5146015Y-8529293D01*
X5146015Y-8529293D02*
X5146015Y-8481674D01*
X5146015Y-8481674D02*
X5155539Y-8443579D01*
X5155539Y-8443579D02*
X5165063Y-8424531D01*
X5165063Y-8424531D02*
X5174587Y-8415008D01*
X5174587Y-8415008D02*
X5193634Y-8405484D01*
X5346015Y-8586436D02*
X5355539Y-8595960D01*
X5355539Y-8595960D02*
X5346015Y-8605484D01*
X5346015Y-8605484D02*
X5336491Y-8595960D01*
X5336491Y-8595960D02*
X5346015Y-8586436D01*
X5346015Y-8586436D02*
X5346015Y-8605484D01*
X5479348Y-8405484D02*
X5498396Y-8405484D01*
X5498396Y-8405484D02*
X5517444Y-8415008D01*
X5517444Y-8415008D02*
X5526968Y-8424531D01*
X5526968Y-8424531D02*
X5536491Y-8443579D01*
X5536491Y-8443579D02*
X5546015Y-8481674D01*
X5546015Y-8481674D02*
X5546015Y-8529293D01*
X5546015Y-8529293D02*
X5536491Y-8567389D01*
X5536491Y-8567389D02*
X5526968Y-8586436D01*
X5526968Y-8586436D02*
X5517444Y-8595960D01*
X5517444Y-8595960D02*
X5498396Y-8605484D01*
X5498396Y-8605484D02*
X5479348Y-8605484D01*
X5479348Y-8605484D02*
X5460301Y-8595960D01*
X5460301Y-8595960D02*
X5450777Y-8586436D01*
X5450777Y-8586436D02*
X5441253Y-8567389D01*
X5441253Y-8567389D02*
X5431729Y-8529293D01*
X5431729Y-8529293D02*
X5431729Y-8481674D01*
X5431729Y-8481674D02*
X5441253Y-8443579D01*
X5441253Y-8443579D02*
X5450777Y-8424531D01*
X5450777Y-8424531D02*
X5460301Y-8415008D01*
X5460301Y-8415008D02*
X5479348Y-8405484D01*
X5612682Y-8405484D02*
X5736491Y-8405484D01*
X5736491Y-8405484D02*
X5669825Y-8481674D01*
X5669825Y-8481674D02*
X5698396Y-8481674D01*
X5698396Y-8481674D02*
X5717444Y-8491198D01*
X5717444Y-8491198D02*
X5726967Y-8500722D01*
X5726967Y-8500722D02*
X5736491Y-8519770D01*
X5736491Y-8519770D02*
X5736491Y-8567389D01*
X5736491Y-8567389D02*
X5726967Y-8586436D01*
X5726967Y-8586436D02*
X5717444Y-8595960D01*
X5717444Y-8595960D02*
X5698396Y-8605484D01*
X5698396Y-8605484D02*
X5641253Y-8605484D01*
X5641253Y-8605484D02*
X5622206Y-8595960D01*
X5622206Y-8595960D02*
X5612682Y-8586436D01*
X5926967Y-8605484D02*
X5812682Y-8605484D01*
X5869825Y-8605484D02*
X5869825Y-8405484D01*
X5869825Y-8405484D02*
X5850777Y-8434055D01*
X5850777Y-8434055D02*
X5831729Y-8453103D01*
X5831729Y-8453103D02*
X5812682Y-8462627D01*
X6107920Y-8405484D02*
X6012682Y-8405484D01*
X6012682Y-8405484D02*
X6003158Y-8500722D01*
X6003158Y-8500722D02*
X6012682Y-8491198D01*
X6012682Y-8491198D02*
X6031729Y-8481674D01*
X6031729Y-8481674D02*
X6079348Y-8481674D01*
X6079348Y-8481674D02*
X6098396Y-8491198D01*
X6098396Y-8491198D02*
X6107920Y-8500722D01*
X6107920Y-8500722D02*
X6117444Y-8519770D01*
X6117444Y-8519770D02*
X6117444Y-8567389D01*
X6117444Y-8567389D02*
X6107920Y-8586436D01*
X6107920Y-8586436D02*
X6098396Y-8595960D01*
X6098396Y-8595960D02*
X6079348Y-8605484D01*
X6079348Y-8605484D02*
X6031729Y-8605484D01*
X6031729Y-8605484D02*
X6012682Y-8595960D01*
X6012682Y-8595960D02*
X6003158Y-8586436D01*
X6193634Y-8405484D02*
X6193634Y-8443579D01*
X6269825Y-8405484D02*
X6269825Y-8443579D01*
X6565063Y-8681674D02*
X6555539Y-8672150D01*
X6555539Y-8672150D02*
X6536491Y-8643579D01*
X6536491Y-8643579D02*
X6526968Y-8624531D01*
X6526968Y-8624531D02*
X6517444Y-8595960D01*
X6517444Y-8595960D02*
X6507920Y-8548341D01*
X6507920Y-8548341D02*
X6507920Y-8510246D01*
X6507920Y-8510246D02*
X6517444Y-8462627D01*
X6517444Y-8462627D02*
X6526968Y-8434055D01*
X6526968Y-8434055D02*
X6536491Y-8415008D01*
X6536491Y-8415008D02*
X6555539Y-8386436D01*
X6555539Y-8386436D02*
X6565063Y-8376912D01*
X6669825Y-8491198D02*
X6650777Y-8481674D01*
X6650777Y-8481674D02*
X6641253Y-8472150D01*
X6641253Y-8472150D02*
X6631729Y-8453103D01*
X6631729Y-8453103D02*
X6631729Y-8443579D01*
X6631729Y-8443579D02*
X6641253Y-8424531D01*
X6641253Y-8424531D02*
X6650777Y-8415008D01*
X6650777Y-8415008D02*
X6669825Y-8405484D01*
X6669825Y-8405484D02*
X6707920Y-8405484D01*
X6707920Y-8405484D02*
X6726968Y-8415008D01*
X6726968Y-8415008D02*
X6736491Y-8424531D01*
X6736491Y-8424531D02*
X6746015Y-8443579D01*
X6746015Y-8443579D02*
X6746015Y-8453103D01*
X6746015Y-8453103D02*
X6736491Y-8472150D01*
X6736491Y-8472150D02*
X6726968Y-8481674D01*
X6726968Y-8481674D02*
X6707920Y-8491198D01*
X6707920Y-8491198D02*
X6669825Y-8491198D01*
X6669825Y-8491198D02*
X6650777Y-8500722D01*
X6650777Y-8500722D02*
X6641253Y-8510246D01*
X6641253Y-8510246D02*
X6631729Y-8529293D01*
X6631729Y-8529293D02*
X6631729Y-8567389D01*
X6631729Y-8567389D02*
X6641253Y-8586436D01*
X6641253Y-8586436D02*
X6650777Y-8595960D01*
X6650777Y-8595960D02*
X6669825Y-8605484D01*
X6669825Y-8605484D02*
X6707920Y-8605484D01*
X6707920Y-8605484D02*
X6726968Y-8595960D01*
X6726968Y-8595960D02*
X6736491Y-8586436D01*
X6736491Y-8586436D02*
X6746015Y-8567389D01*
X6746015Y-8567389D02*
X6746015Y-8529293D01*
X6746015Y-8529293D02*
X6736491Y-8510246D01*
X6736491Y-8510246D02*
X6726968Y-8500722D01*
X6726968Y-8500722D02*
X6707920Y-8491198D01*
X6984110Y-8605484D02*
X6984110Y-8405484D01*
X7069825Y-8605484D02*
X7069825Y-8500722D01*
X7069825Y-8500722D02*
X7060301Y-8481674D01*
X7060301Y-8481674D02*
X7041253Y-8472150D01*
X7041253Y-8472150D02*
X7012682Y-8472150D01*
X7012682Y-8472150D02*
X6993634Y-8481674D01*
X6993634Y-8481674D02*
X6984110Y-8491198D01*
X7193634Y-8605484D02*
X7174587Y-8595960D01*
X7174587Y-8595960D02*
X7165063Y-8586436D01*
X7165063Y-8586436D02*
X7155539Y-8567389D01*
X7155539Y-8567389D02*
X7155539Y-8510246D01*
X7155539Y-8510246D02*
X7165063Y-8491198D01*
X7165063Y-8491198D02*
X7174587Y-8481674D01*
X7174587Y-8481674D02*
X7193634Y-8472150D01*
X7193634Y-8472150D02*
X7222206Y-8472150D01*
X7222206Y-8472150D02*
X7241253Y-8481674D01*
X7241253Y-8481674D02*
X7250777Y-8491198D01*
X7250777Y-8491198D02*
X7260301Y-8510246D01*
X7260301Y-8510246D02*
X7260301Y-8567389D01*
X7260301Y-8567389D02*
X7250777Y-8586436D01*
X7250777Y-8586436D02*
X7241253Y-8595960D01*
X7241253Y-8595960D02*
X7222206Y-8605484D01*
X7222206Y-8605484D02*
X7193634Y-8605484D01*
X7374587Y-8605484D02*
X7355539Y-8595960D01*
X7355539Y-8595960D02*
X7346015Y-8576912D01*
X7346015Y-8576912D02*
X7346015Y-8405484D01*
X7526968Y-8595960D02*
X7507920Y-8605484D01*
X7507920Y-8605484D02*
X7469825Y-8605484D01*
X7469825Y-8605484D02*
X7450777Y-8595960D01*
X7450777Y-8595960D02*
X7441253Y-8576912D01*
X7441253Y-8576912D02*
X7441253Y-8500722D01*
X7441253Y-8500722D02*
X7450777Y-8481674D01*
X7450777Y-8481674D02*
X7469825Y-8472150D01*
X7469825Y-8472150D02*
X7507920Y-8472150D01*
X7507920Y-8472150D02*
X7526968Y-8481674D01*
X7526968Y-8481674D02*
X7536491Y-8500722D01*
X7536491Y-8500722D02*
X7536491Y-8519770D01*
X7536491Y-8519770D02*
X7441253Y-8538817D01*
X7612682Y-8595960D02*
X7631730Y-8605484D01*
X7631730Y-8605484D02*
X7669825Y-8605484D01*
X7669825Y-8605484D02*
X7688872Y-8595960D01*
X7688872Y-8595960D02*
X7698396Y-8576912D01*
X7698396Y-8576912D02*
X7698396Y-8567389D01*
X7698396Y-8567389D02*
X7688872Y-8548341D01*
X7688872Y-8548341D02*
X7669825Y-8538817D01*
X7669825Y-8538817D02*
X7641253Y-8538817D01*
X7641253Y-8538817D02*
X7622206Y-8529293D01*
X7622206Y-8529293D02*
X7612682Y-8510246D01*
X7612682Y-8510246D02*
X7612682Y-8500722D01*
X7612682Y-8500722D02*
X7622206Y-8481674D01*
X7622206Y-8481674D02*
X7641253Y-8472150D01*
X7641253Y-8472150D02*
X7669825Y-8472150D01*
X7669825Y-8472150D02*
X7688872Y-8481674D01*
X7765063Y-8681674D02*
X7774587Y-8672150D01*
X7774587Y-8672150D02*
X7793634Y-8643579D01*
X7793634Y-8643579D02*
X7803158Y-8624531D01*
X7803158Y-8624531D02*
X7812682Y-8595960D01*
X7812682Y-8595960D02*
X7822206Y-8548341D01*
X7822206Y-8548341D02*
X7822206Y-8510246D01*
X7822206Y-8510246D02*
X7812682Y-8462627D01*
X7812682Y-8462627D02*
X7803158Y-8434055D01*
X7803158Y-8434055D02*
X7793634Y-8415008D01*
X7793634Y-8415008D02*
X7774587Y-8386436D01*
X7774587Y-8386436D02*
X7765063Y-8376912D01*
D11*
X2942500Y-8730500D02*
X2942500Y-8825500D01*
X2895000Y-8778000D02*
X2990000Y-8778000D01*
D10*
X3288872Y-8669484D02*
X3307920Y-8669484D01*
X3307920Y-8669484D02*
X3326967Y-8679008D01*
X3326967Y-8679008D02*
X3336491Y-8688531D01*
X3336491Y-8688531D02*
X3346015Y-8707579D01*
X3346015Y-8707579D02*
X3355539Y-8745674D01*
X3355539Y-8745674D02*
X3355539Y-8793293D01*
X3355539Y-8793293D02*
X3346015Y-8831389D01*
X3346015Y-8831389D02*
X3336491Y-8850436D01*
X3336491Y-8850436D02*
X3326967Y-8859960D01*
X3326967Y-8859960D02*
X3307920Y-8869484D01*
X3307920Y-8869484D02*
X3288872Y-8869484D01*
X3288872Y-8869484D02*
X3269824Y-8859960D01*
X3269824Y-8859960D02*
X3260301Y-8850436D01*
X3260301Y-8850436D02*
X3250777Y-8831389D01*
X3250777Y-8831389D02*
X3241253Y-8793293D01*
X3241253Y-8793293D02*
X3241253Y-8745674D01*
X3241253Y-8745674D02*
X3250777Y-8707579D01*
X3250777Y-8707579D02*
X3260301Y-8688531D01*
X3260301Y-8688531D02*
X3269824Y-8679008D01*
X3269824Y-8679008D02*
X3288872Y-8669484D01*
X3441253Y-8850436D02*
X3450777Y-8859960D01*
X3450777Y-8859960D02*
X3441253Y-8869484D01*
X3441253Y-8869484D02*
X3431729Y-8859960D01*
X3431729Y-8859960D02*
X3441253Y-8850436D01*
X3441253Y-8850436D02*
X3441253Y-8869484D01*
X3546015Y-8869484D02*
X3584110Y-8869484D01*
X3584110Y-8869484D02*
X3603158Y-8859960D01*
X3603158Y-8859960D02*
X3612682Y-8850436D01*
X3612682Y-8850436D02*
X3631729Y-8821865D01*
X3631729Y-8821865D02*
X3641253Y-8783770D01*
X3641253Y-8783770D02*
X3641253Y-8707579D01*
X3641253Y-8707579D02*
X3631729Y-8688531D01*
X3631729Y-8688531D02*
X3622205Y-8679008D01*
X3622205Y-8679008D02*
X3603158Y-8669484D01*
X3603158Y-8669484D02*
X3565062Y-8669484D01*
X3565062Y-8669484D02*
X3546015Y-8679008D01*
X3546015Y-8679008D02*
X3536491Y-8688531D01*
X3536491Y-8688531D02*
X3526967Y-8707579D01*
X3526967Y-8707579D02*
X3526967Y-8755198D01*
X3526967Y-8755198D02*
X3536491Y-8774246D01*
X3536491Y-8774246D02*
X3546015Y-8783770D01*
X3546015Y-8783770D02*
X3565062Y-8793293D01*
X3565062Y-8793293D02*
X3603158Y-8793293D01*
X3603158Y-8793293D02*
X3622205Y-8783770D01*
X3622205Y-8783770D02*
X3631729Y-8774246D01*
X3631729Y-8774246D02*
X3641253Y-8755198D01*
X3822205Y-8669484D02*
X3726967Y-8669484D01*
X3726967Y-8669484D02*
X3717443Y-8764722D01*
X3717443Y-8764722D02*
X3726967Y-8755198D01*
X3726967Y-8755198D02*
X3746015Y-8745674D01*
X3746015Y-8745674D02*
X3793634Y-8745674D01*
X3793634Y-8745674D02*
X3812682Y-8755198D01*
X3812682Y-8755198D02*
X3822205Y-8764722D01*
X3822205Y-8764722D02*
X3831729Y-8783770D01*
X3831729Y-8783770D02*
X3831729Y-8831389D01*
X3831729Y-8831389D02*
X3822205Y-8850436D01*
X3822205Y-8850436D02*
X3812682Y-8859960D01*
X3812682Y-8859960D02*
X3793634Y-8869484D01*
X3793634Y-8869484D02*
X3746015Y-8869484D01*
X3746015Y-8869484D02*
X3726967Y-8859960D01*
X3726967Y-8859960D02*
X3717443Y-8850436D01*
X3955539Y-8669484D02*
X3974586Y-8669484D01*
X3974586Y-8669484D02*
X3993634Y-8679008D01*
X3993634Y-8679008D02*
X4003158Y-8688531D01*
X4003158Y-8688531D02*
X4012682Y-8707579D01*
X4012682Y-8707579D02*
X4022205Y-8745674D01*
X4022205Y-8745674D02*
X4022205Y-8793293D01*
X4022205Y-8793293D02*
X4012682Y-8831389D01*
X4012682Y-8831389D02*
X4003158Y-8850436D01*
X4003158Y-8850436D02*
X3993634Y-8859960D01*
X3993634Y-8859960D02*
X3974586Y-8869484D01*
X3974586Y-8869484D02*
X3955539Y-8869484D01*
X3955539Y-8869484D02*
X3936491Y-8859960D01*
X3936491Y-8859960D02*
X3926967Y-8850436D01*
X3926967Y-8850436D02*
X3917443Y-8831389D01*
X3917443Y-8831389D02*
X3907920Y-8793293D01*
X3907920Y-8793293D02*
X3907920Y-8745674D01*
X3907920Y-8745674D02*
X3917443Y-8707579D01*
X3917443Y-8707579D02*
X3926967Y-8688531D01*
X3926967Y-8688531D02*
X3936491Y-8679008D01*
X3936491Y-8679008D02*
X3955539Y-8669484D01*
X4107920Y-8869484D02*
X4107920Y-8736150D01*
X4107920Y-8755198D02*
X4117443Y-8745674D01*
X4117443Y-8745674D02*
X4136491Y-8736150D01*
X4136491Y-8736150D02*
X4165063Y-8736150D01*
X4165063Y-8736150D02*
X4184110Y-8745674D01*
X4184110Y-8745674D02*
X4193634Y-8764722D01*
X4193634Y-8764722D02*
X4193634Y-8869484D01*
X4193634Y-8764722D02*
X4203158Y-8745674D01*
X4203158Y-8745674D02*
X4222205Y-8736150D01*
X4222205Y-8736150D02*
X4250777Y-8736150D01*
X4250777Y-8736150D02*
X4269825Y-8745674D01*
X4269825Y-8745674D02*
X4279348Y-8764722D01*
X4279348Y-8764722D02*
X4279348Y-8869484D01*
X4374586Y-8869484D02*
X4374586Y-8736150D01*
X4374586Y-8755198D02*
X4384110Y-8745674D01*
X4384110Y-8745674D02*
X4403158Y-8736150D01*
X4403158Y-8736150D02*
X4431729Y-8736150D01*
X4431729Y-8736150D02*
X4450777Y-8745674D01*
X4450777Y-8745674D02*
X4460301Y-8764722D01*
X4460301Y-8764722D02*
X4460301Y-8869484D01*
X4460301Y-8764722D02*
X4469825Y-8745674D01*
X4469825Y-8745674D02*
X4488872Y-8736150D01*
X4488872Y-8736150D02*
X4517444Y-8736150D01*
X4517444Y-8736150D02*
X4536491Y-8745674D01*
X4536491Y-8745674D02*
X4546015Y-8764722D01*
X4546015Y-8764722D02*
X4546015Y-8869484D01*
X4936491Y-8659960D02*
X4765063Y-8917103D01*
X5193634Y-8669484D02*
X5212682Y-8669484D01*
X5212682Y-8669484D02*
X5231729Y-8679008D01*
X5231729Y-8679008D02*
X5241253Y-8688531D01*
X5241253Y-8688531D02*
X5250777Y-8707579D01*
X5250777Y-8707579D02*
X5260301Y-8745674D01*
X5260301Y-8745674D02*
X5260301Y-8793293D01*
X5260301Y-8793293D02*
X5250777Y-8831389D01*
X5250777Y-8831389D02*
X5241253Y-8850436D01*
X5241253Y-8850436D02*
X5231729Y-8859960D01*
X5231729Y-8859960D02*
X5212682Y-8869484D01*
X5212682Y-8869484D02*
X5193634Y-8869484D01*
X5193634Y-8869484D02*
X5174587Y-8859960D01*
X5174587Y-8859960D02*
X5165063Y-8850436D01*
X5165063Y-8850436D02*
X5155539Y-8831389D01*
X5155539Y-8831389D02*
X5146015Y-8793293D01*
X5146015Y-8793293D02*
X5146015Y-8745674D01*
X5146015Y-8745674D02*
X5155539Y-8707579D01*
X5155539Y-8707579D02*
X5165063Y-8688531D01*
X5165063Y-8688531D02*
X5174587Y-8679008D01*
X5174587Y-8679008D02*
X5193634Y-8669484D01*
X5346015Y-8850436D02*
X5355539Y-8859960D01*
X5355539Y-8859960D02*
X5346015Y-8869484D01*
X5346015Y-8869484D02*
X5336491Y-8859960D01*
X5336491Y-8859960D02*
X5346015Y-8850436D01*
X5346015Y-8850436D02*
X5346015Y-8869484D01*
X5479348Y-8669484D02*
X5498396Y-8669484D01*
X5498396Y-8669484D02*
X5517444Y-8679008D01*
X5517444Y-8679008D02*
X5526968Y-8688531D01*
X5526968Y-8688531D02*
X5536491Y-8707579D01*
X5536491Y-8707579D02*
X5546015Y-8745674D01*
X5546015Y-8745674D02*
X5546015Y-8793293D01*
X5546015Y-8793293D02*
X5536491Y-8831389D01*
X5536491Y-8831389D02*
X5526968Y-8850436D01*
X5526968Y-8850436D02*
X5517444Y-8859960D01*
X5517444Y-8859960D02*
X5498396Y-8869484D01*
X5498396Y-8869484D02*
X5479348Y-8869484D01*
X5479348Y-8869484D02*
X5460301Y-8859960D01*
X5460301Y-8859960D02*
X5450777Y-8850436D01*
X5450777Y-8850436D02*
X5441253Y-8831389D01*
X5441253Y-8831389D02*
X5431729Y-8793293D01*
X5431729Y-8793293D02*
X5431729Y-8745674D01*
X5431729Y-8745674D02*
X5441253Y-8707579D01*
X5441253Y-8707579D02*
X5450777Y-8688531D01*
X5450777Y-8688531D02*
X5460301Y-8679008D01*
X5460301Y-8679008D02*
X5479348Y-8669484D01*
X5612682Y-8669484D02*
X5736491Y-8669484D01*
X5736491Y-8669484D02*
X5669825Y-8745674D01*
X5669825Y-8745674D02*
X5698396Y-8745674D01*
X5698396Y-8745674D02*
X5717444Y-8755198D01*
X5717444Y-8755198D02*
X5726967Y-8764722D01*
X5726967Y-8764722D02*
X5736491Y-8783770D01*
X5736491Y-8783770D02*
X5736491Y-8831389D01*
X5736491Y-8831389D02*
X5726967Y-8850436D01*
X5726967Y-8850436D02*
X5717444Y-8859960D01*
X5717444Y-8859960D02*
X5698396Y-8869484D01*
X5698396Y-8869484D02*
X5641253Y-8869484D01*
X5641253Y-8869484D02*
X5622206Y-8859960D01*
X5622206Y-8859960D02*
X5612682Y-8850436D01*
X5803158Y-8669484D02*
X5936491Y-8669484D01*
X5936491Y-8669484D02*
X5850777Y-8869484D01*
X6098396Y-8736150D02*
X6098396Y-8869484D01*
X6050777Y-8659960D02*
X6003158Y-8802817D01*
X6003158Y-8802817D02*
X6126967Y-8802817D01*
X6193634Y-8669484D02*
X6193634Y-8707579D01*
X6269825Y-8669484D02*
X6269825Y-8707579D01*
X6565063Y-8945674D02*
X6555539Y-8936150D01*
X6555539Y-8936150D02*
X6536491Y-8907579D01*
X6536491Y-8907579D02*
X6526968Y-8888531D01*
X6526968Y-8888531D02*
X6517444Y-8859960D01*
X6517444Y-8859960D02*
X6507920Y-8812341D01*
X6507920Y-8812341D02*
X6507920Y-8774246D01*
X6507920Y-8774246D02*
X6517444Y-8726627D01*
X6517444Y-8726627D02*
X6526968Y-8698055D01*
X6526968Y-8698055D02*
X6536491Y-8679008D01*
X6536491Y-8679008D02*
X6555539Y-8650436D01*
X6555539Y-8650436D02*
X6565063Y-8640912D01*
X6669825Y-8755198D02*
X6650777Y-8745674D01*
X6650777Y-8745674D02*
X6641253Y-8736150D01*
X6641253Y-8736150D02*
X6631729Y-8717103D01*
X6631729Y-8717103D02*
X6631729Y-8707579D01*
X6631729Y-8707579D02*
X6641253Y-8688531D01*
X6641253Y-8688531D02*
X6650777Y-8679008D01*
X6650777Y-8679008D02*
X6669825Y-8669484D01*
X6669825Y-8669484D02*
X6707920Y-8669484D01*
X6707920Y-8669484D02*
X6726968Y-8679008D01*
X6726968Y-8679008D02*
X6736491Y-8688531D01*
X6736491Y-8688531D02*
X6746015Y-8707579D01*
X6746015Y-8707579D02*
X6746015Y-8717103D01*
X6746015Y-8717103D02*
X6736491Y-8736150D01*
X6736491Y-8736150D02*
X6726968Y-8745674D01*
X6726968Y-8745674D02*
X6707920Y-8755198D01*
X6707920Y-8755198D02*
X6669825Y-8755198D01*
X6669825Y-8755198D02*
X6650777Y-8764722D01*
X6650777Y-8764722D02*
X6641253Y-8774246D01*
X6641253Y-8774246D02*
X6631729Y-8793293D01*
X6631729Y-8793293D02*
X6631729Y-8831389D01*
X6631729Y-8831389D02*
X6641253Y-8850436D01*
X6641253Y-8850436D02*
X6650777Y-8859960D01*
X6650777Y-8859960D02*
X6669825Y-8869484D01*
X6669825Y-8869484D02*
X6707920Y-8869484D01*
X6707920Y-8869484D02*
X6726968Y-8859960D01*
X6726968Y-8859960D02*
X6736491Y-8850436D01*
X6736491Y-8850436D02*
X6746015Y-8831389D01*
X6746015Y-8831389D02*
X6746015Y-8793293D01*
X6746015Y-8793293D02*
X6736491Y-8774246D01*
X6736491Y-8774246D02*
X6726968Y-8764722D01*
X6726968Y-8764722D02*
X6707920Y-8755198D01*
X6984110Y-8869484D02*
X6984110Y-8669484D01*
X7069825Y-8869484D02*
X7069825Y-8764722D01*
X7069825Y-8764722D02*
X7060301Y-8745674D01*
X7060301Y-8745674D02*
X7041253Y-8736150D01*
X7041253Y-8736150D02*
X7012682Y-8736150D01*
X7012682Y-8736150D02*
X6993634Y-8745674D01*
X6993634Y-8745674D02*
X6984110Y-8755198D01*
X7193634Y-8869484D02*
X7174587Y-8859960D01*
X7174587Y-8859960D02*
X7165063Y-8850436D01*
X7165063Y-8850436D02*
X7155539Y-8831389D01*
X7155539Y-8831389D02*
X7155539Y-8774246D01*
X7155539Y-8774246D02*
X7165063Y-8755198D01*
X7165063Y-8755198D02*
X7174587Y-8745674D01*
X7174587Y-8745674D02*
X7193634Y-8736150D01*
X7193634Y-8736150D02*
X7222206Y-8736150D01*
X7222206Y-8736150D02*
X7241253Y-8745674D01*
X7241253Y-8745674D02*
X7250777Y-8755198D01*
X7250777Y-8755198D02*
X7260301Y-8774246D01*
X7260301Y-8774246D02*
X7260301Y-8831389D01*
X7260301Y-8831389D02*
X7250777Y-8850436D01*
X7250777Y-8850436D02*
X7241253Y-8859960D01*
X7241253Y-8859960D02*
X7222206Y-8869484D01*
X7222206Y-8869484D02*
X7193634Y-8869484D01*
X7374587Y-8869484D02*
X7355539Y-8859960D01*
X7355539Y-8859960D02*
X7346015Y-8840912D01*
X7346015Y-8840912D02*
X7346015Y-8669484D01*
X7526968Y-8859960D02*
X7507920Y-8869484D01*
X7507920Y-8869484D02*
X7469825Y-8869484D01*
X7469825Y-8869484D02*
X7450777Y-8859960D01*
X7450777Y-8859960D02*
X7441253Y-8840912D01*
X7441253Y-8840912D02*
X7441253Y-8764722D01*
X7441253Y-8764722D02*
X7450777Y-8745674D01*
X7450777Y-8745674D02*
X7469825Y-8736150D01*
X7469825Y-8736150D02*
X7507920Y-8736150D01*
X7507920Y-8736150D02*
X7526968Y-8745674D01*
X7526968Y-8745674D02*
X7536491Y-8764722D01*
X7536491Y-8764722D02*
X7536491Y-8783770D01*
X7536491Y-8783770D02*
X7441253Y-8802817D01*
X7612682Y-8859960D02*
X7631730Y-8869484D01*
X7631730Y-8869484D02*
X7669825Y-8869484D01*
X7669825Y-8869484D02*
X7688872Y-8859960D01*
X7688872Y-8859960D02*
X7698396Y-8840912D01*
X7698396Y-8840912D02*
X7698396Y-8831389D01*
X7698396Y-8831389D02*
X7688872Y-8812341D01*
X7688872Y-8812341D02*
X7669825Y-8802817D01*
X7669825Y-8802817D02*
X7641253Y-8802817D01*
X7641253Y-8802817D02*
X7622206Y-8793293D01*
X7622206Y-8793293D02*
X7612682Y-8774246D01*
X7612682Y-8774246D02*
X7612682Y-8764722D01*
X7612682Y-8764722D02*
X7622206Y-8745674D01*
X7622206Y-8745674D02*
X7641253Y-8736150D01*
X7641253Y-8736150D02*
X7669825Y-8736150D01*
X7669825Y-8736150D02*
X7688872Y-8745674D01*
X7765063Y-8945674D02*
X7774587Y-8936150D01*
X7774587Y-8936150D02*
X7793634Y-8907579D01*
X7793634Y-8907579D02*
X7803158Y-8888531D01*
X7803158Y-8888531D02*
X7812682Y-8859960D01*
X7812682Y-8859960D02*
X7822206Y-8812341D01*
X7822206Y-8812341D02*
X7822206Y-8774246D01*
X7822206Y-8774246D02*
X7812682Y-8726627D01*
X7812682Y-8726627D02*
X7803158Y-8698055D01*
X7803158Y-8698055D02*
X7793634Y-8679008D01*
X7793634Y-8679008D02*
X7774587Y-8650436D01*
X7774587Y-8650436D02*
X7765063Y-8640912D01*
D11*
X2975356Y-9077356D02*
X2975356Y-9006644D01*
X2904644Y-9006644D01*
X2904644Y-9077356D01*
X2975356Y-9077356D01*
D10*
X3355539Y-9133484D02*
X3241253Y-9133484D01*
X3298396Y-9133484D02*
X3298396Y-8933484D01*
X3298396Y-8933484D02*
X3279348Y-8962055D01*
X3279348Y-8962055D02*
X3260301Y-8981103D01*
X3260301Y-8981103D02*
X3241253Y-8990627D01*
X3441253Y-9114436D02*
X3450777Y-9123960D01*
X3450777Y-9123960D02*
X3441253Y-9133484D01*
X3441253Y-9133484D02*
X3431729Y-9123960D01*
X3431729Y-9123960D02*
X3441253Y-9114436D01*
X3441253Y-9114436D02*
X3441253Y-9133484D01*
X3574586Y-8933484D02*
X3593634Y-8933484D01*
X3593634Y-8933484D02*
X3612682Y-8943008D01*
X3612682Y-8943008D02*
X3622205Y-8952531D01*
X3622205Y-8952531D02*
X3631729Y-8971579D01*
X3631729Y-8971579D02*
X3641253Y-9009674D01*
X3641253Y-9009674D02*
X3641253Y-9057293D01*
X3641253Y-9057293D02*
X3631729Y-9095389D01*
X3631729Y-9095389D02*
X3622205Y-9114436D01*
X3622205Y-9114436D02*
X3612682Y-9123960D01*
X3612682Y-9123960D02*
X3593634Y-9133484D01*
X3593634Y-9133484D02*
X3574586Y-9133484D01*
X3574586Y-9133484D02*
X3555539Y-9123960D01*
X3555539Y-9123960D02*
X3546015Y-9114436D01*
X3546015Y-9114436D02*
X3536491Y-9095389D01*
X3536491Y-9095389D02*
X3526967Y-9057293D01*
X3526967Y-9057293D02*
X3526967Y-9009674D01*
X3526967Y-9009674D02*
X3536491Y-8971579D01*
X3536491Y-8971579D02*
X3546015Y-8952531D01*
X3546015Y-8952531D02*
X3555539Y-8943008D01*
X3555539Y-8943008D02*
X3574586Y-8933484D01*
X3765062Y-8933484D02*
X3784110Y-8933484D01*
X3784110Y-8933484D02*
X3803158Y-8943008D01*
X3803158Y-8943008D02*
X3812682Y-8952531D01*
X3812682Y-8952531D02*
X3822205Y-8971579D01*
X3822205Y-8971579D02*
X3831729Y-9009674D01*
X3831729Y-9009674D02*
X3831729Y-9057293D01*
X3831729Y-9057293D02*
X3822205Y-9095389D01*
X3822205Y-9095389D02*
X3812682Y-9114436D01*
X3812682Y-9114436D02*
X3803158Y-9123960D01*
X3803158Y-9123960D02*
X3784110Y-9133484D01*
X3784110Y-9133484D02*
X3765062Y-9133484D01*
X3765062Y-9133484D02*
X3746015Y-9123960D01*
X3746015Y-9123960D02*
X3736491Y-9114436D01*
X3736491Y-9114436D02*
X3726967Y-9095389D01*
X3726967Y-9095389D02*
X3717443Y-9057293D01*
X3717443Y-9057293D02*
X3717443Y-9009674D01*
X3717443Y-9009674D02*
X3726967Y-8971579D01*
X3726967Y-8971579D02*
X3736491Y-8952531D01*
X3736491Y-8952531D02*
X3746015Y-8943008D01*
X3746015Y-8943008D02*
X3765062Y-8933484D01*
X3955539Y-8933484D02*
X3974586Y-8933484D01*
X3974586Y-8933484D02*
X3993634Y-8943008D01*
X3993634Y-8943008D02*
X4003158Y-8952531D01*
X4003158Y-8952531D02*
X4012682Y-8971579D01*
X4012682Y-8971579D02*
X4022205Y-9009674D01*
X4022205Y-9009674D02*
X4022205Y-9057293D01*
X4022205Y-9057293D02*
X4012682Y-9095389D01*
X4012682Y-9095389D02*
X4003158Y-9114436D01*
X4003158Y-9114436D02*
X3993634Y-9123960D01*
X3993634Y-9123960D02*
X3974586Y-9133484D01*
X3974586Y-9133484D02*
X3955539Y-9133484D01*
X3955539Y-9133484D02*
X3936491Y-9123960D01*
X3936491Y-9123960D02*
X3926967Y-9114436D01*
X3926967Y-9114436D02*
X3917443Y-9095389D01*
X3917443Y-9095389D02*
X3907920Y-9057293D01*
X3907920Y-9057293D02*
X3907920Y-9009674D01*
X3907920Y-9009674D02*
X3917443Y-8971579D01*
X3917443Y-8971579D02*
X3926967Y-8952531D01*
X3926967Y-8952531D02*
X3936491Y-8943008D01*
X3936491Y-8943008D02*
X3955539Y-8933484D01*
X4107920Y-9133484D02*
X4107920Y-9000150D01*
X4107920Y-9019198D02*
X4117443Y-9009674D01*
X4117443Y-9009674D02*
X4136491Y-9000150D01*
X4136491Y-9000150D02*
X4165063Y-9000150D01*
X4165063Y-9000150D02*
X4184110Y-9009674D01*
X4184110Y-9009674D02*
X4193634Y-9028722D01*
X4193634Y-9028722D02*
X4193634Y-9133484D01*
X4193634Y-9028722D02*
X4203158Y-9009674D01*
X4203158Y-9009674D02*
X4222205Y-9000150D01*
X4222205Y-9000150D02*
X4250777Y-9000150D01*
X4250777Y-9000150D02*
X4269825Y-9009674D01*
X4269825Y-9009674D02*
X4279348Y-9028722D01*
X4279348Y-9028722D02*
X4279348Y-9133484D01*
X4374586Y-9133484D02*
X4374586Y-9000150D01*
X4374586Y-9019198D02*
X4384110Y-9009674D01*
X4384110Y-9009674D02*
X4403158Y-9000150D01*
X4403158Y-9000150D02*
X4431729Y-9000150D01*
X4431729Y-9000150D02*
X4450777Y-9009674D01*
X4450777Y-9009674D02*
X4460301Y-9028722D01*
X4460301Y-9028722D02*
X4460301Y-9133484D01*
X4460301Y-9028722D02*
X4469825Y-9009674D01*
X4469825Y-9009674D02*
X4488872Y-9000150D01*
X4488872Y-9000150D02*
X4517444Y-9000150D01*
X4517444Y-9000150D02*
X4536491Y-9009674D01*
X4536491Y-9009674D02*
X4546015Y-9028722D01*
X4546015Y-9028722D02*
X4546015Y-9133484D01*
X4936491Y-8923960D02*
X4765063Y-9181103D01*
X5193634Y-8933484D02*
X5212682Y-8933484D01*
X5212682Y-8933484D02*
X5231729Y-8943008D01*
X5231729Y-8943008D02*
X5241253Y-8952531D01*
X5241253Y-8952531D02*
X5250777Y-8971579D01*
X5250777Y-8971579D02*
X5260301Y-9009674D01*
X5260301Y-9009674D02*
X5260301Y-9057293D01*
X5260301Y-9057293D02*
X5250777Y-9095389D01*
X5250777Y-9095389D02*
X5241253Y-9114436D01*
X5241253Y-9114436D02*
X5231729Y-9123960D01*
X5231729Y-9123960D02*
X5212682Y-9133484D01*
X5212682Y-9133484D02*
X5193634Y-9133484D01*
X5193634Y-9133484D02*
X5174587Y-9123960D01*
X5174587Y-9123960D02*
X5165063Y-9114436D01*
X5165063Y-9114436D02*
X5155539Y-9095389D01*
X5155539Y-9095389D02*
X5146015Y-9057293D01*
X5146015Y-9057293D02*
X5146015Y-9009674D01*
X5146015Y-9009674D02*
X5155539Y-8971579D01*
X5155539Y-8971579D02*
X5165063Y-8952531D01*
X5165063Y-8952531D02*
X5174587Y-8943008D01*
X5174587Y-8943008D02*
X5193634Y-8933484D01*
X5346015Y-9114436D02*
X5355539Y-9123960D01*
X5355539Y-9123960D02*
X5346015Y-9133484D01*
X5346015Y-9133484D02*
X5336491Y-9123960D01*
X5336491Y-9123960D02*
X5346015Y-9114436D01*
X5346015Y-9114436D02*
X5346015Y-9133484D01*
X5479348Y-8933484D02*
X5498396Y-8933484D01*
X5498396Y-8933484D02*
X5517444Y-8943008D01*
X5517444Y-8943008D02*
X5526968Y-8952531D01*
X5526968Y-8952531D02*
X5536491Y-8971579D01*
X5536491Y-8971579D02*
X5546015Y-9009674D01*
X5546015Y-9009674D02*
X5546015Y-9057293D01*
X5546015Y-9057293D02*
X5536491Y-9095389D01*
X5536491Y-9095389D02*
X5526968Y-9114436D01*
X5526968Y-9114436D02*
X5517444Y-9123960D01*
X5517444Y-9123960D02*
X5498396Y-9133484D01*
X5498396Y-9133484D02*
X5479348Y-9133484D01*
X5479348Y-9133484D02*
X5460301Y-9123960D01*
X5460301Y-9123960D02*
X5450777Y-9114436D01*
X5450777Y-9114436D02*
X5441253Y-9095389D01*
X5441253Y-9095389D02*
X5431729Y-9057293D01*
X5431729Y-9057293D02*
X5431729Y-9009674D01*
X5431729Y-9009674D02*
X5441253Y-8971579D01*
X5441253Y-8971579D02*
X5450777Y-8952531D01*
X5450777Y-8952531D02*
X5460301Y-8943008D01*
X5460301Y-8943008D02*
X5479348Y-8933484D01*
X5612682Y-8933484D02*
X5736491Y-8933484D01*
X5736491Y-8933484D02*
X5669825Y-9009674D01*
X5669825Y-9009674D02*
X5698396Y-9009674D01*
X5698396Y-9009674D02*
X5717444Y-9019198D01*
X5717444Y-9019198D02*
X5726967Y-9028722D01*
X5726967Y-9028722D02*
X5736491Y-9047770D01*
X5736491Y-9047770D02*
X5736491Y-9095389D01*
X5736491Y-9095389D02*
X5726967Y-9114436D01*
X5726967Y-9114436D02*
X5717444Y-9123960D01*
X5717444Y-9123960D02*
X5698396Y-9133484D01*
X5698396Y-9133484D02*
X5641253Y-9133484D01*
X5641253Y-9133484D02*
X5622206Y-9123960D01*
X5622206Y-9123960D02*
X5612682Y-9114436D01*
X5831729Y-9133484D02*
X5869825Y-9133484D01*
X5869825Y-9133484D02*
X5888872Y-9123960D01*
X5888872Y-9123960D02*
X5898396Y-9114436D01*
X5898396Y-9114436D02*
X5917444Y-9085865D01*
X5917444Y-9085865D02*
X5926967Y-9047770D01*
X5926967Y-9047770D02*
X5926967Y-8971579D01*
X5926967Y-8971579D02*
X5917444Y-8952531D01*
X5917444Y-8952531D02*
X5907920Y-8943008D01*
X5907920Y-8943008D02*
X5888872Y-8933484D01*
X5888872Y-8933484D02*
X5850777Y-8933484D01*
X5850777Y-8933484D02*
X5831729Y-8943008D01*
X5831729Y-8943008D02*
X5822206Y-8952531D01*
X5822206Y-8952531D02*
X5812682Y-8971579D01*
X5812682Y-8971579D02*
X5812682Y-9019198D01*
X5812682Y-9019198D02*
X5822206Y-9038246D01*
X5822206Y-9038246D02*
X5831729Y-9047770D01*
X5831729Y-9047770D02*
X5850777Y-9057293D01*
X5850777Y-9057293D02*
X5888872Y-9057293D01*
X5888872Y-9057293D02*
X5907920Y-9047770D01*
X5907920Y-9047770D02*
X5917444Y-9038246D01*
X5917444Y-9038246D02*
X5926967Y-9019198D01*
X6098396Y-9000150D02*
X6098396Y-9133484D01*
X6050777Y-8923960D02*
X6003158Y-9066817D01*
X6003158Y-9066817D02*
X6126967Y-9066817D01*
X6193634Y-8933484D02*
X6193634Y-8971579D01*
X6269825Y-8933484D02*
X6269825Y-8971579D01*
X6565063Y-9209674D02*
X6555539Y-9200150D01*
X6555539Y-9200150D02*
X6536491Y-9171579D01*
X6536491Y-9171579D02*
X6526968Y-9152531D01*
X6526968Y-9152531D02*
X6517444Y-9123960D01*
X6517444Y-9123960D02*
X6507920Y-9076341D01*
X6507920Y-9076341D02*
X6507920Y-9038246D01*
X6507920Y-9038246D02*
X6517444Y-8990627D01*
X6517444Y-8990627D02*
X6526968Y-8962055D01*
X6526968Y-8962055D02*
X6536491Y-8943008D01*
X6536491Y-8943008D02*
X6555539Y-8914436D01*
X6555539Y-8914436D02*
X6565063Y-8904912D01*
X6746015Y-9133484D02*
X6631729Y-9133484D01*
X6688872Y-9133484D02*
X6688872Y-8933484D01*
X6688872Y-8933484D02*
X6669825Y-8962055D01*
X6669825Y-8962055D02*
X6650777Y-8981103D01*
X6650777Y-8981103D02*
X6631729Y-8990627D01*
X6860301Y-9019198D02*
X6841253Y-9009674D01*
X6841253Y-9009674D02*
X6831729Y-9000150D01*
X6831729Y-9000150D02*
X6822206Y-8981103D01*
X6822206Y-8981103D02*
X6822206Y-8971579D01*
X6822206Y-8971579D02*
X6831729Y-8952531D01*
X6831729Y-8952531D02*
X6841253Y-8943008D01*
X6841253Y-8943008D02*
X6860301Y-8933484D01*
X6860301Y-8933484D02*
X6898396Y-8933484D01*
X6898396Y-8933484D02*
X6917444Y-8943008D01*
X6917444Y-8943008D02*
X6926968Y-8952531D01*
X6926968Y-8952531D02*
X6936491Y-8971579D01*
X6936491Y-8971579D02*
X6936491Y-8981103D01*
X6936491Y-8981103D02*
X6926968Y-9000150D01*
X6926968Y-9000150D02*
X6917444Y-9009674D01*
X6917444Y-9009674D02*
X6898396Y-9019198D01*
X6898396Y-9019198D02*
X6860301Y-9019198D01*
X6860301Y-9019198D02*
X6841253Y-9028722D01*
X6841253Y-9028722D02*
X6831729Y-9038246D01*
X6831729Y-9038246D02*
X6822206Y-9057293D01*
X6822206Y-9057293D02*
X6822206Y-9095389D01*
X6822206Y-9095389D02*
X6831729Y-9114436D01*
X6831729Y-9114436D02*
X6841253Y-9123960D01*
X6841253Y-9123960D02*
X6860301Y-9133484D01*
X6860301Y-9133484D02*
X6898396Y-9133484D01*
X6898396Y-9133484D02*
X6917444Y-9123960D01*
X6917444Y-9123960D02*
X6926968Y-9114436D01*
X6926968Y-9114436D02*
X6936491Y-9095389D01*
X6936491Y-9095389D02*
X6936491Y-9057293D01*
X6936491Y-9057293D02*
X6926968Y-9038246D01*
X6926968Y-9038246D02*
X6917444Y-9028722D01*
X6917444Y-9028722D02*
X6898396Y-9019198D01*
X7174587Y-9133484D02*
X7174587Y-8933484D01*
X7260301Y-9133484D02*
X7260301Y-9028722D01*
X7260301Y-9028722D02*
X7250777Y-9009674D01*
X7250777Y-9009674D02*
X7231730Y-9000150D01*
X7231730Y-9000150D02*
X7203158Y-9000150D01*
X7203158Y-9000150D02*
X7184110Y-9009674D01*
X7184110Y-9009674D02*
X7174587Y-9019198D01*
X7384110Y-9133484D02*
X7365063Y-9123960D01*
X7365063Y-9123960D02*
X7355539Y-9114436D01*
X7355539Y-9114436D02*
X7346015Y-9095389D01*
X7346015Y-9095389D02*
X7346015Y-9038246D01*
X7346015Y-9038246D02*
X7355539Y-9019198D01*
X7355539Y-9019198D02*
X7365063Y-9009674D01*
X7365063Y-9009674D02*
X7384110Y-9000150D01*
X7384110Y-9000150D02*
X7412682Y-9000150D01*
X7412682Y-9000150D02*
X7431730Y-9009674D01*
X7431730Y-9009674D02*
X7441253Y-9019198D01*
X7441253Y-9019198D02*
X7450777Y-9038246D01*
X7450777Y-9038246D02*
X7450777Y-9095389D01*
X7450777Y-9095389D02*
X7441253Y-9114436D01*
X7441253Y-9114436D02*
X7431730Y-9123960D01*
X7431730Y-9123960D02*
X7412682Y-9133484D01*
X7412682Y-9133484D02*
X7384110Y-9133484D01*
X7565063Y-9133484D02*
X7546015Y-9123960D01*
X7546015Y-9123960D02*
X7536491Y-9104912D01*
X7536491Y-9104912D02*
X7536491Y-8933484D01*
X7717444Y-9123960D02*
X7698396Y-9133484D01*
X7698396Y-9133484D02*
X7660301Y-9133484D01*
X7660301Y-9133484D02*
X7641253Y-9123960D01*
X7641253Y-9123960D02*
X7631730Y-9104912D01*
X7631730Y-9104912D02*
X7631730Y-9028722D01*
X7631730Y-9028722D02*
X7641253Y-9009674D01*
X7641253Y-9009674D02*
X7660301Y-9000150D01*
X7660301Y-9000150D02*
X7698396Y-9000150D01*
X7698396Y-9000150D02*
X7717444Y-9009674D01*
X7717444Y-9009674D02*
X7726968Y-9028722D01*
X7726968Y-9028722D02*
X7726968Y-9047770D01*
X7726968Y-9047770D02*
X7631730Y-9066817D01*
X7803158Y-9123960D02*
X7822206Y-9133484D01*
X7822206Y-9133484D02*
X7860301Y-9133484D01*
X7860301Y-9133484D02*
X7879349Y-9123960D01*
X7879349Y-9123960D02*
X7888872Y-9104912D01*
X7888872Y-9104912D02*
X7888872Y-9095389D01*
X7888872Y-9095389D02*
X7879349Y-9076341D01*
X7879349Y-9076341D02*
X7860301Y-9066817D01*
X7860301Y-9066817D02*
X7831730Y-9066817D01*
X7831730Y-9066817D02*
X7812682Y-9057293D01*
X7812682Y-9057293D02*
X7803158Y-9038246D01*
X7803158Y-9038246D02*
X7803158Y-9028722D01*
X7803158Y-9028722D02*
X7812682Y-9009674D01*
X7812682Y-9009674D02*
X7831730Y-9000150D01*
X7831730Y-9000150D02*
X7860301Y-9000150D01*
X7860301Y-9000150D02*
X7879349Y-9009674D01*
X7955539Y-9209674D02*
X7965063Y-9200150D01*
X7965063Y-9200150D02*
X7984111Y-9171579D01*
X7984111Y-9171579D02*
X7993634Y-9152531D01*
X7993634Y-9152531D02*
X8003158Y-9123960D01*
X8003158Y-9123960D02*
X8012682Y-9076341D01*
X8012682Y-9076341D02*
X8012682Y-9038246D01*
X8012682Y-9038246D02*
X8003158Y-8990627D01*
X8003158Y-8990627D02*
X7993634Y-8962055D01*
X7993634Y-8962055D02*
X7984111Y-8943008D01*
X7984111Y-8943008D02*
X7965063Y-8914436D01*
X7965063Y-8914436D02*
X7955539Y-8904912D01*
D12*
X2914000Y-9382000D02*
X2990000Y-9306000D01*
X2914000Y-9230000D01*
X2838000Y-9306000D01*
X2914000Y-9382000D01*
D10*
X3355539Y-9397484D02*
X3241253Y-9397484D01*
X3298396Y-9397484D02*
X3298396Y-9197484D01*
X3298396Y-9197484D02*
X3279348Y-9226055D01*
X3279348Y-9226055D02*
X3260301Y-9245103D01*
X3260301Y-9245103D02*
X3241253Y-9254627D01*
X3441253Y-9378436D02*
X3450777Y-9387960D01*
X3450777Y-9387960D02*
X3441253Y-9397484D01*
X3441253Y-9397484D02*
X3431729Y-9387960D01*
X3431729Y-9387960D02*
X3441253Y-9378436D01*
X3441253Y-9378436D02*
X3441253Y-9397484D01*
X3631729Y-9197484D02*
X3536491Y-9197484D01*
X3536491Y-9197484D02*
X3526967Y-9292722D01*
X3526967Y-9292722D02*
X3536491Y-9283198D01*
X3536491Y-9283198D02*
X3555539Y-9273674D01*
X3555539Y-9273674D02*
X3603158Y-9273674D01*
X3603158Y-9273674D02*
X3622205Y-9283198D01*
X3622205Y-9283198D02*
X3631729Y-9292722D01*
X3631729Y-9292722D02*
X3641253Y-9311770D01*
X3641253Y-9311770D02*
X3641253Y-9359389D01*
X3641253Y-9359389D02*
X3631729Y-9378436D01*
X3631729Y-9378436D02*
X3622205Y-9387960D01*
X3622205Y-9387960D02*
X3603158Y-9397484D01*
X3603158Y-9397484D02*
X3555539Y-9397484D01*
X3555539Y-9397484D02*
X3536491Y-9387960D01*
X3536491Y-9387960D02*
X3526967Y-9378436D01*
X3717443Y-9216531D02*
X3726967Y-9207008D01*
X3726967Y-9207008D02*
X3746015Y-9197484D01*
X3746015Y-9197484D02*
X3793634Y-9197484D01*
X3793634Y-9197484D02*
X3812682Y-9207008D01*
X3812682Y-9207008D02*
X3822205Y-9216531D01*
X3822205Y-9216531D02*
X3831729Y-9235579D01*
X3831729Y-9235579D02*
X3831729Y-9254627D01*
X3831729Y-9254627D02*
X3822205Y-9283198D01*
X3822205Y-9283198D02*
X3707920Y-9397484D01*
X3707920Y-9397484D02*
X3831729Y-9397484D01*
X3955539Y-9197484D02*
X3974586Y-9197484D01*
X3974586Y-9197484D02*
X3993634Y-9207008D01*
X3993634Y-9207008D02*
X4003158Y-9216531D01*
X4003158Y-9216531D02*
X4012682Y-9235579D01*
X4012682Y-9235579D02*
X4022205Y-9273674D01*
X4022205Y-9273674D02*
X4022205Y-9321293D01*
X4022205Y-9321293D02*
X4012682Y-9359389D01*
X4012682Y-9359389D02*
X4003158Y-9378436D01*
X4003158Y-9378436D02*
X3993634Y-9387960D01*
X3993634Y-9387960D02*
X3974586Y-9397484D01*
X3974586Y-9397484D02*
X3955539Y-9397484D01*
X3955539Y-9397484D02*
X3936491Y-9387960D01*
X3936491Y-9387960D02*
X3926967Y-9378436D01*
X3926967Y-9378436D02*
X3917443Y-9359389D01*
X3917443Y-9359389D02*
X3907920Y-9321293D01*
X3907920Y-9321293D02*
X3907920Y-9273674D01*
X3907920Y-9273674D02*
X3917443Y-9235579D01*
X3917443Y-9235579D02*
X3926967Y-9216531D01*
X3926967Y-9216531D02*
X3936491Y-9207008D01*
X3936491Y-9207008D02*
X3955539Y-9197484D01*
X4107920Y-9397484D02*
X4107920Y-9264150D01*
X4107920Y-9283198D02*
X4117443Y-9273674D01*
X4117443Y-9273674D02*
X4136491Y-9264150D01*
X4136491Y-9264150D02*
X4165063Y-9264150D01*
X4165063Y-9264150D02*
X4184110Y-9273674D01*
X4184110Y-9273674D02*
X4193634Y-9292722D01*
X4193634Y-9292722D02*
X4193634Y-9397484D01*
X4193634Y-9292722D02*
X4203158Y-9273674D01*
X4203158Y-9273674D02*
X4222205Y-9264150D01*
X4222205Y-9264150D02*
X4250777Y-9264150D01*
X4250777Y-9264150D02*
X4269825Y-9273674D01*
X4269825Y-9273674D02*
X4279348Y-9292722D01*
X4279348Y-9292722D02*
X4279348Y-9397484D01*
X4374586Y-9397484D02*
X4374586Y-9264150D01*
X4374586Y-9283198D02*
X4384110Y-9273674D01*
X4384110Y-9273674D02*
X4403158Y-9264150D01*
X4403158Y-9264150D02*
X4431729Y-9264150D01*
X4431729Y-9264150D02*
X4450777Y-9273674D01*
X4450777Y-9273674D02*
X4460301Y-9292722D01*
X4460301Y-9292722D02*
X4460301Y-9397484D01*
X4460301Y-9292722D02*
X4469825Y-9273674D01*
X4469825Y-9273674D02*
X4488872Y-9264150D01*
X4488872Y-9264150D02*
X4517444Y-9264150D01*
X4517444Y-9264150D02*
X4536491Y-9273674D01*
X4536491Y-9273674D02*
X4546015Y-9292722D01*
X4546015Y-9292722D02*
X4546015Y-9397484D01*
X4936491Y-9187960D02*
X4765063Y-9445103D01*
X5193634Y-9197484D02*
X5212682Y-9197484D01*
X5212682Y-9197484D02*
X5231729Y-9207008D01*
X5231729Y-9207008D02*
X5241253Y-9216531D01*
X5241253Y-9216531D02*
X5250777Y-9235579D01*
X5250777Y-9235579D02*
X5260301Y-9273674D01*
X5260301Y-9273674D02*
X5260301Y-9321293D01*
X5260301Y-9321293D02*
X5250777Y-9359389D01*
X5250777Y-9359389D02*
X5241253Y-9378436D01*
X5241253Y-9378436D02*
X5231729Y-9387960D01*
X5231729Y-9387960D02*
X5212682Y-9397484D01*
X5212682Y-9397484D02*
X5193634Y-9397484D01*
X5193634Y-9397484D02*
X5174587Y-9387960D01*
X5174587Y-9387960D02*
X5165063Y-9378436D01*
X5165063Y-9378436D02*
X5155539Y-9359389D01*
X5155539Y-9359389D02*
X5146015Y-9321293D01*
X5146015Y-9321293D02*
X5146015Y-9273674D01*
X5146015Y-9273674D02*
X5155539Y-9235579D01*
X5155539Y-9235579D02*
X5165063Y-9216531D01*
X5165063Y-9216531D02*
X5174587Y-9207008D01*
X5174587Y-9207008D02*
X5193634Y-9197484D01*
X5346015Y-9378436D02*
X5355539Y-9387960D01*
X5355539Y-9387960D02*
X5346015Y-9397484D01*
X5346015Y-9397484D02*
X5336491Y-9387960D01*
X5336491Y-9387960D02*
X5346015Y-9378436D01*
X5346015Y-9378436D02*
X5346015Y-9397484D01*
X5479348Y-9197484D02*
X5498396Y-9197484D01*
X5498396Y-9197484D02*
X5517444Y-9207008D01*
X5517444Y-9207008D02*
X5526968Y-9216531D01*
X5526968Y-9216531D02*
X5536491Y-9235579D01*
X5536491Y-9235579D02*
X5546015Y-9273674D01*
X5546015Y-9273674D02*
X5546015Y-9321293D01*
X5546015Y-9321293D02*
X5536491Y-9359389D01*
X5536491Y-9359389D02*
X5526968Y-9378436D01*
X5526968Y-9378436D02*
X5517444Y-9387960D01*
X5517444Y-9387960D02*
X5498396Y-9397484D01*
X5498396Y-9397484D02*
X5479348Y-9397484D01*
X5479348Y-9397484D02*
X5460301Y-9387960D01*
X5460301Y-9387960D02*
X5450777Y-9378436D01*
X5450777Y-9378436D02*
X5441253Y-9359389D01*
X5441253Y-9359389D02*
X5431729Y-9321293D01*
X5431729Y-9321293D02*
X5431729Y-9273674D01*
X5431729Y-9273674D02*
X5441253Y-9235579D01*
X5441253Y-9235579D02*
X5450777Y-9216531D01*
X5450777Y-9216531D02*
X5460301Y-9207008D01*
X5460301Y-9207008D02*
X5479348Y-9197484D01*
X5726967Y-9197484D02*
X5631729Y-9197484D01*
X5631729Y-9197484D02*
X5622206Y-9292722D01*
X5622206Y-9292722D02*
X5631729Y-9283198D01*
X5631729Y-9283198D02*
X5650777Y-9273674D01*
X5650777Y-9273674D02*
X5698396Y-9273674D01*
X5698396Y-9273674D02*
X5717444Y-9283198D01*
X5717444Y-9283198D02*
X5726967Y-9292722D01*
X5726967Y-9292722D02*
X5736491Y-9311770D01*
X5736491Y-9311770D02*
X5736491Y-9359389D01*
X5736491Y-9359389D02*
X5726967Y-9378436D01*
X5726967Y-9378436D02*
X5717444Y-9387960D01*
X5717444Y-9387960D02*
X5698396Y-9397484D01*
X5698396Y-9397484D02*
X5650777Y-9397484D01*
X5650777Y-9397484D02*
X5631729Y-9387960D01*
X5631729Y-9387960D02*
X5622206Y-9378436D01*
X5831729Y-9397484D02*
X5869825Y-9397484D01*
X5869825Y-9397484D02*
X5888872Y-9387960D01*
X5888872Y-9387960D02*
X5898396Y-9378436D01*
X5898396Y-9378436D02*
X5917444Y-9349865D01*
X5917444Y-9349865D02*
X5926967Y-9311770D01*
X5926967Y-9311770D02*
X5926967Y-9235579D01*
X5926967Y-9235579D02*
X5917444Y-9216531D01*
X5917444Y-9216531D02*
X5907920Y-9207008D01*
X5907920Y-9207008D02*
X5888872Y-9197484D01*
X5888872Y-9197484D02*
X5850777Y-9197484D01*
X5850777Y-9197484D02*
X5831729Y-9207008D01*
X5831729Y-9207008D02*
X5822206Y-9216531D01*
X5822206Y-9216531D02*
X5812682Y-9235579D01*
X5812682Y-9235579D02*
X5812682Y-9283198D01*
X5812682Y-9283198D02*
X5822206Y-9302246D01*
X5822206Y-9302246D02*
X5831729Y-9311770D01*
X5831729Y-9311770D02*
X5850777Y-9321293D01*
X5850777Y-9321293D02*
X5888872Y-9321293D01*
X5888872Y-9321293D02*
X5907920Y-9311770D01*
X5907920Y-9311770D02*
X5917444Y-9302246D01*
X5917444Y-9302246D02*
X5926967Y-9283198D01*
X6041253Y-9283198D02*
X6022206Y-9273674D01*
X6022206Y-9273674D02*
X6012682Y-9264150D01*
X6012682Y-9264150D02*
X6003158Y-9245103D01*
X6003158Y-9245103D02*
X6003158Y-9235579D01*
X6003158Y-9235579D02*
X6012682Y-9216531D01*
X6012682Y-9216531D02*
X6022206Y-9207008D01*
X6022206Y-9207008D02*
X6041253Y-9197484D01*
X6041253Y-9197484D02*
X6079348Y-9197484D01*
X6079348Y-9197484D02*
X6098396Y-9207008D01*
X6098396Y-9207008D02*
X6107920Y-9216531D01*
X6107920Y-9216531D02*
X6117444Y-9235579D01*
X6117444Y-9235579D02*
X6117444Y-9245103D01*
X6117444Y-9245103D02*
X6107920Y-9264150D01*
X6107920Y-9264150D02*
X6098396Y-9273674D01*
X6098396Y-9273674D02*
X6079348Y-9283198D01*
X6079348Y-9283198D02*
X6041253Y-9283198D01*
X6041253Y-9283198D02*
X6022206Y-9292722D01*
X6022206Y-9292722D02*
X6012682Y-9302246D01*
X6012682Y-9302246D02*
X6003158Y-9321293D01*
X6003158Y-9321293D02*
X6003158Y-9359389D01*
X6003158Y-9359389D02*
X6012682Y-9378436D01*
X6012682Y-9378436D02*
X6022206Y-9387960D01*
X6022206Y-9387960D02*
X6041253Y-9397484D01*
X6041253Y-9397484D02*
X6079348Y-9397484D01*
X6079348Y-9397484D02*
X6098396Y-9387960D01*
X6098396Y-9387960D02*
X6107920Y-9378436D01*
X6107920Y-9378436D02*
X6117444Y-9359389D01*
X6117444Y-9359389D02*
X6117444Y-9321293D01*
X6117444Y-9321293D02*
X6107920Y-9302246D01*
X6107920Y-9302246D02*
X6098396Y-9292722D01*
X6098396Y-9292722D02*
X6079348Y-9283198D01*
X6193634Y-9197484D02*
X6193634Y-9235579D01*
X6269825Y-9197484D02*
X6269825Y-9235579D01*
X6565063Y-9473674D02*
X6555539Y-9464150D01*
X6555539Y-9464150D02*
X6536491Y-9435579D01*
X6536491Y-9435579D02*
X6526968Y-9416531D01*
X6526968Y-9416531D02*
X6517444Y-9387960D01*
X6517444Y-9387960D02*
X6507920Y-9340341D01*
X6507920Y-9340341D02*
X6507920Y-9302246D01*
X6507920Y-9302246D02*
X6517444Y-9254627D01*
X6517444Y-9254627D02*
X6526968Y-9226055D01*
X6526968Y-9226055D02*
X6536491Y-9207008D01*
X6536491Y-9207008D02*
X6555539Y-9178436D01*
X6555539Y-9178436D02*
X6565063Y-9168912D01*
X6669825Y-9283198D02*
X6650777Y-9273674D01*
X6650777Y-9273674D02*
X6641253Y-9264150D01*
X6641253Y-9264150D02*
X6631729Y-9245103D01*
X6631729Y-9245103D02*
X6631729Y-9235579D01*
X6631729Y-9235579D02*
X6641253Y-9216531D01*
X6641253Y-9216531D02*
X6650777Y-9207008D01*
X6650777Y-9207008D02*
X6669825Y-9197484D01*
X6669825Y-9197484D02*
X6707920Y-9197484D01*
X6707920Y-9197484D02*
X6726968Y-9207008D01*
X6726968Y-9207008D02*
X6736491Y-9216531D01*
X6736491Y-9216531D02*
X6746015Y-9235579D01*
X6746015Y-9235579D02*
X6746015Y-9245103D01*
X6746015Y-9245103D02*
X6736491Y-9264150D01*
X6736491Y-9264150D02*
X6726968Y-9273674D01*
X6726968Y-9273674D02*
X6707920Y-9283198D01*
X6707920Y-9283198D02*
X6669825Y-9283198D01*
X6669825Y-9283198D02*
X6650777Y-9292722D01*
X6650777Y-9292722D02*
X6641253Y-9302246D01*
X6641253Y-9302246D02*
X6631729Y-9321293D01*
X6631729Y-9321293D02*
X6631729Y-9359389D01*
X6631729Y-9359389D02*
X6641253Y-9378436D01*
X6641253Y-9378436D02*
X6650777Y-9387960D01*
X6650777Y-9387960D02*
X6669825Y-9397484D01*
X6669825Y-9397484D02*
X6707920Y-9397484D01*
X6707920Y-9397484D02*
X6726968Y-9387960D01*
X6726968Y-9387960D02*
X6736491Y-9378436D01*
X6736491Y-9378436D02*
X6746015Y-9359389D01*
X6746015Y-9359389D02*
X6746015Y-9321293D01*
X6746015Y-9321293D02*
X6736491Y-9302246D01*
X6736491Y-9302246D02*
X6726968Y-9292722D01*
X6726968Y-9292722D02*
X6707920Y-9283198D01*
X6984110Y-9397484D02*
X6984110Y-9197484D01*
X7069825Y-9397484D02*
X7069825Y-9292722D01*
X7069825Y-9292722D02*
X7060301Y-9273674D01*
X7060301Y-9273674D02*
X7041253Y-9264150D01*
X7041253Y-9264150D02*
X7012682Y-9264150D01*
X7012682Y-9264150D02*
X6993634Y-9273674D01*
X6993634Y-9273674D02*
X6984110Y-9283198D01*
X7193634Y-9397484D02*
X7174587Y-9387960D01*
X7174587Y-9387960D02*
X7165063Y-9378436D01*
X7165063Y-9378436D02*
X7155539Y-9359389D01*
X7155539Y-9359389D02*
X7155539Y-9302246D01*
X7155539Y-9302246D02*
X7165063Y-9283198D01*
X7165063Y-9283198D02*
X7174587Y-9273674D01*
X7174587Y-9273674D02*
X7193634Y-9264150D01*
X7193634Y-9264150D02*
X7222206Y-9264150D01*
X7222206Y-9264150D02*
X7241253Y-9273674D01*
X7241253Y-9273674D02*
X7250777Y-9283198D01*
X7250777Y-9283198D02*
X7260301Y-9302246D01*
X7260301Y-9302246D02*
X7260301Y-9359389D01*
X7260301Y-9359389D02*
X7250777Y-9378436D01*
X7250777Y-9378436D02*
X7241253Y-9387960D01*
X7241253Y-9387960D02*
X7222206Y-9397484D01*
X7222206Y-9397484D02*
X7193634Y-9397484D01*
X7374587Y-9397484D02*
X7355539Y-9387960D01*
X7355539Y-9387960D02*
X7346015Y-9368912D01*
X7346015Y-9368912D02*
X7346015Y-9197484D01*
X7526968Y-9387960D02*
X7507920Y-9397484D01*
X7507920Y-9397484D02*
X7469825Y-9397484D01*
X7469825Y-9397484D02*
X7450777Y-9387960D01*
X7450777Y-9387960D02*
X7441253Y-9368912D01*
X7441253Y-9368912D02*
X7441253Y-9292722D01*
X7441253Y-9292722D02*
X7450777Y-9273674D01*
X7450777Y-9273674D02*
X7469825Y-9264150D01*
X7469825Y-9264150D02*
X7507920Y-9264150D01*
X7507920Y-9264150D02*
X7526968Y-9273674D01*
X7526968Y-9273674D02*
X7536491Y-9292722D01*
X7536491Y-9292722D02*
X7536491Y-9311770D01*
X7536491Y-9311770D02*
X7441253Y-9330817D01*
X7612682Y-9387960D02*
X7631730Y-9397484D01*
X7631730Y-9397484D02*
X7669825Y-9397484D01*
X7669825Y-9397484D02*
X7688872Y-9387960D01*
X7688872Y-9387960D02*
X7698396Y-9368912D01*
X7698396Y-9368912D02*
X7698396Y-9359389D01*
X7698396Y-9359389D02*
X7688872Y-9340341D01*
X7688872Y-9340341D02*
X7669825Y-9330817D01*
X7669825Y-9330817D02*
X7641253Y-9330817D01*
X7641253Y-9330817D02*
X7622206Y-9321293D01*
X7622206Y-9321293D02*
X7612682Y-9302246D01*
X7612682Y-9302246D02*
X7612682Y-9292722D01*
X7612682Y-9292722D02*
X7622206Y-9273674D01*
X7622206Y-9273674D02*
X7641253Y-9264150D01*
X7641253Y-9264150D02*
X7669825Y-9264150D01*
X7669825Y-9264150D02*
X7688872Y-9273674D01*
X7765063Y-9473674D02*
X7774587Y-9464150D01*
X7774587Y-9464150D02*
X7793634Y-9435579D01*
X7793634Y-9435579D02*
X7803158Y-9416531D01*
X7803158Y-9416531D02*
X7812682Y-9387960D01*
X7812682Y-9387960D02*
X7822206Y-9340341D01*
X7822206Y-9340341D02*
X7822206Y-9302246D01*
X7822206Y-9302246D02*
X7812682Y-9254627D01*
X7812682Y-9254627D02*
X7803158Y-9226055D01*
X7803158Y-9226055D02*
X7793634Y-9207008D01*
X7793634Y-9207008D02*
X7774587Y-9178436D01*
X7774587Y-9178436D02*
X7765063Y-9168912D01*
M02*
