G04 #@! TF.GenerationSoftware,KiCad,Pcbnew,8.0.1-8.0.1-1~ubuntu22.04.1*
G04 #@! TF.CreationDate,2024-05-03T10:53:39-07:00*
G04 #@! TF.ProjectId,pifire-ads-board,70696669-7265-42d6-9164-732d626f6172,rev?*
G04 #@! TF.SameCoordinates,Original*
G04 #@! TF.FileFunction,Soldermask,Top*
G04 #@! TF.FilePolarity,Negative*
%FSLAX46Y46*%
G04 Gerber Fmt 4.6, Leading zero omitted, Abs format (unit mm)*
G04 Created by KiCad (PCBNEW 8.0.1-8.0.1-1~ubuntu22.04.1) date 2024-05-03 10:53:39*
%MOMM*%
%LPD*%
G01*
G04 APERTURE LIST*
G04 Aperture macros list*
%AMRoundRect*
0 Rectangle with rounded corners*
0 $1 Rounding radius*
0 $2 $3 $4 $5 $6 $7 $8 $9 X,Y pos of 4 corners*
0 Add a 4 corners polygon primitive as box body*
4,1,4,$2,$3,$4,$5,$6,$7,$8,$9,$2,$3,0*
0 Add four circle primitives for the rounded corners*
1,1,$1+$1,$2,$3*
1,1,$1+$1,$4,$5*
1,1,$1+$1,$6,$7*
1,1,$1+$1,$8,$9*
0 Add four rect primitives between the rounded corners*
20,1,$1+$1,$2,$3,$4,$5,0*
20,1,$1+$1,$4,$5,$6,$7,0*
20,1,$1+$1,$6,$7,$8,$9,0*
20,1,$1+$1,$8,$9,$2,$3,0*%
%AMFreePoly0*
4,1,6,1.000000,0.000000,0.500000,-0.750000,-0.500000,-0.750000,-0.500000,0.750000,0.500000,0.750000,1.000000,0.000000,1.000000,0.000000,$1*%
%AMFreePoly1*
4,1,6,0.500000,-0.750000,-0.650000,-0.750000,-0.150000,0.000000,-0.650000,0.750000,0.500000,0.750000,0.500000,-0.750000,0.500000,-0.750000,$1*%
G04 Aperture macros list end*
%ADD10C,3.200000*%
%ADD11RoundRect,0.250000X-0.725000X0.600000X-0.725000X-0.600000X0.725000X-0.600000X0.725000X0.600000X0*%
%ADD12O,1.950000X1.700000*%
%ADD13R,1.700000X1.700000*%
%ADD14O,1.700000X1.700000*%
%ADD15C,1.600000*%
%ADD16O,1.600000X1.600000*%
%ADD17R,3.000000X3.000000*%
%ADD18C,3.000000*%
%ADD19RoundRect,0.250000X-0.600000X-0.750000X0.600000X-0.750000X0.600000X0.750000X-0.600000X0.750000X0*%
%ADD20O,1.700000X2.000000*%
%ADD21FreePoly0,0.000000*%
%ADD22FreePoly1,0.000000*%
G04 APERTURE END LIST*
D10*
X91000000Y-72000000D03*
D11*
X39000000Y-43250000D03*
D12*
X39000000Y-45750000D03*
X39000000Y-48250000D03*
X39000000Y-50750000D03*
D13*
X48608000Y-68000000D03*
D14*
X51148000Y-68000000D03*
X53688000Y-68000000D03*
X56228000Y-68000000D03*
X58768000Y-68000000D03*
X61308000Y-68000000D03*
X63848000Y-68000000D03*
X66388000Y-68000000D03*
X68928000Y-68000000D03*
X71468000Y-68000000D03*
D15*
X78250000Y-60810000D03*
D16*
X78250000Y-53190000D03*
D17*
X76128000Y-35000000D03*
D18*
X81208000Y-35000000D03*
D19*
X66500000Y-45000000D03*
D20*
X69000000Y-45000000D03*
D17*
X44124000Y-35000000D03*
D18*
X49204000Y-35000000D03*
D10*
X34000000Y-34000000D03*
D21*
X44550000Y-73000000D03*
D22*
X46000000Y-73000000D03*
D10*
X34000000Y-72000000D03*
D21*
X39550000Y-73000000D03*
D22*
X41000000Y-73000000D03*
D17*
X65460000Y-35000000D03*
D18*
X70540000Y-35000000D03*
D15*
X88250000Y-60810000D03*
D16*
X88250000Y-53190000D03*
D19*
X57500000Y-45000000D03*
D20*
X60000000Y-45000000D03*
D21*
X54550000Y-73000000D03*
D22*
X56000000Y-73000000D03*
D21*
X49550000Y-73000000D03*
D22*
X51000000Y-73000000D03*
D19*
X75500000Y-45000000D03*
D20*
X78000000Y-45000000D03*
D19*
X48500000Y-45000000D03*
D20*
X51000000Y-45000000D03*
D11*
X39000000Y-57500000D03*
D12*
X39000000Y-60000000D03*
X39000000Y-62500000D03*
X39000000Y-65000000D03*
D15*
X83250000Y-60810000D03*
D16*
X83250000Y-53190000D03*
D10*
X91000000Y-34000000D03*
X71364000Y-55522000D03*
D17*
X54792000Y-35000000D03*
D18*
X59872000Y-35000000D03*
D10*
X48616000Y-55522000D03*
D15*
X93250000Y-60810000D03*
D16*
X93250000Y-53190000D03*
M02*
